<?xml version="1.0" encoding="iso-8859-1"?>
<!-- Generator: Adobe Illustrator 19.0.0, SVG Export Plug-In . SVG Version: 6.00 Build 0)  -->
<svg version="1.1" id="Layer_1" xmlns="http://www.w3.org/2000/svg" xmlns:xlink="http://www.w3.org/1999/xlink" x="0px" y="0px"
	 viewBox="0 0 512 512" style="enable-background:new 0 0 512 512;" xml:space="preserve">
<path style="fill:#999999;" d="M395.595,263.642l-18.081,49.746v-2.819c0-66.487-48.884-121.534-112.645-131.203
	c-6.547-0.99-13.246-1.503-20.061-1.503l-54.639-15.483l-20.073-5.685l-72.871-36.442l72.871-36.442l20.073-4.311l54.639-11.732
	h20.236c23.23,0,45.435-6.571,64.448-18.314C348.505,37.7,364.315,20.761,374.683,0C419.501,80.7,427.144,176.884,395.595,263.642z"
	/>
<polyline style="fill:#D88948;" points="227.496,48.58 227.496,16.396 187.409,16.396 187.409,48.58 187.409,186.929 187.409,512 
	227.496,512 227.496,186.929 "/>
<polyline style="fill:#C4783F;" points="205.908,48.58 205.908,16.396 187.409,16.396 187.409,48.58 187.409,186.929 187.409,512 
	205.908,512 205.908,186.929 "/>
<path style="fill:#CCCCCC;" d="M411.474,200.463c-3.087,21.366-8.376,42.546-15.879,63.179l-18.081,49.746v-2.819
	c0-22.077-5.394-42.896-14.935-61.21c-0.245-0.489-0.513-0.979-0.769-1.468c8.283-27.075,12.85-54.907,13.747-82.762
	c0.524-15.937-0.151-31.898-2.027-47.719c-1.107-9.495-2.656-18.955-4.637-28.333c-4.066-19.339-9.949-38.34-17.615-56.771
	c9.378-9.273,17.324-20.131,23.405-32.306c10.369,18.663,18.745,38.166,25.106,58.181c2.714,8.551,5.068,17.207,7.048,25.921
	c3.227,14.19,5.476,28.566,6.722,43.024C415.691,151.498,415.016,176.103,411.474,200.463z"/>
<path style="fill:#E6E6E6;" d="M406.837,84.102L373.53,117.41c-1.107-9.495-2.656-18.955-4.637-28.333l30.896-30.896
	C402.504,66.732,404.857,75.388,406.837,84.102z"/>
<path style="fill:#808080;" d="M264.869,67.769v111.596c-6.547-0.99-13.246-1.503-20.061-1.503l-54.639-15.483V79.5l54.639-11.732
	H264.869z"/>
<path style="fill:#E6E6E6;" d="M411.474,200.463l-48.895,48.896c-0.245-0.489-0.513-0.979-0.769-1.468
	c8.283-27.075,12.85-54.907,13.747-82.762l38.003-38.003C415.691,151.498,415.016,176.103,411.474,200.463z"/>
<rect x="174.449" y="48.586" style="fill:#B3B3B3;" width="70.355" height="138.345"/>
<rect x="170.104" y="48.586" style="fill:#999999;" width="22.991" height="138.345"/>
<g>
</g>
<g>
</g>
<g>
</g>
<g>
</g>
<g>
</g>
<g>
</g>
<g>
</g>
<g>
</g>
<g>
</g>
<g>
</g>
<g>
</g>
<g>
</g>
<g>
</g>
<g>
</g>
<g>
</g>
</svg>
