<?xml version="1.0" encoding="iso-8859-1"?>
<!-- Generator: Adobe Illustrator 19.0.0, SVG Export Plug-In . SVG Version: 6.00 Build 0)  -->
<svg version="1.1" id="Layer_1" xmlns="http://www.w3.org/2000/svg" xmlns:xlink="http://www.w3.org/1999/xlink" x="0px" y="0px"
	 viewBox="0 0 511.999 511.999" style="enable-background:new 0 0 511.999 511.999;" xml:space="preserve">
<path style="fill:#EFBB6A;" d="M441.417,121.579c0,46.519-17.127,89.027-45.423,121.579c-19.214-22.094-43.569-39.605-71.201-50.646
	c-21.266-8.511-44.49-13.186-68.787-13.186c-12.37,0-24.449,1.213-36.143,3.521c-41.133,8.126-77.38,29.858-103.846,60.311
	c-28.296-32.552-45.435-75.06-45.435-121.579c0-46.507,17.139-89.027,45.435-121.579c26.466,30.465,62.713,52.197,103.846,60.323
	c11.694,2.308,23.772,3.521,36.143,3.521c24.297,0,47.522-4.675,68.787-13.186C352.424,39.605,376.78,22.105,395.994,0
	C424.29,32.552,441.417,75.072,441.417,121.579z"/>
<path style="fill:#D88948;" d="M223.943,182.086v320.941c0,4.955,4.016,8.972,8.972,8.972h46.18c4.955,0,8.972-4.017,8.972-8.972
	V182.086V61.079V35.865c0-10.305-8.354-18.659-18.659-18.659h-26.806c-10.305,0-18.659,8.354-18.659,18.659v25.214"/>
<path style="fill:#C4783F;" d="M248.427,61.079V35.865c0-10.305,8.354-18.659,18.659-18.659h-24.484
	c-10.305,0-18.659,8.354-18.659,18.659v25.214v121.008v320.941c0,4.955,4.016,8.972,8.972,8.972h15.512V182.086L248.427,61.079
	L248.427,61.079z"/>
<path style="fill:#D89F55;" d="M324.793,50.658v141.854c-21.266-8.511-44.49-13.186-68.787-13.186
	c-12.37,0-24.449,1.213-36.143,3.521V60.323c11.694,2.308,23.772,3.521,36.143,3.521C280.302,63.844,303.527,59.169,324.793,50.658z
	"/>
<path style="fill:#EFBB6A;" d="M308.47,55.639v131.893c0,3.835-3.655,6.656-7.344,5.611c-14.444-4.09-29.558-6.255-45.121-6.255
	c-5.107,0-10.167,0.237-15.157,0.698c-10.245,0.926-20.258,2.806-29.967,5.555c-3.688,1.045-7.342-1.78-7.342-5.613V55.639
	c0-3.833,3.654-6.657,7.342-5.613c9.708,2.749,19.722,4.631,29.967,5.555c4.99,0.462,10.05,0.698,15.157,0.698
	c15.563,0,30.677-2.164,45.121-6.254C304.815,48.981,308.47,51.804,308.47,55.639z"/>
<path style="fill:#F9DAB4;" d="M133.622,17.71l-0.14,0.163c-20.042,29.602-31.724,65.29-31.724,103.706
	c0,38.428,11.682,74.116,31.724,103.717l0.14,0.152c-6.261,5.503-12.137,11.426-17.605,17.71
	c-28.296-32.552-45.435-75.06-45.435-121.579c0-46.507,17.139-89.027,45.435-121.579C121.485,6.284,127.361,12.207,133.622,17.71z"
	/>
<path style="fill:#D89F55;" d="M240.849,55.583v132.005c-10.245,0.926-20.258,2.806-29.967,5.555
	c-3.688,1.045-7.342-1.78-7.342-5.613V55.639c0-3.833,3.654-6.657,7.342-5.613C220.59,52.776,230.604,54.657,240.849,55.583z"/>
<path style="fill:#F9DAB4;" d="M395.994,0c28.296,32.552,45.423,75.072,45.423,121.579c0,46.519-17.127,89.027-45.423,121.579
	c-5.468-6.284-11.344-12.207-17.605-17.71l0.128-0.152c20.042-29.602,31.724-65.29,31.724-103.717
	c0-38.416-11.682-74.104-31.724-103.706l-0.14-0.163C384.638,12.207,390.526,6.296,395.994,0z"/>
<g>
	<path style="fill:#808080;" d="M223.948,366.392c-3.372,0-6.584-1.962-8.019-5.249c-1.931-4.426,0.091-9.58,4.517-11.512
		l64.124-27.981c4.428-1.933,9.581,0.092,11.512,4.518c1.931,4.426-0.091,9.58-4.517,11.512l-64.124,27.981
		C226.302,366.158,225.115,366.392,223.948,366.392z"/>
	<path style="fill:#808080;" d="M223.948,402.777c-3.372,0-6.584-1.962-8.019-5.249c-1.931-4.426,0.091-9.58,4.517-11.512
		l64.124-27.981c4.428-1.933,9.581,0.092,11.512,4.518c1.931,4.426-0.091,9.58-4.517,11.512l-64.124,27.981
		C226.302,402.542,225.115,402.777,223.948,402.777z"/>
	<path style="fill:#808080;" d="M223.948,439.162c-3.372,0-6.584-1.962-8.019-5.249c-1.931-4.426,0.091-9.58,4.517-11.512
		l64.124-27.981c4.428-1.932,9.581,0.092,11.512,4.518c1.931,4.426-0.091,9.58-4.517,11.512l-64.124,27.981
		C226.302,438.927,225.115,439.162,223.948,439.162z"/>
	<path style="fill:#808080;" d="M223.948,475.546c-3.372,0-6.584-1.962-8.019-5.249c-1.931-4.426,0.091-9.58,4.517-11.512
		l64.124-27.981c4.428-1.932,9.581,0.092,11.512,4.518c1.931,4.426-0.091,9.58-4.517,11.512l-64.124,27.981
		C226.302,475.312,225.115,475.546,223.948,475.546z"/>
</g>
<g>
</g>
<g>
</g>
<g>
</g>
<g>
</g>
<g>
</g>
<g>
</g>
<g>
</g>
<g>
</g>
<g>
</g>
<g>
</g>
<g>
</g>
<g>
</g>
<g>
</g>
<g>
</g>
<g>
</g>
</svg>
