<?xml version="1.0" encoding="iso-8859-1"?>
<!-- Generator: Adobe Illustrator 19.0.0, SVG Export Plug-In . SVG Version: 6.00 Build 0)  -->
<svg version="1.1" id="Layer_1" xmlns="http://www.w3.org/2000/svg" xmlns:xlink="http://www.w3.org/1999/xlink" x="0px" y="0px"
	 viewBox="0 0 512.004 512.004" style="enable-background:new 0 0 512.004 512.004;" xml:space="preserve">
<rect x="133.551" y="165.492" style="fill:#B3B3B3;" width="244.892" height="346.512"/>
<rect x="133.551" y="185.158" style="fill:#999999;" width="244.892" height="35.27"/>
<polygon style="fill:#CCCCCC;" points="332.519,0 332.519,59.041 289.4,59.041 289.4,0 222.603,0 222.603,59.041 179.485,59.041 
	179.485,0 118.825,0 103.523,197.139 408.481,197.139 393.178,0 "/>
<polygon style="fill:#B3B3B3;" points="160.402,197.139 160.402,0 118.825,0 103.523,197.139 "/>
<rect x="133.551" y="197.139" style="fill:#999999;" width="47.103" height="314.865"/>
<g>
	<path style="fill:#F97C64;" d="M256.002,268.029L256.002,268.029c-16.779,0-30.382,13.602-30.382,30.382v72.731h60.763V298.41
		C286.382,281.63,272.781,268.029,256.002,268.029z"/>
	<path style="fill:#F97C64;" d="M187.874,98.63L187.874,98.63c-16.779,0-30.382,13.602-30.382,30.382v29.461h60.763v-29.461
		C218.255,112.231,204.653,98.63,187.874,98.63z"/>
	<path style="fill:#F97C64;" d="M324.129,98.63L324.129,98.63c-16.779,0-30.382,13.602-30.382,30.382v29.461h60.763v-29.461
		C354.511,112.231,340.908,98.63,324.129,98.63z"/>
</g>
<g>
	<path style="fill:#808080;" d="M291.906,376.665h-71.81V298.41c0-19.799,16.107-35.906,35.906-35.906l0,0
		c19.799,0,35.906,16.107,35.906,35.906v78.255H291.906z M231.144,365.617h49.715V298.41c0-13.706-11.15-24.857-24.857-24.857
		s-24.857,11.15-24.857,24.857L231.144,365.617L231.144,365.617z"/>
	<path style="fill:#808080;" d="M223.779,163.995h-71.812V129.01c0-19.799,16.107-35.906,35.906-35.906s35.906,16.107,35.906,35.906
		L223.779,163.995L223.779,163.995z M163.017,152.947h49.715V129.01c0-13.706-11.15-24.857-24.857-24.857
		c-13.706,0-24.857,11.15-24.857,24.857V152.947z"/>
	<path style="fill:#808080;" d="M360.035,163.995h-71.812V129.01c0-19.799,16.107-35.906,35.906-35.906s35.906,16.107,35.906,35.906
		V163.995z M299.272,152.947h49.715V129.01c0-13.706-11.15-24.857-24.857-24.857s-24.857,11.15-24.857,24.857V152.947
		L299.272,152.947z"/>
</g>
<g>
	<rect x="204.813" y="468.878" style="fill:#999999;" width="61.38" height="12.276"/>
	<polygon style="fill:#999999;" points="218.315,468.659 230.591,468.659 230.591,442.879 253.915,442.879 253.915,430.603 
		192.535,430.603 192.535,442.879 218.315,442.879 	"/>
	<rect x="315.296" y="334.666" style="fill:#999999;" width="61.38" height="12.276"/>
	<polygon style="fill:#999999;" points="328.798,334.441 341.074,334.441 341.074,308.662 364.398,308.662 364.398,296.386 
		303.019,296.386 303.019,308.662 328.798,308.662 	"/>
</g>
<g>
</g>
<g>
</g>
<g>
</g>
<g>
</g>
<g>
</g>
<g>
</g>
<g>
</g>
<g>
</g>
<g>
</g>
<g>
</g>
<g>
</g>
<g>
</g>
<g>
</g>
<g>
</g>
<g>
</g>
</svg>
