<?xml version="1.0" encoding="iso-8859-1"?>
<!-- Generator: Adobe Illustrator 19.0.0, SVG Export Plug-In . SVG Version: 6.00 Build 0)  -->
<svg version="1.1" id="Layer_1" xmlns="http://www.w3.org/2000/svg" xmlns:xlink="http://www.w3.org/1999/xlink" x="0px" y="0px"
	 viewBox="0 0 512 512" style="enable-background:new 0 0 512 512;" xml:space="preserve">
<rect x="231.979" style="fill:#C4783F;" width="14.389" height="336.943"/>
<path style="fill:#D88948;" d="M496.764,266.106c1.251,4.815-3.472,9.116-8.139,7.394c-2.855-1.053-6.164-1.837-9.694-1.837
	c-10.887,0-19.472,8.873-19.472,19.436c0,0.875,0.06,1.763,0.18,2.65l12.818,94.245c5.695,41.883-26.871,79.161-69.137,79.161
	h-330.9c-31.693,0-57.386-25.693-57.386-57.386v-57.393c0-1.275,0.82-2.468,2.059-2.766c1.314-0.317,2.558,0.337,3.121,1.478
	c8.309,17.026,25.791,28.753,46.007,28.753c0,0,3.969-0.168,11.043-0.492c7.638-0.336,18.897-0.839,32.71-1.475
	c13.273-0.6,28.897-1.331,45.911-2.146c10.444-0.492,21.415-1.019,32.698-1.571c0.384-0.024,0.779-0.036,1.175-0.06
	c11.103-0.54,22.482-1.115,33.933-1.691c13.957-0.707,28.022-1.439,41.811-2.182c11.583-0.623,18.705,7.218,29.664,6.595
	c1.175-0.072,4.832,5.468,5.995,5.396c13.177-0.755,27.482-15.576,38.945-16.307c11.835-0.767,22.53-1.511,31.667-2.218
	c20.468-1.571,33.034-2.974,32.698-4.029c0.108-0.048,0.228-0.108,0.336-0.168c0.959-0.48,1.894-0.983,2.818-1.523
	c17.146-10.024,25.887-30.228,21.283-49.808l-15.036-64.017h1.799c12.211,0,22.536-8.119,25.857-19.258
	c1.083-3.629,5.221-5.339,8.495-3.436l22.948,13.33C484.918,241.715,493.379,253.075,496.764,266.106z"/>
<path style="fill:#C4783F;" d="M455.525,443.667c-12.71,14.329-31.259,23.489-52.206,23.489h-330.9
	c-31.693,0-57.386-25.693-57.386-57.386V352.25c0-1.502,1.218-2.719,2.719-2.719l0,0c1.055,0,1.998,0.618,2.462,1.566
	c6.138,12.561,17.258,22.24,30.79,26.444v10.648c0,31.693,25.693,57.386,57.386,57.386h330.9
	C444.889,445.573,450.321,444.902,455.525,443.667z"/>
<path style="fill:#F2F2F2;" d="M88.329,24.627c74.168,0,134.293,60.125,134.293,134.293S162.497,293.213,88.329,293.213h173.202
	c74.168,0,134.293-60.125,134.293-134.293S335.699,24.627,261.531,24.627C261.531,24.627,88.329,24.627,88.329,24.627z"/>
<path style="fill:#F97C64;" d="M233.315,24.627h-38.965c74.168,0,134.293,60.125,134.293,134.293s-60.125,134.293-134.293,134.293
	h38.965c74.168,0,134.293-60.125,134.293-134.293S307.483,24.627,233.315,24.627z"/>
<path style="fill:#C4783F;" d="M188.582,374.158c-11.283,0.552-22.254,1.079-32.698,1.571c0.6,2.062,0.911,4.233,0.911,6.487
	c0,13.022-10.588,23.609-23.609,23.609c-13.022,0-23.621-10.588-23.621-23.609c0-1.487,0.132-2.926,0.408-4.341
	c-13.813,0.635-25.072,1.139-32.71,1.475c-0.048,0.947-0.072,1.906-0.072,2.866c0,1.019,0.024,2.026,0.084,3.022
	c1.571,29.52,26.007,52.962,55.911,52.962c30.923,0,55.983-25.06,55.983-55.983C189.169,379.482,188.978,376.784,188.582,374.158z"
	/>
<path style="fill:#F97C64;" d="M162.103,24.627h-38.965c74.168,0,134.293,60.125,134.293,134.293s-60.125,134.293-134.293,134.293
	h38.965c74.168,0,134.293-60.125,134.293-134.293S236.272,24.627,162.103,24.627z"/>
<g>
	<path style="fill:#C4783F;" d="M410.465,365.057c-0.779-2.434-1.727-4.808-2.842-7.086c-0.923,0.54-1.859,1.043-2.818,1.523
		c-0.108,0.06-0.228,0.12-0.336,0.168c0.336,1.055-12.23,2.458-32.698,4.029c5.48,4.317,8.993,11.019,8.993,18.525
		c0,13.022-10.588,23.609-23.609,23.609c-13.022,0-23.621-10.588-23.621-23.609c0-6.319,2.494-12.074,6.571-16.307
		c-11.463,0.731-23.981,1.487-37.158,2.242c-1.163,4.496-1.787,9.209-1.787,14.065c0,30.923,25.072,55.983,55.995,55.983
		s55.983-25.06,55.983-55.983C413.139,376.232,412.204,370.465,410.465,365.057z"/>
	<path style="fill:#C4783F;" d="M289.032,382.953c-10.959,0.623-11.948-13.351-23.531-12.728c2.086,3.513,3.285,7.614,3.285,11.99
		c0,13.022-10.6,23.609-23.621,23.609s-23.621-10.588-23.621-23.609c0-3.501,0.767-6.823,2.146-9.808
		c-11.451,0.576-22.83,1.151-33.933,1.691c-0.384,2.65-0.588,5.36-0.588,8.118c0,30.923,25.072,55.983,55.995,55.983
		s55.995-25.06,55.995-55.983C301.16,377.431,290.159,387.377,289.032,382.953z"/>
</g>
<g>
	<polygon style="fill:#666666;" points="200.932,387.995 124.073,512 109.961,512 190.74,381.676 	"/>
	<polygon style="fill:#666666;" points="316.436,391.616 241.82,512 227.707,512 306.244,385.297 	"/>
</g>
<path style="fill:#F2F2F2;" d="M239.17,320.824c30.923,0,55.995,25.072,55.995,55.995s-25.072,55.983-55.995,55.983
	s-55.995-25.06-55.995-55.983S208.246,320.824,239.17,320.824z M262.791,376.82c0-13.022-10.6-23.621-23.621-23.621
	c-13.022,0-23.621,10.6-23.621,23.621c0,13.022,10.6,23.609,23.621,23.609C252.191,400.429,262.791,389.841,262.791,376.82z"/>
<g>
	<path style="fill:#F97C64;" d="M404.47,359.662c1.739,5.408,2.674,11.175,2.674,17.158c0,30.923-25.06,55.983-55.983,55.983
		s-55.995-25.06-55.995-55.983s25.072-55.995,55.995-55.995C376.1,320.824,397.228,337.132,404.47,359.662z M374.769,376.82
		c0-13.022-10.588-23.621-23.609-23.621c-13.022,0-23.621,10.6-23.621,23.621c0,13.022,10.6,23.609,23.621,23.609
		C364.182,400.429,374.769,389.841,374.769,376.82z"/>
	<path style="fill:#F97C64;" d="M127.191,320.824c30.923,0,55.983,25.072,55.983,55.995s-25.06,55.983-55.983,55.983
		c-29.904,0-54.341-23.441-55.911-52.962c-0.06-0.995-0.084-2.002-0.084-3.022C71.196,345.896,96.268,320.824,127.191,320.824z
		 M150.8,376.82c0-13.022-10.588-23.621-23.609-23.621s-23.621,10.6-23.621,23.621c0,13.022,10.6,23.609,23.621,23.609
		S150.8,389.841,150.8,376.82z"/>
</g>
<path style="fill:#C4783F;" d="M437.863,250.009c-8.048,8.048-4.632,30.881,0.408,50.704c5.14,20.217-3.577,41.404-21.577,51.945
	l-9.071,5.312c17.146-10.024,25.887-30.228,21.283-49.808l-15.036-64.017h1.799c12.211,0,22.536-8.119,25.857-19.258
	c1.083-3.629,5.221-5.339,8.495-3.436l22.948,13.33C457.12,231.544,453.151,234.721,437.863,250.009z"/>
<path style="fill:#F2F2F2;" d="M127.193,340.586c19.976,0,36.218,16.26,36.218,36.236s-16.242,36.218-36.218,36.218
	s-36.236-16.241-36.236-36.217S107.217,340.586,127.193,340.586z"/>
<path style="fill:#F97C64;" d="M239.178,340.586c19.976,0,36.218,16.26,36.218,36.236s-16.242,36.218-36.218,36.218
	s-36.237-16.242-36.237-36.218S219.202,340.586,239.178,340.586z"/>
<path style="fill:#F2F2F2;" d="M351.163,340.586c19.976,0,36.218,16.26,36.218,36.236s-16.242,36.218-36.218,36.218
	s-36.236-16.242-36.236-36.218S331.187,340.586,351.163,340.586z"/>
<g>
</g>
<g>
</g>
<g>
</g>
<g>
</g>
<g>
</g>
<g>
</g>
<g>
</g>
<g>
</g>
<g>
</g>
<g>
</g>
<g>
</g>
<g>
</g>
<g>
</g>
<g>
</g>
<g>
</g>
</svg>
