<?xml version="1.0" encoding="iso-8859-1"?>
<!-- Generator: Adobe Illustrator 19.0.0, SVG Export Plug-In . SVG Version: 6.00 Build 0)  -->
<svg version="1.1" id="Layer_1" xmlns="http://www.w3.org/2000/svg" xmlns:xlink="http://www.w3.org/1999/xlink" x="0px" y="0px"
	 viewBox="0 0 512 512" style="enable-background:new 0 0 512 512;" xml:space="preserve">
<path style="fill:#E6E6E6;" d="M194.053,75.327c-10.16,9.146-15.879,41.016-22.153,53.317c-2.692,5.283-7.217,0.171-22.701-2.768
	l-0.541-0.169h-10.611c-33.77,0-61.142-27.372-61.142-61.13V0c0,0.563,0.011,1.115,0.023,1.678c0,0.293,0.011,0.574,0.023,0.856
	c0.011,0.462,0.034,0.924,0.056,1.385c0.034,0.597,0.068,1.205,0.113,1.802c0.034,0.417,0.068,0.822,0.101,1.228
	c0.034,0.439,0.079,0.879,0.135,1.318c0,0.034,0,0.056,0.011,0.079c0.045,0.529,0.113,1.048,0.18,1.577
	c0.214,1.645,0.484,3.278,0.8,4.877c0.079,0.428,0.169,0.845,0.259,1.273c0.282,1.295,0.586,2.579,0.935,3.841
	c0.09,0.36,0.191,0.732,0.304,1.093c1.487,5.17,3.503,10.115,5.981,14.779c0.225,0.428,0.462,0.856,0.698,1.273
	c0.293,0.518,0.586,1.036,0.879,1.543c0.237,0.394,0.462,0.777,0.71,1.16c1.228,2.016,2.557,3.976,3.965,5.857
	c0.349,0.462,0.698,0.912,1.059,1.374C107.071,64.712,128.71,76.1,153.018,76.1h27.158L194.053,75.327z"/>
<path style="fill:#CCCCCC;" d="M156.025,109.352c17.001,0,21.132,12.909-6.826,16.524l-0.541-0.169h-10.611
	c-33.77,0-61.142-27.372-61.142-61.13V0c0,0.563,0.011,1.115,0.023,1.678c0,0.282,0.011,0.574,0.023,0.856
	c0.011,0.462,0.034,0.924,0.056,1.385c0.034,0.608,0.068,1.205,0.113,1.802c0.034,0.417,0.068,0.822,0.101,1.228
	c0.034,0.439,0.079,0.879,0.135,1.318c0,0.034,0,0.056,0.011,0.079c0.045,0.529,0.113,1.048,0.18,1.577
	c0.214,1.645,0.484,3.278,0.8,4.877c0.079,0.428,0.169,0.845,0.259,1.273c0.282,1.295,0.586,2.579,0.935,3.841
	c0.101,0.36,0.203,0.732,0.304,1.093c1.487,5.17,3.503,10.115,5.981,14.779c0.225,0.428,0.462,0.856,0.698,1.273
	c0.293,0.518,0.586,1.036,0.879,1.543c0.237,0.394,0.473,0.777,0.71,1.16c1.228,2.016,2.557,3.976,3.965,5.857
	c0.349,0.462,0.698,0.924,1.059,1.374c0.113,0.146,0.225,0.304,0.349,0.451v0.665c0,33.826,27.417,61.243,61.254,61.243H156.025z"/>
<path style="fill:#E6E6E6;" d="M435.094,0v64.577c0,26.55-16.919,49.145-40.573,57.582c-6.421,2.298-13.348,3.548-20.557,3.548
	h-10.622l-15.894,0.158l-1.701,0.011c-0.304-0.935-0.62-1.859-0.969-2.782c-6.668-17.899-21.267-33.725-35.077-46.16l22.123-0.834
	h27.169c4.517,0,8.932-0.394,13.224-1.138c0-0.011,0-0.011,0-0.011C407.948,68.7,435.094,37.521,435.094,0z"/>
<path style="fill:#CCCCCC;" d="M394.521,122.16c-6.421,2.298-13.348,3.548-20.557,3.548h-10.622l-15.894,0.158l-2.67-2.771
	c-6.668-17.899-21.267-33.725-35.077-46.16l22.123-0.834h27.169c4.517,0,8.932-0.394,13.224-1.138
	C371.914,75.751,358.757,111.019,394.521,122.16z"/>
<path style="fill:#D6977F;" d="M368.636,214.186c18.319,0,33.169,14.851,33.169,33.169s-14.851,33.169-33.169,33.169H143.368
	c-18.319,0-33.169-14.851-33.169-33.169s14.851-33.169,33.169-33.169"/>
<polyline style="fill:#F7BFA6;" points="368.636,333.46 368.636,199.232 154.632,199.232 154.632,333.46 "/>
<polyline style="fill:#D6977F;" points="165.893,333.46 165.893,205.898 143.368,205.898 143.368,333.46 "/>
<path style="fill:#EFBB6A;" d="M362.801,125.877c-6.128-19.048-17.212-35.865-31.731-48.943
	c-14.193-12.785-31.675-21.999-51.015-26.234h-48.109c-19.352,4.235-36.822,13.449-51.015,26.234
	c-14.519,13.078-25.603,29.895-31.731,48.943c-2.456,7.648-4.123,15.657-4.889,23.925l75.65,18.642l102.129-6.007l45.612-12.635
	C366.935,141.534,365.268,133.525,362.801,125.877z"/>
<rect x="240.219" y="192.099" style="fill:#D6977F;" width="10.531" height="82.499"/>
<path style="fill:#D89F55;" d="M231.945,50.7h8.493c-12.526,4.235-23.824,13.449-33.004,26.234
	c-9.406,13.078-16.57,29.895-20.535,48.943c-1.588,7.648-2.67,15.657-3.165,23.925H144.31c0.766-8.268,2.433-16.277,4.889-23.925
	c6.128-19.048,17.212-35.865,31.731-48.943C195.123,64.149,212.594,54.935,231.945,50.7z"/>
<path style="fill:#CCCCCC;" d="M376.944,149.802h-9.243h-87.646V50.7v-6.899c0-4.489-3.638-8.127-8.127-8.127h-31.855
	c-4.488,0-8.126,3.638-8.126,8.126v6.9v99.102h-87.635h-9.255c-1.664,0-3.013,1.348-3.013,3.013v50.07
	c0,1.664,1.348,3.012,3.012,3.012H375.72c2.34,0,4.236-1.897,4.236-4.236v-48.847C379.956,151.15,378.608,149.802,376.944,149.802z"
	/>
<g>
	<path style="fill:#B3B3B3;" d="M231.945,50.7v-6.899c0-4.489,3.638-8.127,8.127-8.127h9.175V50.7v99.102h-17.302V50.7z"/>
	<path style="fill:#B3B3B3;" d="M189.917,149.802h3.01v56.095h-57.871c-1.664,0-3.012-1.348-3.012-3.012v-50.07
		c0-1.664,1.348-3.012,3.012-3.012l0,0h21.521h11.815h21.525V149.802z"/>
</g>
<path style="fill:#D88948;" d="M307.097,260.802H204.906c-33.986,0-61.538,27.552-61.538,61.538v49.992
	c0,31.094,18.324,59.267,46.748,71.873l20.533,9.107c24.044,10.664,41.096,32.728,45.352,58.684l0,0l0,0
	c4.257-25.957,21.307-48.02,45.352-58.684l20.533-9.107c28.424-12.606,46.748-40.78,46.748-71.873V322.34
	C368.636,288.354,341.085,260.802,307.097,260.802z"/>
<path style="fill:#D6977F;" d="M316.789,251.792c-7.298,0-13.235-5.937-13.235-13.235c0-7.298,5.937-13.235,13.235-13.235
	s13.235,5.937,13.235,13.235C330.025,245.854,324.086,251.792,316.789,251.792z"/>
<circle style="fill:#67C1E8;" cx="316.793" cy="238.552" r="7.603"/>
<path style="fill:#D6977F;" d="M195.215,251.792c-7.298,0-13.235-5.937-13.235-13.235c0-7.298,5.937-13.235,13.235-13.235
	c7.298,0,13.235,5.937,13.235,13.235C208.451,245.854,202.513,251.792,195.215,251.792z"/>
<circle style="fill:#67C1E8;" cx="195.219" cy="238.552" r="7.603"/>
<path style="fill:#F7BFA6;" d="M284.317,308.647h-56.629c-14.65,0-26.527,11.877-26.527,26.527l0,0
	c0,13.973,10.806,25.414,24.515,26.444l0,0c0-10.476,8.492-18.968,18.968-18.968h22.719c10.476,0,18.968,8.492,18.968,18.968l0,0
	c13.71-1.03,24.515-12.471,24.515-26.444l0,0C310.844,320.523,298.967,308.647,284.317,308.647z"/>
<path style="fill:#D6977F;" d="M211.861,335.176c0,6.984,2.703,13.337,7.119,18.068c1.982,2.14,4.325,3.954,6.927,5.339
	c-0.158,0.991-0.237,1.994-0.237,3.03c-6.86-0.507-12.988-3.627-17.392-8.369c-4.416-4.731-7.119-11.084-7.119-18.068
	c0-14.655,11.872-26.527,26.527-26.527h10.701C223.734,308.649,211.861,320.521,211.861,335.176z"/>
<g>
	<path style="fill:#4D4D4D;" d="M195.712,238.556l-25.157-7.62l0,0c2.344-7.74,10.52-12.113,18.259-9.769l25.157,7.62l0,0
		C211.627,236.527,203.453,240.9,195.712,238.556z"/>
	<path style="fill:#4D4D4D;" d="M298.032,228.787L298.032,228.787l25.158-7.62c7.74-2.344,15.915,2.03,18.259,9.769l0,0
		l-25.158,7.62C308.551,240.9,300.376,236.527,298.032,228.787z"/>
</g>
<g>
	<circle style="fill:#666666;" cx="329.712" cy="177.849" r="8.448"/>
	<circle style="fill:#666666;" cx="300.234" cy="177.849" r="8.448"/>
	<path style="fill:#666666;" d="M359.195,186.298c4.663,0,8.459-3.785,8.459-8.448c0-4.663-3.796-8.448-8.459-8.448
		s-8.448,3.785-8.448,8.448C350.747,182.513,354.533,186.298,359.195,186.298z"/>
	<path style="fill:#666666;" d="M270.739,186.298c4.673,0,8.448-3.785,8.448-8.448c0-4.663-3.775-8.448-8.448-8.448
		c-4.664,0-8.437,3.785-8.437,8.448C262.302,182.513,266.075,186.298,270.739,186.298z"/>
	<path style="fill:#666666;" d="M152.804,169.401c-4.663,0-8.448,3.785-8.448,8.448c0,4.663,3.785,8.448,8.448,8.448
		c4.663,0,8.459-3.785,8.459-8.448C161.263,173.186,157.467,169.401,152.804,169.401z"/>
	<circle style="fill:#666666;" cx="241.266" cy="177.849" r="8.448"/>
	<circle style="fill:#666666;" cx="211.766" cy="177.849" r="8.448"/>
	<path style="fill:#666666;" d="M173.834,177.849c0,4.663,3.785,8.448,8.448,8.448s8.459-3.785,8.459-8.448
		c0-4.663-3.796-8.448-8.459-8.448S173.834,173.186,173.834,177.849z"/>
</g>
<path style="fill:#D6977F;" d="M272.335,332.9h-32.666c-3.111,0-5.632-2.522-5.632-5.632s2.521-5.632,5.632-5.632h32.666
	c3.111,0,5.632,2.522,5.632,5.632S275.446,332.9,272.335,332.9z"/>
<path style="fill:#C4783F;" d="M255.998,512c-4.258-25.964-21.3-48.019-45.349-58.686l-20.535-9.113
	c-28.419-12.605-46.746-40.776-46.746-71.865v-49.99c0-33.995,27.552-61.547,61.536-61.547h15.33
	c-23.79,0-43.074,27.552-43.074,61.547v49.99c0,31.089,12.83,59.261,32.722,71.865l14.373,9.113
	C241.084,463.981,253.025,486.036,255.998,512z"/>
<path style="fill:#EFBB6A;" d="M265.803,497.545H245.72c-3.421,0-6.195-2.773-6.195-6.195c0-3.422,2.774-6.195,6.195-6.195h20.083
	c3.421,0,6.195,2.773,6.195,6.195C271.998,494.771,269.224,497.545,265.803,497.545z"/>
<g>
</g>
<g>
</g>
<g>
</g>
<g>
</g>
<g>
</g>
<g>
</g>
<g>
</g>
<g>
</g>
<g>
</g>
<g>
</g>
<g>
</g>
<g>
</g>
<g>
</g>
<g>
</g>
<g>
</g>
</svg>
