<?xml version="1.0" encoding="iso-8859-1"?>
<!-- Generator: Adobe Illustrator 19.0.0, SVG Export Plug-In . SVG Version: 6.00 Build 0)  -->
<svg version="1.1" id="Layer_1" xmlns="http://www.w3.org/2000/svg" xmlns:xlink="http://www.w3.org/1999/xlink" x="0px" y="0px"
	 viewBox="0 0 512 512" style="enable-background:new 0 0 512 512;" xml:space="preserve">
<path style="fill:#D88948;" d="M389.988,115.044V27.846h-51.963c0,45.414-36.815,82.228-82.228,82.228s-82.228-36.815-82.228-82.228
	h-51.963v87.198c0,35.111-23.823,64.776-55.897,74.431c-6.701,2.017-11.364,8.076-11.364,15.074V496.79
	c0,8.401,6.81,15.21,15.211,15.21l372.485-0.013c8.401,0,15.21-6.81,15.21-15.21V204.548c0-6.997-4.663-13.056-11.364-15.074
	C413.811,179.82,389.988,150.155,389.988,115.044z"/>
<path style="fill:#C4783F;" d="M93.676,228.736c0-18.391,8.356-36.011,23.167-46.915c18.435-13.573,30.962-38.394,30.962-66.776
	v-87.2h-26.199v87.198c0,35.111-23.823,64.776-55.897,74.431c-6.701,2.017-11.364,8.076-11.364,15.074V496.79
	c0,8.401,6.81,15.21,15.211,15.21l24.121-0.001C93.676,511.999,93.676,228.736,93.676,228.736z"/>
<g>
	<path style="fill:#666666;" d="M364.063,57.395c-5.404,0-9.783-4.38-9.783-9.783V9.783c0-5.403,4.379-9.783,9.783-9.783
		s9.783,4.38,9.783,9.783v37.828C373.846,53.014,369.467,57.395,364.063,57.395z"/>
	<path style="fill:#666666;" d="M147.529,57.395c-5.403,0-9.783-4.38-9.783-9.783V9.783c0-5.403,4.38-9.783,9.783-9.783
		s9.783,4.38,9.783,9.783v37.828C157.312,53.014,152.932,57.395,147.529,57.395z"/>
	<path style="fill:#666666;" d="M455.278,237.405h-15.184c-5.404,0-9.783-4.38-9.783-9.783s4.379-9.783,9.783-9.783h15.184
		c5.404,0,9.783,4.38,9.783,9.783S460.683,237.405,455.278,237.405z"/>
	<path style="fill:#666666;" d="M455.278,287.234h-15.184c-5.404,0-9.783-4.38-9.783-9.783s4.379-9.783,9.783-9.783h15.184
		c5.404,0,9.783,4.38,9.783,9.783S460.683,287.234,455.278,287.234z"/>
	<path style="fill:#666666;" d="M455.278,337.064h-15.184c-5.404,0-9.783-4.38-9.783-9.783s4.379-9.783,9.783-9.783h15.184
		c5.404,0,9.783,4.38,9.783,9.783S460.683,337.064,455.278,337.064z"/>
	<path style="fill:#666666;" d="M455.278,386.893h-15.184c-5.404,0-9.783-4.38-9.783-9.783s4.379-9.783,9.783-9.783h15.184
		c5.404,0,9.783,4.38,9.783,9.783S460.683,386.893,455.278,386.893z"/>
	<path style="fill:#666666;" d="M455.278,436.722h-15.184c-5.404,0-9.783-4.38-9.783-9.783c0-5.403,4.379-9.783,9.783-9.783h15.184
		c5.404,0,9.783,4.38,9.783,9.783C465.062,432.341,460.683,436.722,455.278,436.722z"/>
	<path style="fill:#666666;" d="M455.278,486.551h-15.184c-5.404,0-9.783-4.38-9.783-9.783c0-5.403,4.379-9.783,9.783-9.783h15.184
		c5.404,0,9.783,4.38,9.783,9.783C465.062,482.17,460.683,486.551,455.278,486.551z"/>
	<path style="fill:#666666;" d="M70.747,237.405H56.722c-5.403,0-9.783-4.38-9.783-9.783s4.38-9.783,9.783-9.783h14.024
		c5.403,0,9.783,4.38,9.783,9.783S76.15,237.405,70.747,237.405z"/>
	<path style="fill:#666666;" d="M70.747,287.234H56.722c-5.403,0-9.783-4.38-9.783-9.783s4.38-9.783,9.783-9.783h14.024
		c5.403,0,9.783,4.38,9.783,9.783S76.15,287.234,70.747,287.234z"/>
	<path style="fill:#666666;" d="M70.747,337.064H56.722c-5.403,0-9.783-4.38-9.783-9.783s4.38-9.783,9.783-9.783h14.024
		c5.403,0,9.783,4.38,9.783,9.783S76.15,337.064,70.747,337.064z"/>
	<path style="fill:#666666;" d="M70.747,386.893H56.722c-5.403,0-9.783-4.38-9.783-9.783s4.38-9.783,9.783-9.783h14.024
		c5.403,0,9.783,4.38,9.783,9.783S76.15,386.893,70.747,386.893z"/>
	<path style="fill:#666666;" d="M70.747,436.722H56.722c-5.403,0-9.783-4.38-9.783-9.783c0-5.403,4.38-9.783,9.783-9.783h14.024
		c5.403,0,9.783,4.38,9.783,9.783C80.529,432.341,76.15,436.722,70.747,436.722z"/>
	<path style="fill:#666666;" d="M70.747,486.551H56.722c-5.403,0-9.783-4.38-9.783-9.783c0-5.403,4.38-9.783,9.783-9.783h14.024
		c5.403,0,9.783,4.38,9.783,9.783C80.529,482.17,76.15,486.551,70.747,486.551z"/>
</g>
<g>
	<path style="fill:#EFBB6A;" d="M220.471,168.55h-56.526c-10.325,0-18.694,8.369-18.694,18.694v89.788
		c0,10.324,8.369,18.694,18.694,18.694h56.526c10.325,0,18.694-8.369,18.694-18.694v-89.788
		C239.166,176.921,230.796,168.55,220.471,168.55z"/>
	<path style="fill:#EFBB6A;" d="M347.646,168.55h-56.525c-10.325,0-18.694,8.369-18.694,18.694v89.788
		c0,10.324,8.369,18.694,18.694,18.694h56.526c10.325,0,18.694-8.369,18.694-18.694v-89.788
		C366.341,176.921,357.971,168.55,347.646,168.55z"/>
	<path style="fill:#EFBB6A;" d="M368.139,328.987h-77.017c-10.325,0-18.694,8.369-18.694,18.694v89.786
		c0,10.325,8.369,18.694,18.694,18.694h77.018c10.325,0,18.694-8.369,18.694-18.694V347.68
		C386.834,337.357,378.463,328.987,368.139,328.987z"/>
	<path style="fill:#EFBB6A;" d="M220.471,328.987h-77.018c-10.325,0-18.694,8.369-18.694,18.694v89.786
		c0,10.325,8.369,18.694,18.694,18.694h77.018c10.325,0,18.694-8.369,18.694-18.694V347.68
		C239.166,337.357,230.796,328.987,220.471,328.987z"/>
</g>
<g>
	<path style="fill:#D89F55;" d="M154.761,437.468v-89.786c0-10.325,8.369-18.695,18.694-18.695h-30.002
		c-10.325,0-18.694,8.37-18.694,18.695v89.788c0,10.325,8.369,18.694,18.694,18.694h30.002
		C163.13,456.161,154.761,447.792,154.761,437.468z"/>
	<path style="fill:#D89F55;" d="M302.428,437.468v-89.786c0-10.325,8.369-18.695,18.694-18.695H291.12
		c-10.325,0-18.694,8.37-18.694,18.695v89.788c0,10.325,8.369,18.694,18.694,18.694h30.002
		C310.799,456.161,302.428,447.792,302.428,437.468z"/>
	<path style="fill:#D89F55;" d="M175.253,277.033v-89.788c0-10.325,8.369-18.695,18.694-18.695h-30.002
		c-10.325,0-18.694,8.37-18.694,18.695v89.788c0,10.324,8.369,18.694,18.694,18.694h30.002
		C183.623,295.726,175.253,287.356,175.253,277.033z"/>
	<path style="fill:#D89F55;" d="M302.428,277.033v-89.788c0-10.325,8.369-18.695,18.694-18.695H291.12
		c-10.325,0-18.694,8.37-18.694,18.695v89.788c0,10.324,8.369,18.694,18.694,18.694h30.002
		C310.799,295.726,302.428,287.356,302.428,277.033z"/>
</g>
<g>
</g>
<g>
</g>
<g>
</g>
<g>
</g>
<g>
</g>
<g>
</g>
<g>
</g>
<g>
</g>
<g>
</g>
<g>
</g>
<g>
</g>
<g>
</g>
<g>
</g>
<g>
</g>
<g>
</g>
</svg>
