<?xml version="1.0" encoding="iso-8859-1"?>
<!-- Generator: Adobe Illustrator 19.0.0, SVG Export Plug-In . SVG Version: 6.00 Build 0)  -->
<svg version="1.1" id="Layer_1" xmlns="http://www.w3.org/2000/svg" xmlns:xlink="http://www.w3.org/1999/xlink" x="0px" y="0px"
	 viewBox="0 0 512 512" style="enable-background:new 0 0 512 512;" xml:space="preserve">
<path style="fill:#C4783F;" d="M457.526,400.871l-14.227,72.76c-1.649,6.971-3.379,13.923-5.191,20.859
	C435.414,504.797,426.122,512,415.469,512H96.533c-10.65,0-19.943-7.201-22.638-17.504c-1.814-6.937-3.548-13.891-5.197-20.864
	l-14.214-72.76c-14.851-95.901-14.851-193.842,0-289.743l14.214-72.76c1.65-6.973,3.383-13.927,5.197-20.864
	C76.591,7.201,85.883,0,96.533,0h318.935c10.652,0,19.945,7.203,22.639,17.509c1.813,6.936,3.542,13.887,5.191,20.859l14.227,72.76
	C472.363,207.03,472.363,304.97,457.526,400.871z"/>
<path style="fill:#D88948;" d="M457.526,400.871l-14.227,72.76c-1.649,6.971-3.379,13.923-5.191,20.859
	C435.414,504.797,426.122,512,415.469,512H156.973c-3.261-12.733-6.302-25.518-9.069-38.368l-12.967-72.76
	c-13.552-95.901-13.552-193.842,0-289.743l12.967-72.76c2.768-12.85,5.808-25.635,9.069-38.368h258.496
	c10.652,0,19.945,7.203,22.639,17.509c1.813,6.936,3.542,13.887,5.191,20.859l14.227,72.76
	C472.363,207.03,472.363,304.97,457.526,400.871z"/>
<g>
	<path style="fill:#AF622E;" d="M129.895,510.233l0.377,1.767h-17.268c-2.638-12.408-5.054-24.791-7.224-36.874
		c-0.013-0.091-0.026-0.169-0.039-0.26l-10.771-72.76c-0.013-0.078-0.026-0.169-0.026-0.247
		c-11.356-96.784-11.356-194.933,0-291.718c0-0.078,0.013-0.169,0.026-0.247l10.771-72.76c0.013-0.091,0.026-0.169,0.039-0.26
		c2.17-12.083,4.587-24.466,7.224-36.874h17.268l-0.377,1.767c-2.729,12.759-5.236,25.531-7.458,37.965l-10.732,72.501
		c-11.187,95.407-11.187,192.127,0,287.534l10.732,72.501C124.659,484.702,127.167,497.474,129.895,510.233z"/>
	<path style="fill:#AF622E;" d="M417.065,401.859c0,0.078-0.013,0.169-0.026,0.247l-10.784,72.76
		c-0.013,0.091-0.026,0.169-0.039,0.26c-2.222,12.356-4.651,24.752-7.224,36.874h-17.268l0.377-1.767
		c2.664-12.46,5.184-25.232,7.471-37.965l10.732-72.514c11.174-95.394,11.174-192.114,0-287.508l-10.732-72.514
		c-2.287-12.733-4.807-25.505-7.471-37.965L381.725,0h17.268c2.573,12.122,5.002,24.505,7.224,36.874
		c0.013,0.091,0.026,0.169,0.039,0.26l10.784,72.76c0.013,0.078,0.026,0.169,0.026,0.247
		C428.408,206.926,428.408,305.074,417.065,401.859z"/>
	<path style="fill:#AF622E;" d="M217.819,511.376l0.052,0.624h-16.93c-0.935-12.629-1.806-25.362-2.586-37.848l-3.742-72.851
		c-3.924-96.447-3.924-194.154,0-290.509l3.742-72.851c0.78-12.577,1.65-25.31,2.586-37.939h16.93l-0.052,0.624
		c-0.935,12.772-1.819,25.648-2.599,38.264l-3.729,72.67c-3.898,95.81-3.898,193.075,0,288.976l3.729,72.67
		C216,485.728,216.883,498.604,217.819,511.376z"/>
	<path style="fill:#AF622E;" d="M317.384,401.209l-3.742,72.851c-0.793,12.785-1.663,25.505-2.573,37.939h-16.943l0.052-0.624
		c0.936-12.564,1.806-25.44,2.612-38.264l3.729-72.67c3.898-95.81,3.898-193.075-0.013-288.976l-3.729-72.67
		c-0.793-12.733-1.663-25.609-2.599-38.173L294.126,0h16.943c0.91,12.434,1.78,25.154,2.573,37.848l3.742,72.851
		C321.307,207.147,321.307,304.854,317.384,401.209z"/>
</g>
<g>
	<path style="fill:#B3B3B3;" d="M455.254,111.129H56.743c-7.293,0-12.746-6.699-11.267-13.84L55.78,47.541
		c1.107-5.341,5.812-9.173,11.267-9.173h377.901c5.456,0,10.16,3.83,11.267,9.173l10.305,49.747
		C468,104.43,462.547,111.129,455.254,111.129z"/>
	<path style="fill:#B3B3B3;" d="M464.709,423.456l-7.293,35.21c-1.806,8.717-9.484,14.967-18.385,14.967H67.047
		c-5.456,0-10.16-3.83-11.267-9.173l-10.305-49.747c-1.48-7.142,3.973-13.84,11.267-13.84h389.582
		C458.226,400.871,467.123,411.802,464.709,423.456z"/>
</g>
<g>
	<path style="fill:#CCCCCC;" d="M457.939,111.129H127.063l15.072-72.76h305.567c3.852,0,7.175,2.705,7.956,6.477l11.408,55.072
		C468.264,105.703,463.847,111.129,457.939,111.129z"/>
	<path style="fill:#CCCCCC;" d="M466.521,414.711l-10.305,49.747c-1.107,5.341-5.812,9.173-11.267,9.173H142.135l-15.072-72.76
		h328.191C462.547,400.871,468,407.571,466.521,414.711z"/>
</g>
<g>
	<polygon style="fill:#E6E6E6;" points="363.184,400.871 356.22,473.632 319.839,473.632 326.803,400.871 	"/>
	<polygon style="fill:#E6E6E6;" points="319.839,38.368 326.803,111.129 363.184,111.129 356.22,38.368 	"/>
</g>
<circle style="fill:#AF622E;" cx="256" cy="353.109" r="30.578"/>
<g>
	<path style="fill:#666666;" d="M256.005,65.004c-5.392,0-9.745,4.366-9.745,9.745c0,5.379,4.353,9.745,9.745,9.745
		c5.379,0,9.745-4.366,9.745-9.745C265.75,69.369,261.383,65.004,256.005,65.004z"/>
	<path style="fill:#666666;" d="M220.274,65.004c-5.392,0-9.745,4.366-9.745,9.745c0,5.379,4.353,9.745,9.745,9.745
		c5.379,0,9.745-4.366,9.745-9.745C230.019,69.369,225.652,65.004,220.274,65.004z"/>
	<path style="fill:#666666;" d="M327.466,65.004c-5.392,0-9.745,4.366-9.745,9.745c0,5.379,4.353,9.745,9.745,9.745
		c5.379,0,9.745-4.366,9.745-9.745C337.211,69.369,332.844,65.004,327.466,65.004z"/>
	<path style="fill:#666666;" d="M291.736,65.004c-5.392,0-9.758,4.366-9.758,9.745c0,5.379,4.364,9.745,9.758,9.745
		c5.379,0,9.745-4.366,9.745-9.745C301.48,69.369,297.113,65.004,291.736,65.004z"/>
	<path style="fill:#666666;" d="M113.083,65.004c-5.392,0-9.745,4.366-9.745,9.745c0,5.379,4.353,9.745,9.745,9.745
		c5.379,0,9.745-4.366,9.745-9.745C122.827,69.369,118.46,65.004,113.083,65.004z"/>
	<path style="fill:#666666;" d="M184.544,65.004c-5.392,0-9.745,4.366-9.745,9.745c0,5.379,4.353,9.745,9.745,9.745
		c5.379,0,9.745-4.366,9.745-9.745C194.288,69.369,189.922,65.004,184.544,65.004z"/>
	<path style="fill:#666666;" d="M148.813,65.004c-5.392,0-9.745,4.366-9.745,9.745c0,5.379,4.353,9.745,9.745,9.745
		c5.379,0,9.745-4.366,9.745-9.745C158.558,69.369,154.191,65.004,148.813,65.004z"/>
	<path style="fill:#666666;" d="M398.927,65.004c-5.392,0-9.745,4.366-9.745,9.745c0,5.379,4.353,9.745,9.745,9.745
		c5.379,0,9.745-4.366,9.745-9.745C408.672,69.369,404.305,65.004,398.927,65.004z"/>
	<path style="fill:#666666;" d="M363.197,65.004c-5.392,0-9.745,4.366-9.745,9.745c0,5.379,4.353,9.745,9.745,9.745
		c5.379,0,9.745-4.366,9.745-9.745C372.941,69.369,368.575,65.004,363.197,65.004z"/>
	<path style="fill:#666666;" d="M220.274,427.507c-5.392,0-9.745,4.366-9.745,9.745s4.353,9.745,9.745,9.745
		c5.379,0,9.745-4.366,9.745-9.745S225.652,427.507,220.274,427.507z"/>
	<path style="fill:#666666;" d="M184.544,427.507c-5.392,0-9.745,4.366-9.745,9.745s4.353,9.745,9.745,9.745
		c5.379,0,9.745-4.366,9.745-9.745S189.922,427.507,184.544,427.507z"/>
	<path style="fill:#666666;" d="M398.927,427.507c-5.392,0-9.745,4.366-9.745,9.745s4.353,9.745,9.745,9.745
		c5.379,0,9.745-4.366,9.745-9.745S404.305,427.507,398.927,427.507z"/>
	<path style="fill:#666666;" d="M113.083,427.507c-5.392,0-9.745,4.366-9.745,9.745s4.353,9.745,9.745,9.745
		c5.379,0,9.745-4.366,9.745-9.745S118.46,427.507,113.083,427.507z"/>
	<path style="fill:#666666;" d="M148.813,427.507c-5.392,0-9.745,4.366-9.745,9.745s4.353,9.745,9.745,9.745
		c5.379,0,9.745-4.366,9.745-9.745S154.191,427.507,148.813,427.507z"/>
	<path style="fill:#666666;" d="M256.005,427.507c-5.392,0-9.745,4.366-9.745,9.745s4.353,9.745,9.745,9.745
		c5.379,0,9.745-4.366,9.745-9.745S261.383,427.507,256.005,427.507z"/>
	<path style="fill:#666666;" d="M327.466,427.507c-5.392,0-9.745,4.366-9.745,9.745s4.353,9.745,9.745,9.745
		c5.379,0,9.745-4.366,9.745-9.745S332.844,427.507,327.466,427.507z"/>
	<path style="fill:#666666;" d="M291.736,427.507c-5.392,0-9.758,4.366-9.758,9.745s4.364,9.745,9.758,9.745
		c5.379,0,9.745-4.366,9.745-9.745S297.113,427.507,291.736,427.507z"/>
	<path style="fill:#666666;" d="M363.197,427.507c-5.392,0-9.745,4.366-9.745,9.745s4.353,9.745,9.745,9.745
		c5.379,0,9.745-4.366,9.745-9.745S368.575,427.507,363.197,427.507z"/>
	<path style="fill:#666666;" d="M77.352,65.004c-5.392,0-9.745,4.366-9.745,9.745c0,5.379,4.353,9.745,9.745,9.745
		c5.379,0,9.745-4.366,9.745-9.745C87.097,69.369,82.73,65.004,77.352,65.004z"/>
	<path style="fill:#666666;" d="M434.658,65.004c-5.392,0-9.745,4.366-9.745,9.745c0,5.379,4.353,9.745,9.745,9.745
		c5.379,0,9.745-4.366,9.745-9.745C444.403,69.369,440.036,65.004,434.658,65.004z"/>
	<path style="fill:#666666;" d="M77.352,427.507c-5.392,0-9.745,4.366-9.745,9.745s4.353,9.745,9.745,9.745
		c5.379,0,9.745-4.366,9.745-9.745S82.73,427.507,77.352,427.507z"/>
	<path style="fill:#666666;" d="M434.658,427.507c-5.392,0-9.745,4.366-9.745,9.745s4.353,9.745,9.745,9.745
		c5.379,0,9.745-4.366,9.745-9.745S440.036,427.507,434.658,427.507z"/>
</g>
<g>
</g>
<g>
</g>
<g>
</g>
<g>
</g>
<g>
</g>
<g>
</g>
<g>
</g>
<g>
</g>
<g>
</g>
<g>
</g>
<g>
</g>
<g>
</g>
<g>
</g>
<g>
</g>
<g>
</g>
</svg>
