<?xml version="1.0" encoding="iso-8859-1"?>
<!-- Generator: Adobe Illustrator 19.0.0, SVG Export Plug-In . SVG Version: 6.00 Build 0)  -->
<svg version="1.1" id="Layer_1" xmlns="http://www.w3.org/2000/svg" xmlns:xlink="http://www.w3.org/1999/xlink" x="0px" y="0px"
	 viewBox="0 0 511.996 511.996" style="enable-background:new 0 0 511.996 511.996;" xml:space="preserve">
<path style="fill:#EFBB6A;" d="M494.137,186.721v170.526c0,35.183-28.516,63.699-63.686,63.699H319.474l-9.488-54.4h120.465
	c5.124,0,9.286-4.175,9.286-9.299V186.721c0-5.124-4.162-9.286-9.286-9.286H288.086l-16.054-54.4h158.419
	C465.621,123.035,494.137,151.551,494.137,186.721z"/>
<g>
	<polygon style="fill:#D19B54;" points="378.808,177.435 288.086,177.435 272.032,123.035 375.86,123.035 376.797,140.202 	"/>
	<polygon style="fill:#D19B54;" points="392.079,420.946 319.474,420.946 309.985,366.546 389.106,366.546 389.208,368.482 
		391.725,414.469 	"/>
</g>
<path style="fill:#F2F2F2;" d="M355.898,94.638c8.908-6.913,14.64-17.721,14.64-29.868c0-20.868-16.916-37.784-37.784-37.784
	c-0.817,0-1.626,0.035-2.43,0.086c-5.584-13.891-19.173-23.702-35.062-23.702c-12.494,0-23.569,6.069-30.448,15.416
	c-6.601-3.316-14.049-5.193-21.94-5.193c-10.392,0-20.019,3.246-27.945,8.767C209.028,9.184,195.81,0,180.44,0
	c-10.403,0-19.822,4.205-26.655,11.007c-6.633-3.356-14.126-5.259-22.069-5.259c-17.799,0-33.378,9.5-41.949,23.703
	c-3.322-0.955-6.827-1.478-10.455-1.478c-20.868,0-37.784,16.917-37.784,37.784c0,10.433,4.229,19.88,11.067,26.718"/>
<g>
	<path style="fill:#CCCCCC;" d="M270.173,31.636c7.926-5.521,17.554-8.767,27.945-8.767c7.891,0,15.338,1.877,21.94,5.193
		c2.001-2.72,4.367-5.152,7.011-7.247c-6.714-10.482-18.435-17.446-31.808-17.446c-12.494,0-23.569,6.069-30.448,15.416
		c-2.64-1.326-5.422-2.41-8.308-3.248C262.457,19.478,267.228,25.058,270.173,31.636z"/>
	<path style="fill:#CCCCCC;" d="M96.771,75.037c0-20.868,16.917-37.784,37.784-37.784c3.628,0,7.134,0.522,10.455,1.478
		c8.571-14.204,24.15-23.703,41.949-23.703c7.942,0,15.436,1.903,22.069,5.259c1.018-1.013,2.1-1.962,3.229-2.855
		C205.543,6.952,193.809,0,180.44,0c-10.403,0-19.822,4.205-26.655,11.007c-6.633-3.356-14.126-5.259-22.069-5.259
		c-17.799,0-33.378,9.5-41.949,23.703c-3.322-0.955-6.827-1.478-10.455-1.478c-20.868,0-37.784,16.917-37.784,37.784
		c0,10.433,4.229,19.88,11.067,26.718l48.623,0.347C98.383,87.521,96.771,81.468,96.771,75.037z"/>
</g>
<polygon style="fill:#D88948;" points="373.786,456.977 32.278,456.977 34.58,414.469 37.085,368.482 47.004,186.202 
	49.509,140.202 52.166,91.47 353.898,91.47 356.555,140.202 359.047,186.202 368.966,368.482 371.483,414.469 "/>
<polygon style="fill:#C4783F;" points="113.371,368.482 118.731,186.196 120.081,140.205 121.517,91.467 52.166,91.467 
	49.509,140.205 47.009,186.196 37.09,368.482 34.579,414.473 32.271,456.973 110.769,456.973 112.015,414.473 "/>
<polygon style="fill:#D88948;" points="104.466,91.47 90.474,456.977 90.17,464.859 75.001,464.264 75.279,456.977 89.272,91.47 "/>
<g>
	<polygon style="fill:#C4783F;" points="331.05,464.264 315.881,464.859 315.577,456.977 301.585,91.47 316.779,91.47 
		330.771,456.977 	"/>
	<polygon style="fill:#C4783F;" points="164.243,91.47 158.12,456.977 157.993,464.694 142.812,464.441 142.938,456.977 
		149.061,91.47 	"/>
	<polygon style="fill:#C4783F;" points="263.252,464.441 248.07,464.694 247.944,456.977 241.82,91.47 257.002,91.47 
		263.125,456.977 	"/>
</g>
<g>
	<polygon style="fill:#EFBB6A;" points="363.911,140.202 42.147,140.202 39.895,186.195 366.163,186.195 	"/>
	<polygon style="fill:#EFBB6A;" points="375.387,368.479 30.671,368.479 28.479,414.471 377.58,414.471 	"/>
</g>
<g>
	<polygon style="fill:#D19B54;" points="30.671,368.479 28.479,414.471 102.81,414.471 105.002,368.479 	"/>
	<polygon style="fill:#D19B54;" points="42.147,140.202 39.895,186.195 105.874,186.195 108.126,140.202 	"/>
</g>
<rect x="17.859" y="454.446" style="fill:#EFBB6A;" width="370.353" height="57.551"/>
<rect x="17.859" y="454.446" style="fill:#D19B54;" width="104.889" height="57.551"/>
<g>
</g>
<g>
</g>
<g>
</g>
<g>
</g>
<g>
</g>
<g>
</g>
<g>
</g>
<g>
</g>
<g>
</g>
<g>
</g>
<g>
</g>
<g>
</g>
<g>
</g>
<g>
</g>
<g>
</g>
</svg>
