<?xml version="1.0" encoding="iso-8859-1"?>
<!-- Generator: Adobe Illustrator 19.0.0, SVG Export Plug-In . SVG Version: 6.00 Build 0)  -->
<svg version="1.1" id="Layer_1" xmlns="http://www.w3.org/2000/svg" xmlns:xlink="http://www.w3.org/1999/xlink" x="0px" y="0px"
	 viewBox="0 0 512 512" style="enable-background:new 0 0 512 512;" xml:space="preserve">
<polygon style="fill:#EFBB6A;" points="166.624,383.427 166.624,507.142 131.155,476.497 122.832,406.127 131.155,352.782 "/>
<polygon style="fill:#D89F55;" points="105.05,352.782 114.698,404.046 105.05,476.497 69.581,507.142 69.581,383.427 "/>
<polygon style="fill:#D88948;" points="131.155,352.782 131.155,476.497 105.05,476.497 105.05,352.782 105.05,96.271 
	131.155,96.271 "/>
<g>
	<polygon style="fill:#C4783F;" points="116.778,352.782 116.778,476.497 105.05,476.497 105.05,352.782 105.05,96.271 
		116.778,96.271 	"/>
	<path style="fill:#C4783F;" d="M255.188,450.369c-2.576,2.781-4.143,6.515-4.143,10.578c0,8.603,6.969,15.572,15.572,15.572h13.995
		c4.903,0,9.341,1.986,12.553,5.198c3.201,3.212,5.187,7.65,5.187,12.542c0,9.806-7.934,17.74-17.74,17.74h-13.177
		c-26.366,0-48.998-19.692-51.62-45.922c-2.872-28.761,18.796-53.924,46.966-56.035c38.738-2.894,74.706-20.214,101.299-48.748
		c16.809-18.035,28.863-39.509,35.492-62.732l21.383-17.286l5.357,6.072l9.909,11.214
		c-18.285,79.893-86.953,140.593-170.784,146.869C261.374,445.738,257.776,447.577,255.188,450.369z"/>
	<path style="fill:#C4783F;" d="M436.221,213.437L423.373,227.5l-6.958,7.616l-16.843-21.679
		c-6.628-23.211-18.682-44.696-35.492-62.732c-26.593-28.534-62.561-45.843-101.299-48.748
		c-28.171-2.111-49.838-27.274-46.966-56.035C218.437,19.692,241.069,0,267.435,0h13.177c4.903,0,9.341,1.986,12.553,5.198
		c3.201,3.212,5.187,7.65,5.187,12.542c0,9.795-7.934,17.74-17.74,17.74h-13.995c-4.302,0-8.195,1.748-11.01,4.563
		c-2.826,2.815-4.563,6.708-4.563,11.01c0,8.138,6.265,14.914,14.392,15.515C349.269,72.845,417.937,133.544,436.221,213.437z"/>
</g>
<g>
	<path style="fill:#D88948;" d="M255.188,450.369c-2.576,2.781-4.143,6.515-4.143,10.578c0,8.603,6.969,15.572,15.572,15.572h13.995
		c4.903,0,9.341,1.986,12.553,5.198c3.201,3.212,5.187,7.65,5.187,12.542c0,9.806-7.934,17.74-17.74,17.74h-0.318
		c-26.366,0-48.998-19.692-51.62-45.922c-2.872-28.761,18.796-53.924,46.966-56.035c38.738-2.894,74.706-20.214,101.299-48.748
		c16.809-18.035,28.863-39.509,35.492-62.732l13.881-11.214l9.909,11.214c-18.285,79.893-86.953,140.593-170.784,146.869
		C261.374,445.738,257.776,447.577,255.188,450.369z"/>
	<path style="fill:#D88948;" d="M436.221,213.437L423.373,227.5l-10.941-14.063c-6.628-23.211-18.682-44.696-35.492-62.732
		c-26.593-28.534-62.561-45.843-101.299-48.748c-28.171-2.111-49.838-27.274-46.966-56.035C231.297,19.692,253.929,0,280.295,0
		h0.318c4.903,0,9.341,1.986,12.553,5.198c3.201,3.212,5.187,7.65,5.187,12.542c0,9.795-7.934,17.74-17.74,17.74h-13.995
		c-4.302,0-8.195,1.748-11.01,4.563c-2.826,2.815-4.563,6.708-4.563,11.01c0,8.138,6.265,14.914,14.392,15.515
		C349.269,72.845,417.937,133.544,436.221,213.437z"/>
</g>
<polygon style="fill:#EFBB6A;" points="445.302,213.437 445.302,298.563 436.221,298.563 399.572,298.563 391.832,298.563 
	391.832,213.437 399.572,213.437 436.221,213.437 "/>
<polygon style="fill:#D89F55;" points="409.231,213.437 409.231,298.563 406.277,298.563 394.35,298.563 391.832,298.563 
	391.832,213.437 394.35,213.437 406.277,213.437 "/>
<path style="fill:#EFBB6A;" d="M268.788,461.081c-3.447,0-6.243-2.794-6.243-6.243V57.166c0-3.448,2.796-6.243,6.243-6.243
	c3.447,0,6.243,2.794,6.243,6.243v397.672C275.031,458.286,272.235,461.081,268.788,461.081z"/>
<polygon style="fill:#CCCCCC;" points="118.103,11.146 169.507,107.621 131.155,107.621 105.05,107.621 66.698,107.621 "/>
<polygon style="fill:#999999;" points="118.103,11.146 118.103,107.621 105.05,107.621 66.698,107.621 "/>
<path style="fill:#666666;" d="M418.572,247.487c-4.699,0-8.513,3.802-8.513,8.513c0,4.699,3.814,8.513,8.513,8.513
	c4.699,0,8.513-3.814,8.513-8.513C427.085,251.29,423.271,247.487,418.572,247.487z"/>
<g>
</g>
<g>
</g>
<g>
</g>
<g>
</g>
<g>
</g>
<g>
</g>
<g>
</g>
<g>
</g>
<g>
</g>
<g>
</g>
<g>
</g>
<g>
</g>
<g>
</g>
<g>
</g>
<g>
</g>
</svg>
