<?xml version="1.0" encoding="iso-8859-1"?>
<!-- Generator: Adobe Illustrator 19.0.0, SVG Export Plug-In . SVG Version: 6.00 Build 0)  -->
<svg version="1.1" id="Layer_1" xmlns="http://www.w3.org/2000/svg" xmlns:xlink="http://www.w3.org/1999/xlink" x="0px" y="0px"
	 viewBox="0 0 512 512" style="enable-background:new 0 0 512 512;" xml:space="preserve">
<path style="fill:#E6E6E6;" d="M172.853,386.561l-56.808,56.796c15.165,15.931,14.943,41.112-0.692,56.746
	c-15.869,15.857-41.606,15.869-57.475,0c-9.398-9.398-13.226-22.266-11.497-34.492c-12.214,1.741-25.082-2.087-34.48-11.485
	c-15.869-15.869-15.857-41.606,0-57.475c15.635-15.635,40.815-15.857,56.746-0.704l56.796-56.796
	c38.032-38.032,54.968-23.798,63.082-15.684C196.638,331.58,212.236,347.178,172.853,386.561z"/>
<path style="fill:#D88948;" d="M416.758,95.233c67.058,67.058,38.148,204.682,76.642,166.201
	C383.117,371.716,249.186,421.646,172.853,386.561c-10.51-4.829-19.932-11.263-28.046-19.377
	c-8.114-8.114-14.548-17.524-19.364-28.034c-35.085-76.333,14.844-210.264,125.126-320.546
	C212.075,57.085,349.711,28.187,416.758,95.233z"/>
<path style="fill:#C4783F;" d="M221.016,386.561c-10.51-4.829-19.932-11.263-28.046-19.377
	c-8.114-8.114-14.548-17.524-19.364-28.034c-27.325-59.45-3.076-153.837,61.081-244.779c40.823-40.823-1.666-58.225,15.882-75.767
	C140.287,128.886,90.357,262.818,125.443,339.15c4.816,10.51,11.25,19.92,19.364,28.034c8.114,8.114,17.536,14.548,28.046,19.377
	c22.607,10.391,50.267,13.323,80.866,9.441C241.959,394.266,230.991,391.146,221.016,386.561z"/>
<path style="fill:#CCCCCC;" d="M81.342,488.989c-9.398-9.398-13.226-22.266-11.497-34.492c-12.214,1.741-25.082-2.087-34.48-11.485
	c-15.869-15.869-15.857-41.606,0-57.475c0.173-0.173,0.353-0.333,0.527-0.503c-8.767,1.023-17.264,4.888-23.992,11.617
	c-15.857,15.869-15.869,41.606,0,57.475c9.398,9.398,22.266,13.226,34.48,11.485c-1.729,12.226,2.099,25.094,11.497,34.492
	c15.699,15.699,41.05,15.845,56.955,0.493C102.911,501.994,90.488,498.134,81.342,488.989z"/>
<g>
	<circle style="fill:#AF622E;" cx="279.966" cy="353.557" r="9.262"/>
	<circle style="fill:#AF622E;" cx="242.831" cy="365.006" r="9.262"/>
	<circle style="fill:#AF622E;" cx="208.252" cy="187.999" r="9.262"/>
	<circle style="fill:#AF622E;" cx="169.56" cy="187.171" r="9.262"/>
	<circle style="fill:#AF622E;" cx="192.605" cy="154.247" r="9.262"/>
</g>
<path style="fill:#EFBB6A;" d="M441.667,70.324c67.058,67.058,90.214,152.616,51.733,191.11
	c-38.494,38.481-124.052,15.326-191.11-51.733c-67.046-67.046-90.214-152.616-51.72-191.098
	C289.05-19.89,374.608,3.278,441.667,70.324z"/>
<path style="fill:#F97C64;" d="M473.109,185.793c6.15,22.723,4.421,41.692-4.619,50.732c-9.04,9.04-28.009,10.769-50.732,4.619
	c-29.812-8.064-62.81-28.602-90.56-56.351c-27.737-27.737-48.275-60.748-56.351-90.56c-6.15-22.711-4.421-41.68,4.631-50.72
	c9.04-9.052,28.009-10.781,50.72-4.619c29.812,8.064,62.822,28.602,90.56,56.339C444.507,122.983,465.044,155.981,473.109,185.793z"
	/>
<path style="fill:#E6E6E6;" d="M349.973,105.17c-3.673-2.443-8.557-1.952-11.677,1.165c-3.117,3.118-3.605,8.003-1.163,11.677
	c7.26,10.924,15.895,21.417,25.664,31.184c9.77,9.77,20.262,18.405,31.185,25.666c1.566,1.04,3.35,1.549,5.124,1.549
	c2.392,0,4.762-0.923,6.553-2.712c3.118-3.118,3.606-8.004,1.165-11.677c-7.259-10.922-15.894-21.414-25.666-31.186
	C371.385,121.061,360.893,112.426,349.973,105.17z"/>
<g>
</g>
<g>
</g>
<g>
</g>
<g>
</g>
<g>
</g>
<g>
</g>
<g>
</g>
<g>
</g>
<g>
</g>
<g>
</g>
<g>
</g>
<g>
</g>
<g>
</g>
<g>
</g>
<g>
</g>
</svg>
