<?xml version="1.0" encoding="iso-8859-1"?>
<!-- Generator: Adobe Illustrator 19.0.0, SVG Export Plug-In . SVG Version: 6.00 Build 0)  -->
<svg version="1.1" id="Layer_1" xmlns="http://www.w3.org/2000/svg" xmlns:xlink="http://www.w3.org/1999/xlink" x="0px" y="0px"
	 viewBox="0 0 512 512" style="enable-background:new 0 0 512 512;" xml:space="preserve">
<g>
	<polygon style="fill:#D88948;" points="413.158,260.995 413.158,471.376 334.572,471.376 177.415,471.376 98.83,471.376 
		98.83,260.995 	"/>
	<polygon style="fill:#D88948;" points="432.217,257.076 79.771,257.076 256.001,80.861 275.895,100.755 	"/>
</g>
<g>
	<rect x="390.691" y="257.333" style="fill:#AF622E;" width="44.062" height="199.34"/>
	<polygon style="fill:#AF622E;" points="456.018,280.376 55.982,280.376 105.273,236.314 406.727,236.314 406.821,236.408 	"/>
	<polygon style="fill:#AF622E;" points="188.649,311.841 188.649,456.673 220.114,456.673 291.875,456.673 323.339,456.673 
		323.339,311.841 	"/>
</g>
<polygon style="fill:#C4783F;" points="141.182,280.376 141.182,456.673 77.235,456.673 77.235,280.388 77.235,280.376 
	77.252,280.376 "/>
<rect x="77.235" y="263.182" style="fill:#AF622E;" width="44.063" height="193.491"/>
<polygon style="fill:#A35A29;" points="105.273,236.314 137.334,236.314 93.272,280.376 55.982,280.376 "/>
<rect x="220.114" y="343.318" style="fill:#4D4D4D;" width="71.761" height="113.355"/>
<polygon style="fill:#AF622E;" points="298.717,82.019 287.161,70.463 326.474,31.149 295.314,0 256,39.314 216.686,0 
	185.537,31.149 224.851,70.463 18.797,276.516 49.958,307.666 77.247,280.376 121.309,236.314 256,101.623 267.557,113.18 
	390.702,236.314 434.753,280.376 434.765,280.376 434.765,280.388 462.054,307.666 493.203,276.505 "/>
<polygon style="fill:#C4783F;" points="271.206,116.829 151.71,236.314 121.298,236.314 256,101.623 "/>
<rect x="255.317" y="83.648" transform="matrix(-0.7071 0.7071 -0.7071 -0.7071 538.3939 -39.3705)" style="fill:#A35A29;" width="44.068" height="16.343"/>
<polygon style="fill:#CCCCCC;" points="446.392,450.486 446.392,512 65.597,512 65.597,450.486 77.235,450.486 121.298,450.486 
	188.649,450.486 220.114,450.486 291.875,450.486 323.339,450.486 390.691,450.486 434.753,450.486 "/>
<polygon style="fill:#B3B3B3;" points="92.242,450.486 92.242,512 65.597,512 65.597,450.486 66.411,450.486 69.494,450.486 
	74.207,450.486 76.408,450.486 81.43,450.486 83.632,450.486 88.345,450.486 91.428,450.486 "/>
<g>
	<path style="fill:#666666;" d="M317.161,192.159c-1.826-1.827-4.791-1.827-6.616,0l-5.376,5.376l-5.376-5.376
		c-1.826-1.827-4.791-1.827-6.616,0c-1.828,1.828-1.828,4.79,0,6.617l5.376,5.376l-5.376,5.376c-1.828,1.828-1.828,4.79,0,6.617
		c0.912,0.914,2.111,1.37,3.308,1.37c1.197,0,2.396-0.457,3.308-1.37l5.376-5.376l5.376,5.376c0.912,0.914,2.111,1.37,3.308,1.37
		c1.197,0,2.396-0.457,3.308-1.37c1.828-1.828,1.828-4.79,0-6.617l-5.376-5.376l5.376-5.376
		C318.989,196.949,318.989,193.987,317.161,192.159z"/>
	<path style="fill:#666666;" d="M218.824,192.159c-1.826-1.827-4.791-1.827-6.616,0l-5.376,5.376l-5.376-5.376
		c-1.826-1.827-4.791-1.827-6.616,0c-1.828,1.828-1.828,4.79,0,6.617l5.376,5.376l-5.376,5.376c-1.828,1.828-1.828,4.79,0,6.617
		c0.912,0.914,2.111,1.37,3.308,1.37s2.396-0.457,3.308-1.37l5.376-5.376l5.376,5.376c0.912,0.914,2.111,1.37,3.308,1.37
		s2.396-0.457,3.308-1.37c1.828-1.828,1.828-4.79,0-6.617l-5.376-5.376l5.376-5.376
		C220.651,196.949,220.651,193.987,218.824,192.159z"/>
</g>
<g>
</g>
<g>
</g>
<g>
</g>
<g>
</g>
<g>
</g>
<g>
</g>
<g>
</g>
<g>
</g>
<g>
</g>
<g>
</g>
<g>
</g>
<g>
</g>
<g>
</g>
<g>
</g>
<g>
</g>
</svg>
