<?xml version="1.0" encoding="iso-8859-1"?>
<!-- Generator: Adobe Illustrator 19.0.0, SVG Export Plug-In . SVG Version: 6.00 Build 0)  -->
<svg version="1.1" id="Layer_1" xmlns="http://www.w3.org/2000/svg" xmlns:xlink="http://www.w3.org/1999/xlink" x="0px" y="0px"
	 viewBox="0 0 512 512" style="enable-background:new 0 0 512 512;" xml:space="preserve">
<path style="fill:#CCCCCC;" d="M437.02,437.016c-88.637,88.637-226.096,98.69-325.806,30.159
	c-12.753-8.759-24.896-18.812-36.231-30.159c-12.479-12.479-23.403-25.929-32.785-40.113c-5.051-7.664-9.667-15.54-13.823-23.602
	c-9.531-18.489-16.672-37.911-21.388-57.781c-19.92-83.623,2.75-175.308,67.995-240.541C140.216,9.745,231.901-12.924,315.524,6.983
	c19.87,4.728,39.292,11.857,57.781,21.4c8.05,4.143,15.938,8.747,23.602,13.811c14.171,9.369,27.634,20.293,40.113,32.785
	c11.335,11.347,21.388,23.478,30.147,36.243C535.71,210.92,525.657,348.379,437.02,437.016z"/>
<g>
	<path style="fill:#F2F2F2;" d="M373.305,28.383L28.375,373.3c-9.531-18.489-16.672-37.911-21.388-57.781L315.524,6.983
		C335.394,11.711,354.816,18.84,373.305,28.383z"/>
	<path style="fill:#F2F2F2;" d="M467.167,111.222L111.214,467.175c-12.753-8.759-24.896-18.812-36.231-30.159
		c-12.479-12.479-23.403-25.929-32.785-40.113L396.907,42.194c14.171,9.369,27.634,20.293,40.113,32.785
		C448.355,86.326,458.408,98.457,467.167,111.222z"/>
</g>
<circle style="fill:#D88948;" cx="255.994" cy="255.993" r="207.42"/>
<path style="fill:#C4783F;" d="M142.918,402.671c-81.005-81.005-81.005-212.34,0-293.345c36.227-36.227,82.52-56.238,129.877-60.062
	c-58.533-4.727-118.69,15.285-163.468,60.062c-81.005,81.005-81.005,212.34,0,293.345c44.777,44.777,104.934,64.789,163.468,60.062
	C225.438,458.908,179.144,438.897,142.918,402.671z"/>
<g>
	<path style="fill:#666666;" d="M417.971,126.389l-0.012,0.012l-86.061,86.061c-3.757-6.557-29.239-9.008-34.838-3.409
		c-12.884,12.884,9.02-25.207,2.464-28.952l86.074-86.074c5.897,4.728,11.596,9.829,17.07,15.304
		C408.142,114.793,413.231,120.491,417.971,126.389z"/>
	<path style="fill:#666666;" d="M126.393,94.027l86.074,86.061c-6.557,3.757,0.149,21.338-5.45,26.937s-23.167-1.12-26.924,5.437
		l-86.061-86.061l-0.012-0.012c4.74-5.897,9.842-11.596,15.304-17.058C114.797,103.857,120.496,98.755,126.393,94.027z"/>
	<path style="fill:#666666;" d="M212.455,331.893v0.012l-86.061,86.061v0.012c-5.897-4.728-11.596-9.829-17.07-15.304
		c-5.474-5.474-10.563-11.173-15.304-17.07l0.012-0.012l86.061-86.061c3.757,6.557,22.234-1.07,27.833,4.529
		C213.525,309.659,205.898,328.136,212.455,331.893z"/>
	<path style="fill:#666666;" d="M417.959,385.593l0.012,0.012c-4.728,5.897-9.829,11.596-15.304,17.07
		c-5.462,5.462-11.16,10.563-17.058,15.291l-86.074-86.061v-0.012c6.557-3.757-2.31-23.469,3.288-29.068
		c5.599-5.599,25.316,3.264,29.073-3.293L417.959,385.593z"/>
</g>
<path style="fill:#CCCCCC;" d="M299.536,331.893c6.557-3.757,12.728-8.436,18.327-14.035c5.599-5.599,10.277-11.77,14.035-18.327
	c15.453-26.875,15.453-60.194,0-87.069c-3.757-6.557-8.436-12.728-14.035-18.327c-5.599-5.599-11.783-10.29-18.339-14.035
	c-26.862-15.441-60.182-15.441-87.057-0.012c-6.557,3.757-12.741,8.448-18.339,14.047c-5.599,5.599-10.277,11.77-14.035,18.327
	c-15.453,26.875-15.453,60.194,0,87.069c3.757,6.557,8.436,12.728,14.035,18.327c5.599,5.599,11.77,10.277,18.327,14.035
	C239.342,347.346,272.661,347.346,299.536,331.893z"/>
<circle style="fill:#999999;" cx="255.994" cy="255.993" r="46.95"/>
<path style="fill:#808080;" d="M247.107,289.196c-18.334-18.335-18.334-48.062,0-66.397c6.047-6.047,13.337-10.087,21.046-12.145
	c-15.663-4.182-33.065-0.143-45.352,12.145c-18.336,18.335-18.336,48.062,0,66.397c12.288,12.288,29.689,16.328,45.352,12.145
	C260.443,299.284,253.154,295.244,247.107,289.196z"/>
<g>
	<circle style="fill:#CCCCCC;" cx="404.887" cy="255.993" r="9.331"/>
	<circle style="fill:#CCCCCC;" cx="107.126" cy="255.993" r="9.331"/>
	<circle style="fill:#CCCCCC;" cx="256.007" cy="107.113" r="9.331"/>
	<circle style="fill:#CCCCCC;" cx="256.007" cy="404.874" r="9.331"/>
</g>
<g>
</g>
<g>
</g>
<g>
</g>
<g>
</g>
<g>
</g>
<g>
</g>
<g>
</g>
<g>
</g>
<g>
</g>
<g>
</g>
<g>
</g>
<g>
</g>
<g>
</g>
<g>
</g>
<g>
</g>
</svg>
