<?xml version="1.0" encoding="iso-8859-1"?>
<!-- Generator: Adobe Illustrator 19.0.0, SVG Export Plug-In . SVG Version: 6.00 Build 0)  -->
<svg version="1.1" id="Layer_1" xmlns="http://www.w3.org/2000/svg" xmlns:xlink="http://www.w3.org/1999/xlink" x="0px" y="0px"
	 viewBox="0 0 512 512" style="enable-background:new 0 0 512 512;" xml:space="preserve">
<path style="fill:#808080;" d="M512,402.713l-0.414,32.415c-0.103,8.042-6.646,14.494-14.688,14.494H15.022
	c-8.107,0-14.688-6.568-14.688-14.675v-46.146c2.263,15.891,31.82,0.724,48.797,0.724l398.234-1.293
	c8.934,0,62.825,22.381,63.924,14.391L512,402.713z"/>
<polygon style="fill:#999999;" points="225.22,62.378 225.633,117.329 105.685,78.398 "/>
<polygon style="fill:#666666;" points="225.633,117.329 53.824,117.329 60.289,63.671 105.685,78.398 "/>
<path style="fill:#D88948;" d="M37.892,114.744L0.336,379.385c-2.842,20.022,12.698,37.921,32.92,37.921H494.47
	c12.178,0,20.389-12.451,15.592-23.645l0,0c-16.492-38.48-47.965-68.567-87.149-83.31l-117.861-44.344
	c-14.246-5.359-25.324-16.845-30.168-31.273l-40.276-119.99H37.892V114.744z"/>
<g>
	<path style="fill:#C4783F;" d="M59.813,379.385L97.37,114.744H37.893L0.336,379.385c-2.842,20.022,12.698,37.923,32.92,37.923
		h59.477C72.511,417.307,56.971,399.406,59.813,379.385z"/>
	<polygon style="fill:#C4783F;" points="350.043,274.037 206.122,327.967 129.23,251.074 255.837,152.278 	"/>
</g>
<path style="fill:#808080;" d="M122.778,339.131c-2.948,0-5.86-1.34-7.766-3.879c-3.213-4.284-2.344-10.363,1.939-13.576
	l79.885-59.914c4.284-3.213,10.363-2.345,13.576,1.939c3.213,4.284,2.345,10.363-1.939,13.576l-79.885,59.914
	C126.844,338.499,124.801,339.131,122.778,339.131z"/>
<g>
</g>
<g>
</g>
<g>
</g>
<g>
</g>
<g>
</g>
<g>
</g>
<g>
</g>
<g>
</g>
<g>
</g>
<g>
</g>
<g>
</g>
<g>
</g>
<g>
</g>
<g>
</g>
<g>
</g>
</svg>
