<?xml version="1.0" encoding="iso-8859-1"?>
<!-- Generator: Adobe Illustrator 19.0.0, SVG Export Plug-In . SVG Version: 6.00 Build 0)  -->
<svg version="1.1" id="Layer_1" xmlns="http://www.w3.org/2000/svg" xmlns:xlink="http://www.w3.org/1999/xlink" x="0px" y="0px"
	 viewBox="0 0 512 512" style="enable-background:new 0 0 512 512;" xml:space="preserve">
<polygon style="fill:#D88948;" points="119.674,426.471 102.84,450.119 87.65,471.451 31.088,392.009 31.088,116.489 
	108.16,116.489 108.16,410.311 "/>
<polygon style="fill:#C4783F;" points="119.674,426.471 102.84,450.119 86.007,426.471 74.492,410.311 74.492,95.202 108.16,95.202 
	138.389,290.024 "/>
<polygon style="fill:#D88948;" points="202.442,436.774 186.955,458.523 164.721,489.753 119.674,426.471 108.16,410.311 
	108.16,116.489 199.439,116.489 199.439,432.558 "/>
<path style="fill:#C4783F;" d="M202.442,436.774l-15.487,21.749l-15.474-21.749l-3.003-4.215V116.489l17.507-33.896
	c4.148,3.057,8.646,12.694,13.453,14.701l23.342,172.082L202.442,436.774z"/>
<polygon style="fill:#D88948;" points="480.912,116.489 480.912,392.009 424.35,471.451 396.366,432.141 392.326,426.471 
	403.84,410.311 403.84,116.489 "/>
<polygon style="fill:#C4783F;" points="411.92,116.489 411.92,410.311 400.406,426.471 396.366,432.141 392.326,426.471 
	364.944,371.414 403.84,116.489 "/>
<polygon style="fill:#D88948;" points="403.84,116.489 403.84,410.311 392.326,426.471 347.279,489.753 313.598,442.443 
	309.558,436.774 312.561,432.558 312.561,116.489 "/>
<polygon style="fill:#C4783F;" points="320.641,116.489 320.641,432.558 317.638,436.774 313.598,442.443 309.558,436.774 
	274.854,387.885 312.561,116.489 "/>
<path style="fill:#D88948;" d="M312.561,116.489v316.069l-3.003,4.215L256,512l-53.558-75.226l-3.003-4.215V116.489h17.507
	c10.935,8.053,24.429,12.794,39.054,12.794c14.612,0,28.119-4.74,39.054-12.794H312.561z"/>
<path style="fill:#F97C64;" d="M491.806,23.688v84.599c0,6.02-4.875,10.895-10.895,10.895H31.088
	c-6.02,0-10.895-4.875-10.895-10.895V23.688c0-6.02,4.875-10.895,10.895-10.895h449.823
	C486.931,12.794,491.806,17.669,491.806,23.688z"/>
<path style="fill:#DD6352;" d="M316.184,22.261c-3.097-3.515-6.572-6.68-10.356-9.467h-78.108
	c-16.335,11.999-26.934,31.351-26.934,53.194c0,6.707,1.01,13.184,2.868,19.298c3.596,11.784,10.396,22.153,19.392,30.112
	c1.495,1.333,3.057,2.599,4.673,3.784h78.108c16.335-12.013,26.934-31.365,26.934-53.194
	C332.762,49.208,326.499,33.883,316.184,22.261z M266.774,92.868c-5.979,0-11.501-1.953-15.958-5.252
	c-6.639-4.889-10.935-12.753-10.935-21.628c0-14.854,12.039-26.894,26.894-26.894c8.875,0,16.753,4.296,21.641,10.935
	c3.313,4.458,5.252,9.979,5.252,15.958C293.667,80.829,281.628,92.868,266.774,92.868z"/>
<path style="fill:#EFBB6A;" d="M305.41,22.261c-3.097-3.515-6.572-6.68-10.356-9.467c-5.899-4.35-12.565-7.73-19.743-9.925
	C269.198,0.997,262.72,0,256,0c-14.625,0-28.119,4.74-39.054,12.794c-16.335,11.999-26.934,31.351-26.934,53.194
	c0,6.707,1.01,13.184,2.868,19.298c3.596,11.784,10.396,22.153,19.392,30.112c1.495,1.333,3.057,2.599,4.673,3.784
	c10.935,8.053,24.429,12.794,39.054,12.794c14.612,0,28.119-4.74,39.054-12.794c16.335-12.013,26.934-31.365,26.934-53.194
	C321.988,49.208,315.726,33.883,305.41,22.261z M256,92.868c-5.979,0-11.501-1.953-15.958-5.252
	c-6.639-4.889-10.935-12.753-10.935-21.628c0-14.854,12.039-26.894,26.894-26.894c8.875,0,16.753,4.296,21.641,10.935
	c3.313,4.458,5.252,9.979,5.252,15.958C282.893,80.829,270.854,92.868,256,92.868z"/>
<path style="fill:#F9DAB4;" d="M305.41,22.261L277.641,50.03c-4.888-6.639-12.767-10.935-21.641-10.935
	c-14.854,0-26.894,12.039-26.894,26.893c0,8.875,4.296,16.739,10.935,21.628l-27.769,27.782
	c-8.996-7.959-15.797-18.329-19.392-30.112l82.431-82.418c7.178,2.195,13.844,5.575,19.743,9.925
	C298.838,15.581,302.313,18.746,305.41,22.261z"/>
<path style="fill:#DD6352;" d="M87.663,12.794H31.088c-6.017,0-10.895,4.878-10.895,10.895v84.599
	c0,6.017,4.878,10.895,10.895,10.895h56.575V12.794z"/>
<path style="fill:#AA6739;" d="M255.996,381.446c-17.079,0-30.974,13.895-30.974,30.974s13.895,30.974,30.974,30.974
	s30.974-13.895,30.974-30.974S273.075,381.446,255.996,381.446z M255.996,423.194c-5.94,0-10.774-4.833-10.774-10.774
	s4.833-10.774,10.774-10.774c5.94,0,10.774,4.833,10.774,10.774S261.936,423.194,255.996,423.194z"/>
<g>
	<path style="fill:#666666;" d="M346.39,63.295c0,5.575,4.525,10.1,10.1,10.1c5.589,0,10.1-4.525,10.1-10.1
		c0-5.589-4.511-10.1-10.1-10.1C350.915,53.194,346.39,57.706,346.39,63.295z"/>
	<path style="fill:#666666;" d="M380.906,63.295c0,5.575,4.511,10.1,10.1,10.1c5.575,0,10.1-4.525,10.1-10.1
		c0-5.589-4.525-10.1-10.1-10.1C385.417,53.194,380.906,57.706,380.906,63.295z"/>
	<path style="fill:#666666;" d="M425.508,53.194c-5.575,0-10.1,4.511-10.1,10.1c0,5.575,4.525,10.1,10.1,10.1
		c5.589,0,10.1-4.525,10.1-10.1C435.609,57.706,431.097,53.194,425.508,53.194z"/>
	<path style="fill:#666666;" d="M120.994,73.395c5.575,0,10.1-4.525,10.1-10.1c0-5.589-4.525-10.1-10.1-10.1
		c-5.589,0-10.1,4.511-10.1,10.1C110.894,68.87,115.405,73.395,120.994,73.395z"/>
	<path style="fill:#666666;" d="M86.478,53.194c-5.575,0-10.1,4.511-10.1,10.1c0,5.575,4.525,10.1,10.1,10.1
		c5.575,0,10.1-4.525,10.1-10.1C96.578,57.706,92.053,53.194,86.478,53.194z"/>
	<path style="fill:#666666;" d="M51.976,53.194c-5.575,0-10.1,4.511-10.1,10.1c0,5.575,4.525,10.1,10.1,10.1s10.1-4.525,10.1-10.1
		C62.076,57.706,57.551,53.194,51.976,53.194z"/>
	<path style="fill:#666666;" d="M155.496,73.395c5.575,0,10.1-4.525,10.1-10.1c0-5.589-4.525-10.1-10.1-10.1s-10.1,4.511-10.1,10.1
		C145.396,68.87,149.921,73.395,155.496,73.395z"/>
	<path style="fill:#666666;" d="M460.024,53.194c-5.575,0-10.1,4.511-10.1,10.1c0,5.575,4.525,10.1,10.1,10.1
		c5.575,0,10.1-4.525,10.1-10.1C470.125,57.706,465.6,53.194,460.024,53.194z"/>
</g>
<g>
	<path style="fill:#AA6739;" d="M431.757,343.434c-5.575,0-10.1,4.511-10.1,10.1c0,5.575,4.525,10.1,10.1,10.1
		c5.575,0,10.1-4.525,10.1-10.1C441.857,347.944,437.332,343.434,431.757,343.434z"/>
	<path style="fill:#AA6739;" d="M431.757,384.306c-5.575,0-10.1,4.511-10.1,10.1c0,5.575,4.525,10.1,10.1,10.1
		c5.575,0,10.1-4.525,10.1-10.1C441.857,388.816,437.332,384.306,431.757,384.306z"/>
	<path style="fill:#AA6739;" d="M80.243,343.434c-5.575,0-10.1,4.511-10.1,10.1c0,5.575,4.525,10.1,10.1,10.1s10.1-4.525,10.1-10.1
		C90.343,347.944,85.818,343.434,80.243,343.434z"/>
	<path style="fill:#AA6739;" d="M80.243,384.306c-5.575,0-10.1,4.511-10.1,10.1c0,5.575,4.525,10.1,10.1,10.1s10.1-4.525,10.1-10.1
		C90.343,388.816,85.818,384.306,80.243,384.306z"/>
	<path style="fill:#AA6739;" d="M164.721,328.149c-5.575,0-10.1,4.511-10.1,10.1c0,5.575,4.525,10.1,10.1,10.1s10.1-4.525,10.1-10.1
		C174.821,332.659,170.296,328.149,164.721,328.149z"/>
	<path style="fill:#AA6739;" d="M164.721,369.021c-5.575,0-10.1,4.511-10.1,10.1c0,5.575,4.525,10.1,10.1,10.1s10.1-4.525,10.1-10.1
		C174.821,373.531,170.296,369.021,164.721,369.021z"/>
	<path style="fill:#AA6739;" d="M256,300.852c-5.575,0-10.1,4.511-10.1,10.1c0,5.575,4.525,10.1,10.1,10.1s10.1-4.525,10.1-10.1
		C266.1,305.362,261.575,300.852,256,300.852z"/>
	<path style="fill:#AA6739;" d="M256,341.724c-5.575,0-10.1,4.511-10.1,10.1c0,5.575,4.525,10.1,10.1,10.1s10.1-4.525,10.1-10.1
		C266.1,346.234,261.575,341.724,256,341.724z"/>
	<path style="fill:#AA6739;" d="M347.279,328.149c-5.575,0-10.1,4.511-10.1,10.1c0,5.575,4.525,10.1,10.1,10.1
		c5.575,0,10.1-4.525,10.1-10.1C357.379,332.659,352.854,328.149,347.279,328.149z"/>
	<path style="fill:#AA6739;" d="M347.279,369.021c-5.575,0-10.1,4.511-10.1,10.1c0,5.575,4.525,10.1,10.1,10.1
		c5.575,0,10.1-4.525,10.1-10.1C357.379,373.531,352.854,369.021,347.279,369.021z"/>
</g>
<g>
</g>
<g>
</g>
<g>
</g>
<g>
</g>
<g>
</g>
<g>
</g>
<g>
</g>
<g>
</g>
<g>
</g>
<g>
</g>
<g>
</g>
<g>
</g>
<g>
</g>
<g>
</g>
<g>
</g>
</svg>
