<?xml version="1.0" encoding="iso-8859-1"?>
<!-- Generator: Adobe Illustrator 19.0.0, SVG Export Plug-In . SVG Version: 6.00 Build 0)  -->
<svg version="1.1" id="Layer_1" xmlns="http://www.w3.org/2000/svg" xmlns:xlink="http://www.w3.org/1999/xlink" x="0px" y="0px"
	 viewBox="0 0 512.001 512.001" style="enable-background:new 0 0 512.001 512.001;" xml:space="preserve">
<path style="fill:#EFBB6A;" d="M130.047,176.182C105.489,165.756,7.172,115.851,50.334,0c0,0,21.155,88.948,118.269,111.452h0.012"
	/>
<path style="fill:#D89F55;" d="M168.615,111.452l-38.568,64.73C105.489,165.756,7.172,115.851,50.334,0
	c0,0,1.033,4.326,3.682,11.325c-11.447,88.948,67.719,128.926,89.397,138.124l22.954-38.532c0.741,0.182,1.482,0.365,2.236,0.535
	H168.615z"/>
<path style="fill:#EFBB6A;" d="M412.149,159.669c-12.516,8.469-23.829,13.816-30.196,16.514l-38.568-64.73h0.012
	c9.308-2.163,17.923-4.921,25.882-8.166C444.375,72.714,461.666,0,461.666,0C493.648,85.837,447.959,135.475,412.149,159.669z"/>
<path style="fill:#D89F55;" d="M412.149,159.669c-12.516,8.469-23.829,13.816-30.196,16.514l-38.568-64.73h0.012
	c9.308-2.163,17.923-4.921,25.882-8.166C378.995,126.975,385.416,143.118,412.149,159.669z"/>
<circle style="fill:#EFBB6A;" cx="256.005" cy="210.279" r="134.989"/>
<path style="fill:#D89F55;" d="M174.174,210.282c0-74.551,36.635-134.987,81.827-134.987c-74.551,0-134.987,60.436-134.987,134.987
	c0,74.552,60.436,134.988,134.987,134.988C210.809,345.27,174.174,284.835,174.174,210.282z"/>
<path style="fill:#E6E6E6;" d="M124.238,235.232v89.331c0,17.328,14.047,31.375,31.375,31.375h0.011c5.202,0,9.42,4.218,9.42,9.42
	v24.981h0.001l-0.004,0.001l0,0c0,40.375,32.731,73.106,73.106,73.106h35.703c40.375,0,73.106-32.731,73.106-73.106l0,0
	l-0.002-0.001h0.002v-24.981c0-5.202,4.218-9.42,9.42-9.42l0,0c17.334,0,31.387-14.052,31.387-31.387v-89.32l-141.48-32.942
	L124.238,235.232z"/>
<path style="fill:#D88948;" d="M356.642,417.584c-0.984,6.744-2.649,13.269-4.921,19.442c-6.987,19.017-19.722,34.716-36.223,43.453
	L255.993,512L196.5,480.48c-16.502-8.737-29.236-24.436-36.211-43.453c-2.272-6.173-3.937-12.698-4.921-19.442
	c0,0,46.163-17.547,75.958-33.404c14.205-7.558,24.679-14.727,24.679-19.442c0,4.715,10.474,11.884,24.679,19.442
	C310.479,400.038,356.642,417.584,356.642,417.584z"/>
<path style="fill:#C4783F;" d="M226.675,470.914c-10.05-14.081-17.265-42.001-19.798-74.821
	c-25.549,11.624-51.509,21.492-51.509,21.492c4.022,27.535,19.272,51.315,41.132,62.895l59.493,31.521l0.005-0.002L226.675,470.914z
	"/>
<g>
	<path style="fill:#CCCCCC;" d="M183.402,365.357c5.122,0,6.726-7.259,1.939-9.083c-0.576-0.219-1.182-0.337-1.808-0.337h-0.008
		c-12.51,0-22.651-14.047-22.651-31.375v-89.331h-36.636v89.331c0,17.328,14.047,31.375,31.375,31.375h0.011
		c5.202,0,9.419,4.218,9.419,9.42L183.402,365.357L183.402,365.357z"/>
	<path style="fill:#CCCCCC;" d="M316.651,337.258c-22.183-0.001-40.911-15.911-44.53-37.828l-0.141-0.857
		c-0.469-2.839,1.452-5.518,4.291-5.987l78.877-13.018c2.837-0.468,5.518,1.452,5.987,4.291l0,0
		c1.95,11.816-0.458,24.061-7.274,33.908c-7.031,10.157-17.649,16.876-29.805,18.882c-2.45,0.405-4.938,0.609-7.403,0.609
		C316.652,337.258,316.652,337.258,316.651,337.258z"/>
</g>
<path style="fill:#666666;" d="M278.117,298.439c3.517,21.309,23.64,35.731,44.949,32.214s35.731-23.64,32.214-44.949
	L278.117,298.439z"/>
<path style="fill:#CCCCCC;" d="M195.349,337.258c-2.464,0-4.955-0.205-7.405-0.609c-12.156-2.006-22.774-8.723-29.805-18.882
	c-6.816-9.847-9.224-22.092-7.274-33.908l0.848-5.138l83.159,13.724c3.311,0.547,5.552,3.673,5.005,6.985l0,0
	C236.26,321.348,217.532,337.258,195.349,337.258z"/>
<path style="fill:#666666;" d="M233.883,298.439c-3.517,21.309-23.64,35.731-44.949,32.214s-35.731-23.64-32.214-44.949
	L233.883,298.439z"/>
<path style="fill:#EFBB6A;" d="M396.376,196.084H115.624c-2.871,0-5.2,2.328-5.2,5.2v55.482c0,2.871,2.328,5.2,5.2,5.2h280.752
	c2.871,0,5.2-2.328,5.2-5.2v-55.482C401.575,198.411,399.247,196.084,396.376,196.084z"/>
<rect x="110.42" y="196.086" style="fill:#D89F55;" width="73.889" height="65.885"/>
<polygon style="fill:#EFBB6A;" points="284.251,79.693 256.001,47.489 227.752,79.693 227.752,196.084 284.251,196.084 "/>
<polygon style="fill:#D89F55;" points="256.001,47.489 256.001,202.289 227.752,202.289 227.752,79.693 "/>
<polygon style="fill:#666666;" points="256.001,326.763 282.834,373.24 229.167,373.24 "/>
<g>
	<path style="fill:#C4783F;" d="M256.005,384.18c0,2.029-0.109,4.046-0.34,6.015c-1.385,12.188-6.914,23.124-15.141,31.35
		c-9.575,9.563-22.784,15.481-37.377,15.481h-42.858c-2.272-6.173-3.937-12.698-4.921-19.442c0,0,70.842-36.989,100.637-52.846
		V384.18z"/>
	<path style="fill:#C4783F;" d="M356.642,417.584c-0.984,6.744-2.649,13.269-4.921,19.442h-42.87
		c-14.594,0-27.802-5.918-37.365-15.481c-9.563-9.563-15.481-22.772-15.481-37.365v-19.442
		C285.8,380.596,356.642,417.584,356.642,417.584z"/>
</g>
<g>
	<path style="fill:#666666;" d="M268.457,216.565c-1.897-1.898-4.977-1.898-6.873,0L256,222.149l-5.585-5.585
		c-1.897-1.898-4.977-1.898-6.873,0c-1.899,1.899-1.899,4.976,0,6.874l5.585,5.585l-5.585,5.585c-1.899,1.899-1.899,4.976,0,6.874
		c0.948,0.949,2.193,1.423,3.436,1.423s2.489-0.475,3.436-1.423l5.585-5.585l5.585,5.585c0.948,0.949,2.193,1.423,3.436,1.423
		c1.243,0,2.489-0.475,3.436-1.423c1.899-1.899,1.899-4.976,0-6.874l-5.585-5.585l5.585-5.585
		C270.357,221.541,270.357,218.464,268.457,216.565z"/>
	<path style="fill:#666666;" d="M166.3,216.565c-1.897-1.898-4.977-1.898-6.873,0l-5.585,5.585l-5.585-5.585
		c-1.897-1.898-4.977-1.898-6.873,0c-1.899,1.899-1.899,4.976,0,6.874l5.585,5.585l-5.585,5.585c-1.899,1.899-1.899,4.976,0,6.874
		c0.948,0.949,2.193,1.423,3.436,1.423s2.489-0.475,3.436-1.423l5.585-5.585l5.585,5.585c0.948,0.949,2.193,1.423,3.436,1.423
		s2.489-0.475,3.436-1.423c1.899-1.899,1.899-4.976,0-6.874l-5.585-5.585l5.585-5.585
		C168.199,221.541,168.199,218.464,166.3,216.565z"/>
	<path style="fill:#666666;" d="M365.031,229.023l5.585-5.585c1.899-1.899,1.899-4.976,0-6.874c-1.897-1.898-4.977-1.898-6.873,0
		l-5.585,5.585l-5.585-5.585c-1.897-1.898-4.977-1.898-6.873,0c-1.899,1.899-1.899,4.976,0,6.874l5.585,5.585l-5.585,5.585
		c-1.899,1.899-1.899,4.976,0,6.874c0.948,0.949,2.193,1.423,3.436,1.423c1.243,0,2.489-0.475,3.436-1.423l5.585-5.585l5.585,5.585
		c0.948,0.949,2.193,1.423,3.436,1.423c1.243,0,2.489-0.475,3.436-1.423c1.899-1.899,1.899-4.976,0-6.874L365.031,229.023z"/>
</g>
<path style="fill:#C4783F;" d="M256.005,364.738c0,2.029-0.109,4.046-0.34,6.015c-1.385,12.188-6.914,23.124-15.141,31.35
	c-9.575,9.563-22.784,15.481-37.377,15.481h-89.312c0-14.594,5.918-27.802,15.481-37.365c9.575-9.563,22.784-15.481,37.378-15.481
	H256.005z"/>
<path style="fill:#D88948;" d="M255.665,370.753c-1.385,12.188-6.914,23.124-15.141,31.35c-9.575,9.563-22.784,15.481-37.377,15.481
	h-55.313c1.373-12.188,6.902-23.124,15.128-31.35c9.575-9.563,22.784-15.481,37.377-15.481H255.665z"/>
<path style="fill:#C4783F;" d="M398.163,417.584h-41.521h-47.791c-14.594,0-27.802-5.918-37.365-15.481
	c-9.563-9.563-15.481-22.772-15.481-37.365h89.3c14.594,0,27.814,5.918,37.378,15.481
	C392.246,389.782,398.163,402.99,398.163,417.584z"/>
<path style="fill:#D88948;" d="M290.332,370.753c1.385,12.188,6.914,23.124,15.141,31.35c9.575,9.563,22.784,15.481,37.378,15.481
	h55.313c-1.373-12.188-6.902-23.124-15.128-31.35c-9.575-9.563-22.784-15.481-37.378-15.481H290.332z"/>
<g>
</g>
<g>
</g>
<g>
</g>
<g>
</g>
<g>
</g>
<g>
</g>
<g>
</g>
<g>
</g>
<g>
</g>
<g>
</g>
<g>
</g>
<g>
</g>
<g>
</g>
<g>
</g>
<g>
</g>
</svg>
