<?xml version="1.0" encoding="iso-8859-1"?>
<!-- Generator: Adobe Illustrator 19.0.0, SVG Export Plug-In . SVG Version: 6.00 Build 0)  -->
<svg version="1.1" id="Layer_1" xmlns="http://www.w3.org/2000/svg" xmlns:xlink="http://www.w3.org/1999/xlink" x="0px" y="0px"
	 viewBox="0 0 512 512" style="enable-background:new 0 0 512 512;" xml:space="preserve">
<path style="fill:#CCCCCC;" d="M452.958,0v71.012c0,32.166-22.597,59.053-52.784,65.664c-4.654,1.024-9.49,1.559-14.45,1.559
	h-11.674l-0.603,0.193c-6.736-20.936-45.729-39.437-61.693-53.819l27.638-0.922h29.868c8.488,0,16.681-1.263,24.395-3.618
	C427.984,69.635,452.958,37.73,452.958,0z"/>
<path style="fill:#B3B3B3;" d="M400.174,136.676c-4.654,1.024-9.49,1.559-14.45,1.559h-11.674l-0.603,0.193
	c-6.736-20.936-45.729-39.437-61.693-53.819l27.638-0.922h29.868c8.488,0,16.681-1.263,24.395-3.618c0,0.011,0,0.011,0,0.011
	C379.67,94.064,386.646,123.147,400.174,136.676z"/>
<path style="fill:#666666;" d="M373.446,138.429c-6.736-20.936-18.922-39.437-34.886-53.819
	c-15.622-14.075-34.84-24.213-56.118-28.855h-52.898c-21.266,4.642-40.495,14.78-56.106,28.855
	c-15.975,14.382-28.161,32.872-34.886,53.819h-0.011c-2.708,8.42-4.54,17.227-5.382,26.318l57.551,30.847h102.189l85.929-30.847
	C377.986,155.655,376.154,146.848,373.446,138.429z"/>
<path style="fill:#CCCCCC;" d="M172.609,83.687l21.949,0.922c-15.975,14.382-49.279,32.872-56.004,53.819h-0.011l-0.592-0.193
	h-11.674c-37.139,0-67.234-30.096-67.234-67.223V0c0,46.219,37.469,83.687,83.699,83.687H172.609z"/>
<path style="fill:#E6E6E6;" d="M132.615,226.434v83.648c0,16.225,13.153,29.379,29.379,29.379h0.01c4.871,0,8.82,3.949,8.82,8.82
	v38.942h0.001l-0.003,0.001l0,0c0,37.807,30.649,68.455,68.455,68.455h33.432c37.807,0,68.455-30.649,68.455-68.455l0,0
	l-0.002-0.001h0.002v-38.942c0-4.871,3.949-8.82,8.82-8.82l0,0c16.231,0,29.39-13.158,29.39-29.39v-83.637l-132.48-30.847
	L132.615,226.434z"/>
<g>
	<path style="fill:#B3B3B3;" d="M254.067,455.679h-14.792c-18.899,0-36.012-7.658-48.403-20.049
		c-12.38-12.38-20.049-29.493-20.049-48.403v-38.948c0-3.368-1.889-6.292-4.654-7.771h14.792c2.765,1.479,4.654,4.403,4.654,7.771
		v38.948c0,18.911,7.669,36.024,20.049,48.403C218.055,448.021,235.168,455.679,254.067,455.679z"/>
	<path style="fill:#B3B3B3;" d="M188.016,348.28c4.796,0,6.298-6.797,1.816-8.505c-0.539-0.205-1.107-0.315-1.693-0.315h-0.008
		c-11.714,0-21.21-13.153-21.21-29.379v-83.648h-34.306v83.648c0,16.225,13.153,29.379,29.379,29.379h0.01
		c4.871,0,8.819,3.949,8.819,8.82H188.016z"/>
</g>
<path style="fill:#DD6352;" d="M232.755,263.044c0,20.231-16.385,36.615-36.615,36.615c-20.219,0-36.615-16.385-36.615-36.615
	H232.755z"/>
<path style="fill:#F97C64;" d="M231.526,263.044c-4.176,15.645-18.433,27.16-35.387,27.16c-16.942,0-31.211-11.515-35.387-27.16
	H231.526z"/>
<path style="fill:#DD6352;" d="M279.234,263.048c0,20.223,16.394,36.615,36.615,36.615c20.223,0,36.615-16.394,36.615-36.615
	H279.234L279.234,263.048z"/>
<path style="fill:#F97C64;" d="M351.236,263.044c-4.176,15.645-18.433,27.16-35.387,27.16c-16.942,0-31.211-11.515-35.387-27.16
	H351.236z"/>
<path style="fill:#B3B3B3;" d="M144.482,120.03c-37.139,0-67.234-30.096-67.234-67.223V52.08C65.862,37.785,59.042,19.694,59.042,0
	v71.012c0,37.127,30.096,67.223,67.234,67.223h11.674l0.592,0.193h0.011c2.047-6.378,31.541-18.399,7.62-18.399H144.482z"/>
<path style="fill:#EFBB6A;" d="M282.444,164.742V55.754v-3.076c0-14.34-11.153-26.552-25.484-27.06
	c-15.048-0.533-27.414,11.509-27.414,26.438v3.698v108.988H127.157c-4.128,0-7.476,3.346-7.476,7.476v46.74
	c0,4.128,3.346,7.476,7.476,7.476h257.679c4.128,0,7.476-3.346,7.476-7.476v-46.74c0-4.128-3.346-7.476-7.476-7.476L282.444,164.742
	L282.444,164.742z"/>
<path style="fill:#4D4D4D;" d="M229.546,55.754h8.329c-14.564,4.642-27.74,14.78-38.436,28.855
	c-10.946,14.382-19.286,32.872-23.894,53.819h-0.011c-1.855,8.42-3.106,17.227-3.687,26.318H133.16
	c0.842-9.091,2.674-17.898,5.382-26.318h0.011c6.725-20.947,18.911-39.437,34.886-53.819
	C189.049,70.534,208.28,60.396,229.546,55.754z"/>
<path style="fill:#D89F55;" d="M181.37,164.742h-54.214c-4.128,0-7.476,3.346-7.476,7.476v46.74c0,4.128,3.346,7.476,7.476,7.476
	h54.214V164.742z"/>
<g>
	<path style="fill:#666666;" d="M203.943,410.738c-3.143,0-5.689-2.548-5.689-5.689v-35.839c0-3.142,2.546-5.689,5.689-5.689
		s5.689,2.548,5.689,5.689v35.839C209.632,408.191,207.084,410.738,203.943,410.738z"/>
	<path style="fill:#666666;" d="M238.645,410.738c-3.143,0-5.689-2.548-5.689-5.689v-35.839c0-3.142,2.546-5.689,5.689-5.689
		s5.689,2.548,5.689,5.689v35.839C244.334,408.191,241.787,410.738,238.645,410.738z"/>
	<path style="fill:#666666;" d="M308.05,410.738c-3.143,0-5.689-2.548-5.689-5.689v-35.839c0-3.142,2.546-5.689,5.689-5.689
		c3.143,0,5.689,2.548,5.689,5.689v35.839C313.739,408.191,311.191,410.738,308.05,410.738z"/>
	<path style="fill:#666666;" d="M273.347,410.738c-3.143,0-5.689-2.548-5.689-5.689v-35.839c0-3.142,2.546-5.689,5.689-5.689
		c3.143,0,5.689,2.548,5.689,5.689v35.839C279.036,408.191,276.488,410.738,273.347,410.738z"/>
</g>
<path style="fill:#D89F55;" d="M256.001,25.601c-3.778,0-6.838,11.845-6.838,26.455v112.691h-19.616V52.056
	C229.546,37.446,241.39,25.601,256.001,25.601z"/>
<g>
	<path style="fill:#D88948;" d="M238.683,512L238.683,512c-3.771,0-6.827-3.056-6.827-6.827V430.08h13.654v75.093
		C245.51,508.944,242.452,512,238.683,512z"/>
	<path style="fill:#D88948;" d="M273.308,512L273.308,512c-3.771,0-6.827-3.056-6.827-6.827V430.08h13.654v75.093
		C280.135,508.944,277.079,512,273.308,512z"/>
</g>
<g>
	<path style="fill:#666666;" d="M262.74,306.166l16.807,29.109c2.997,5.191-0.749,11.679-6.743,11.679h-33.613
		c-5.994,0-9.74-6.488-6.743-11.679l16.807-29.109C252.25,300.976,259.743,300.976,262.74,306.166z"/>
	<rect x="170.823" y="381.537" style="fill:#666666;" width="170.345" height="11.378"/>
</g>
<g>
	<path style="fill:#EFBB6A;" d="M281.557,479.892h-16.499c-3.77,0-6.827-3.056-6.827-6.827c0-3.771,3.057-6.827,6.827-6.827h16.499
		c3.77,0,6.827,3.056,6.827,6.827C288.384,476.835,285.328,479.892,281.557,479.892z"/>
	<path style="fill:#EFBB6A;" d="M281.557,496.39h-16.499c-3.77,0-6.827-3.056-6.827-6.827c0-3.771,3.057-6.827,6.827-6.827h16.499
		c3.77,0,6.827,3.056,6.827,6.827C288.384,493.334,285.328,496.39,281.557,496.39z"/>
	<path style="fill:#EFBB6A;" d="M246.932,479.892h-16.499c-3.77,0-6.827-3.056-6.827-6.827c0-3.771,3.057-6.827,6.827-6.827h16.499
		c3.77,0,6.827,3.056,6.827,6.827C253.759,476.835,250.702,479.892,246.932,479.892z"/>
	<path style="fill:#EFBB6A;" d="M246.932,496.39h-16.499c-3.77,0-6.827-3.056-6.827-6.827c0-3.771,3.057-6.827,6.827-6.827h16.499
		c3.77,0,6.827,3.056,6.827,6.827C253.759,493.334,250.702,496.39,246.932,496.39z"/>
</g>
<g>
	<path style="fill:#CCCCCC;" d="M352.588,248.912h-73.477c-4.218,0-7.637,3.419-7.637,7.637l0,0c0,4.218,3.419,7.637,7.637,7.637
		h73.477c4.218,0,7.637-3.419,7.637-7.637l0,0C360.225,252.331,356.806,248.912,352.588,248.912z"/>
	<path style="fill:#CCCCCC;" d="M232.88,248.912h-73.477c-4.218,0-7.637,3.419-7.637,7.637l0,0c0,4.218,3.419,7.637,7.637,7.637
		h73.477c4.218,0,7.637-3.419,7.637-7.637l0,0C240.517,252.331,237.098,248.912,232.88,248.912z"/>
</g>
<g>
	<path style="fill:#DD6352;" d="M341.109,204.115c4.722,0,8.545-3.812,8.545-8.522c0-4.722-3.822-8.545-8.545-8.545
		c-4.711,0-8.522,3.823-8.522,8.545C332.587,200.304,336.4,204.115,341.109,204.115z"/>
	<path style="fill:#DD6352;" d="M369.488,204.115c4.722,0,8.545-3.812,8.545-8.522c0-4.722-3.822-8.545-8.545-8.545
		c-4.711,0-8.522,3.823-8.522,8.545C360.965,200.304,364.777,204.115,369.488,204.115z"/>
	<path style="fill:#DD6352;" d="M312.744,187.048c-4.712,0-8.534,3.823-8.534,8.545c0,4.711,3.822,8.522,8.534,8.522
		c4.711,0,8.534-3.812,8.534-8.522C321.278,190.871,317.454,187.048,312.744,187.048z"/>
	<path style="fill:#DD6352;" d="M284.366,187.048c-4.711,0-8.534,3.823-8.534,8.545c0,4.711,3.823,8.522,8.534,8.522
		c4.711,0,8.534-3.812,8.534-8.522C292.899,190.871,289.076,187.048,284.366,187.048z"/>
	<path style="fill:#DD6352;" d="M255.989,187.048c-4.712,0-8.522,3.823-8.522,8.545c0,4.711,3.812,8.522,8.522,8.522
		c4.721,0,8.545-3.812,8.545-8.522C264.534,190.871,260.71,187.048,255.989,187.048z"/>
	<path style="fill:#DD6352;" d="M227.622,187.048c-4.711,0-8.534,3.823-8.534,8.545c0,4.711,3.823,8.522,8.534,8.522
		c4.712,0,8.534-3.812,8.534-8.522C236.156,190.871,232.334,187.048,227.622,187.048z"/>
	<path style="fill:#DD6352;" d="M199.246,187.048c-4.712,0-8.534,3.823-8.534,8.545c0,4.711,3.822,8.522,8.534,8.522
		c4.711,0,8.534-3.812,8.534-8.522C207.779,190.871,203.955,187.048,199.246,187.048z"/>
	<path style="fill:#DD6352;" d="M170.878,187.048c-4.721,0-8.534,3.823-8.534,8.545c0,4.711,3.813,8.522,8.534,8.522
		c4.712,0,8.534-3.812,8.534-8.522C179.412,190.871,175.59,187.048,170.878,187.048z"/>
	<path style="fill:#DD6352;" d="M142.502,204.115c4.722,0,8.545-3.812,8.545-8.522c0-4.722-3.822-8.545-8.545-8.545
		c-4.711,0-8.522,3.823-8.522,8.545C133.978,200.304,137.791,204.115,142.502,204.115z"/>
</g>
<g>
</g>
<g>
</g>
<g>
</g>
<g>
</g>
<g>
</g>
<g>
</g>
<g>
</g>
<g>
</g>
<g>
</g>
<g>
</g>
<g>
</g>
<g>
</g>
<g>
</g>
<g>
</g>
<g>
</g>
</svg>
