<?xml version="1.0" encoding="iso-8859-1"?>
<!-- Generator: Adobe Illustrator 19.0.0, SVG Export Plug-In . SVG Version: 6.00 Build 0)  -->
<svg version="1.1" id="Layer_1" xmlns="http://www.w3.org/2000/svg" xmlns:xlink="http://www.w3.org/1999/xlink" x="0px" y="0px"
	 viewBox="0 0 512 512" style="enable-background:new 0 0 512 512;" xml:space="preserve">
<polygon style="fill:#D88948;" points="356.571,184.205 291.135,249.642 262.371,278.418 28.776,512 9.283,492.506 0,483.236 
	233.594,249.642 262.371,220.878 296.17,187.066 327.795,155.429 352.871,148.918 "/>
<polygon style="fill:#C4783F;" points="9.283,492.506 0,483.236 296.17,187.066 327.795,155.429 352.875,148.914 305.453,196.336 
	"/>
<polygon style="fill:#B3B3B3;" points="512,0 355.198,54.832 368.753,112.372 392.672,104.035 "/>
<polygon style="fill:#CCCCCC;" points="457.156,156.789 509.698,6.587 512,0 409.599,101.5 399.654,143.234 "/>
<polygon style="fill:#B3B3B3;" points="356.571,184.205 362.929,190.563 399.654,143.234 512,0 368.753,112.372 321.437,149.083 
	327.795,155.429 "/>
<polygon style="fill:#999999;" points="337.078,164.711 512,0 321.437,149.083 "/>
<polygon style="fill:#C4783F;" points="291.135,249.642 262.371,278.418 233.594,249.642 262.371,220.878 "/>
<polygon style="fill:#D88948;" points="512,483.224 492.506,502.717 483.236,512 187.066,215.83 155.429,184.205 164.711,174.922 
	184.205,155.429 215.83,187.053 "/>
<polygon style="fill:#C4783F;" points="492.506,502.717 483.236,512 187.066,215.83 155.429,184.205 164.711,174.922 
	196.336,206.547 "/>
<polygon style="fill:#B3B3B3;" points="0,0 54.832,156.802 112.372,143.247 104.035,119.328 "/>
<polygon style="fill:#C4783F;" points="206.293,177.516 177.529,206.293 145.892,174.668 174.668,145.892 "/>
<polygon style="fill:#CCCCCC;" points="156.789,54.844 6.587,2.302 0,0 101.5,102.401 143.234,112.347 "/>
<polygon style="fill:#B3B3B3;" points="184.205,155.429 190.563,149.071 143.234,112.347 0,0 112.372,143.247 149.083,190.563 
	155.429,184.205 "/>
<polygon style="fill:#999999;" points="164.711,174.922 0,0 149.083,190.563 "/>
<g>
</g>
<g>
</g>
<g>
</g>
<g>
</g>
<g>
</g>
<g>
</g>
<g>
</g>
<g>
</g>
<g>
</g>
<g>
</g>
<g>
</g>
<g>
</g>
<g>
</g>
<g>
</g>
<g>
</g>
</svg>
