<?xml version="1.0" encoding="iso-8859-1"?>
<!-- Generator: Adobe Illustrator 19.0.0, SVG Export Plug-In . SVG Version: 6.00 Build 0)  -->
<svg version="1.1" id="Layer_1" xmlns="http://www.w3.org/2000/svg" xmlns:xlink="http://www.w3.org/1999/xlink" x="0px" y="0px"
	 viewBox="0 0 512.001 512.001" style="enable-background:new 0 0 512.001 512.001;" xml:space="preserve">
<polygon style="fill:#F97C64;" points="283.607,383.178 277.999,486.548 234.002,486.548 228.406,383.178 "/>
<polygon style="fill:#DD6352;" points="256.006,383.178 256.006,486.548 234.002,486.548 228.406,383.178 "/>
<polygon style="fill:#B3B3B3;" points="332.994,68.14 323.847,338.744 188.154,338.744 179.019,68.14 256.006,0 "/>
<polygon style="fill:#CCCCCC;" points="332.994,68.14 329.615,168.108 328.432,203.189 327.26,237.856 325.341,294.436 
	323.847,338.744 256.006,338.744 256.006,0 "/>
<g>
	<polygon style="fill:#E6E6E6;" points="329.615,168.108 328.432,203.189 256.006,130.764 256.006,94.499 	"/>
	<polygon style="fill:#E6E6E6;" points="327.26,237.856 325.341,294.436 256.006,225.102 256.006,166.603 	"/>
</g>
<g>
	<path style="fill:#EFBB6A;" d="M356.228,341.404v26.188c0,2.109-1.501,3.918-3.572,4.308l-69.048,13.002h-55.201l-69.06-13.002
		c-2.072-0.391-3.572-2.2-3.572-4.308v-26.188c0-2.421,1.963-4.384,4.384-4.384h27.997h135.693h27.997
		C354.265,337.021,356.228,338.983,356.228,341.404z"/>
	<path style="fill:#EFBB6A;" d="M292.409,489.422v18.556c0,2.221-1.801,4.023-4.023,4.023h-64.772c-2.221,0-4.023-1.801-4.023-4.023
		v-18.556c0-2.221,1.801-4.023,4.023-4.023h10.386h43.998h10.386C290.608,485.399,292.409,487.2,292.409,489.422z"/>
</g>
<path style="fill:#D19B54;" d="M239.919,485.399V512h-16.304c-2.221,0-4.023-1.801-4.023-4.023v-18.556
	c0-2.221,1.801-4.023,4.023-4.023l0,0h12.282h4.022V485.399z"/>
<g>
</g>
<g>
</g>
<g>
</g>
<g>
</g>
<g>
</g>
<g>
</g>
<g>
</g>
<g>
</g>
<g>
</g>
<g>
</g>
<g>
</g>
<g>
</g>
<g>
</g>
<g>
</g>
<g>
</g>
</svg>
