<?xml version="1.0" encoding="iso-8859-1"?>
<!-- Generator: Adobe Illustrator 19.0.0, SVG Export Plug-In . SVG Version: 6.00 Build 0)  -->
<svg version="1.1" id="Layer_1" xmlns="http://www.w3.org/2000/svg" xmlns:xlink="http://www.w3.org/1999/xlink" x="0px" y="0px"
	 viewBox="0 0 512 512" style="enable-background:new 0 0 512 512;" xml:space="preserve">
<polygon style="fill:#CCCCCC;" points="45.489,22.741 150.132,41.071 190.766,81.705 244.266,135.205 256.151,147.09 
	292.238,183.177 387.328,278.266 354.527,331.779 352.973,334.301 313.37,357.382 301.002,364.592 292.238,355.828 256.151,319.741 
	63.806,127.397 "/>
<polygon style="fill:#F2F2F2;" points="256.151,147.09 292.238,183.177 292.238,355.828 256.151,319.741 "/>
<polygon style="fill:#E6E6E6;" points="190.769,81.704 244.269,135.204 244.269,307.855 190.769,254.356 "/>
<polygon style="fill:#B3B3B3;" points="45.491,22.739 63.809,127.395 301.004,364.591 358.64,335.887 "/>
<polygon style="fill:#D88948;" points="397.38,327.332 467.147,397.098 463.4,436.635 419.85,444.395 350.084,374.641 
	360.221,334.306 "/>
<polygon style="fill:#C4783F;" points="357.34,345.773 446.884,435.318 419.85,444.395 350.084,374.641 "/>
<path style="fill:#DD6352;" d="M492.939,430.422c3.528,3.528,5.923,7.77,7.184,12.254c2.675,9.477,0.28,20.075-7.184,27.527
	c-10.98,10.98-28.788,10.98-39.781,0l2.509-13.057l3.057-15.846L492.939,430.422z"/>
<path style="fill:#F97C64;" d="M492.939,430.422c3.528,3.528,5.923,7.77,7.184,12.254c-1.261,4.484-3.656,8.713-7.184,12.241
	c-10.178,10.178-26.228,10.917-37.272,2.229l3.057-15.846L492.939,430.422z"/>
<polygon style="fill:#EFBB6A;" points="482.429,381.811 512,411.381 492.94,430.424 434.114,489.249 404.553,459.687 "/>
<polygon style="fill:#D89F55;" points="430.187,434.053 459.757,463.623 440.699,482.665 434.114,489.249 404.553,459.687 "/>
<polygon style="fill:#EFBB6A;" points="440.338,284.38 307.131,417.587 277.57,388.026 410.768,254.828 "/>
<polygon style="fill:#D89F55;" points="340.358,384.36 307.131,417.587 277.57,388.026 310.788,354.808 "/>
<polygon style="fill:#FFFFFF;" points="169.826,233.413 205.913,269.5 306.061,269.5 342.148,233.413 "/>
<polygon style="fill:#B3B3B3;" points="354.209,245.145 354.043,245.298 317.956,281.384 267.883,331.47 205.912,269.5 
	181.557,245.145 267.883,158.819 342.477,233.413 "/>
<polygon style="fill:#FFFFFF;" points="342.158,233.413 306.071,269.5 205.925,269.5 169.838,233.413 "/>
<polygon style="fill:#CCCCCC;" points="466.507,22.751 448.177,127.394 407.543,168.028 354.043,221.528 342.158,233.413 
	306.071,269.5 210.982,364.589 157.469,331.789 154.947,330.235 131.866,290.632 124.656,278.264 133.42,269.5 169.507,233.413 
	361.851,41.068 "/>
<g>
	<polygon style="fill:#E6E6E6;" points="342.158,233.413 306.071,269.5 133.42,269.5 169.507,233.413 	"/>
	<polygon style="fill:#E6E6E6;" points="407.544,168.031 354.044,221.531 181.393,221.531 234.892,168.031 	"/>
</g>
<polygon style="fill:#B3B3B3;" points="466.509,22.753 361.853,41.071 124.657,278.266 153.361,335.902 "/>
<polygon style="fill:#D88948;" points="161.916,374.642 92.15,444.409 52.615,440.662 44.853,397.112 114.607,327.346 
	154.943,337.483 "/>
<polygon style="fill:#C4783F;" points="143.476,334.602 53.932,424.146 44.853,397.112 114.607,327.346 "/>
<path style="fill:#DD6352;" d="M58.826,470.201c-3.528,3.528-7.77,5.923-12.254,7.184c-9.477,2.675-20.075,0.28-27.527-7.184
	c-10.98-10.98-10.98-28.788,0-39.781l13.057,2.509l15.846,3.057L58.826,470.201z"/>
<path style="fill:#F97C64;" d="M58.826,470.201c-3.528,3.528-7.77,5.923-12.254,7.184c-4.484-1.261-8.713-3.656-12.241-7.184
	c-10.178-10.178-10.917-26.228-2.229-37.272l15.846,3.057L58.826,470.201z"/>
<polygon style="fill:#EFBB6A;" points="107.438,459.691 77.866,489.261 58.826,470.202 0,411.376 29.561,381.815 "/>
<polygon style="fill:#D89F55;" points="55.195,407.449 25.625,437.019 6.584,417.961 0,411.376 29.561,381.815 "/>
<polygon style="fill:#EFBB6A;" points="204.867,417.6 71.661,284.393 101.223,254.832 234.421,388.03 "/>
<polygon style="fill:#D89F55;" points="104.889,317.62 71.661,284.393 101.223,254.832 134.441,288.05 "/>
<g>
</g>
<g>
</g>
<g>
</g>
<g>
</g>
<g>
</g>
<g>
</g>
<g>
</g>
<g>
</g>
<g>
</g>
<g>
</g>
<g>
</g>
<g>
</g>
<g>
</g>
<g>
</g>
<g>
</g>
</svg>
