<?xml version="1.0" encoding="iso-8859-1"?>
<!-- Generator: Adobe Illustrator 19.0.0, SVG Export Plug-In . SVG Version: 6.00 Build 0)  -->
<svg version="1.1" id="Layer_1" xmlns="http://www.w3.org/2000/svg" xmlns:xlink="http://www.w3.org/1999/xlink" x="0px" y="0px"
	 viewBox="0 0 512 512" style="enable-background:new 0 0 512 512;" xml:space="preserve">
<path style="fill:#D89F55;" d="M316.354,198.935l27.435,58.004l-0.036,0.144c-12.091-3.66-24.912-5.621-38.199-5.621
	c-5.178,0-10.285,0.299-15.308,0.885l-0.407-3.337L316.354,198.935z"/>
<path style="fill:#EFBB6A;" d="M437.611,379.943v64.354c0,5.047-4.162,9.113-9.245,8.97c-2.464-0.072-4.628-1.184-6.195-2.894
	c-1.555-1.698-2.5-3.994-2.5-6.458c0-20.307-16.468-36.776-36.776-36.776h-27.244c-5.143,0-9.855,2.846-12.259,7.391l-14.985,28.428
	c-2.595,4.915-1.997,10.895,1.507,15.201l32.303,39.724c4.6,5.657,0.574,14.118-6.716,14.118H173.485V264.689
	c0.06,0.024,0.132,0.06,0.215,0.084c8.348,2.87,104.419-7.116,104.287-14.005c3.887-0.837,7.845-1.483,11.864-1.961
	c0.132-0.012,0.263-0.036,0.395-0.048c5.023-0.586,10.13-0.885,15.308-0.885c13.287,0,26.108,1.961,38.199,5.621
	C398.061,269.867,437.611,320.289,437.611,379.943z"/>
<g>
	<path style="fill:#D89F55;" d="M285.247,339.807c0.514,0.191,1.029,0.371,1.555,0.538c6.805,2.177,10.213,9.771,7.319,16.313
		c-2.177,4.951-5.155,10.883-8.982,16.839c-15.248,15.248-19.028,26.335-26.813,26.335c-16.444,0-23.13-20.905-23.13-4.473
		c0,2.99,0.443,5.884,1.268,8.611c-8.695-0.347-18.394-3.098-29.181-9.197c-7.678-0.036-15.105-1.782-21.838-4.927
		c-4.317-2.021-8.336-4.604-11.96-7.69V264.689c0.06,0.024,0.132,0.06,0.215,0.084c8.348,2.87,104.419-7.116,104.287-14.005
		c3.887-0.837,7.845-1.483,11.864-1.961c0.132-0.012,0.263-0.036,0.395-0.048c5.023-0.586,10.13-0.885,15.308-0.885
		c0.036,1.734-0.347,3.959-0.993,6.41c-3.169,12.079-10.572,22.627-20.546,30.162l-5.43,4.09
		C260.168,302.433,263.684,331.638,285.247,339.807z"/>
	<path style="fill:#D89F55;" d="M173.485,264.689V512h44.25V262.691C196.155,264.939,176.382,266.042,173.485,264.689z"/>
</g>
<path style="fill:#D88948;" d="M433.569,363.056H251.15c-4.954,0-8.97-4.016-8.97-8.97s4.016-8.97,8.97-8.97h182.419
	c4.954,0,8.97,4.016,8.97,8.97S438.523,363.056,433.569,363.056z"/>
<path style="fill:#E6E6E6;" d="M274.842,340.345L274.842,340.345c6.809,2.177,10.209,9.77,7.324,16.309
	c-2.184,4.95-5.157,10.881-8.986,16.843c-5.298-4.903-12.39-7.893-20.176-7.893c-16.444,0-29.767,13.323-29.767,29.755
	c0,2.99,0.443,5.884,1.268,8.611c-8.695-0.347-18.394-3.098-29.181-9.197c-7.678-0.036-15.105-1.782-21.838-4.927
	c-10.07-4.7-18.561-12.522-24.003-22.508c-11.732-7.439-20.535-19.446-23.465-34.145c-1.459-7.295-1.328-14.543,0.144-21.372
	c-14.196-6.984-25.091-20.224-28.452-36.943c-1.842-9.257-1.136-18.43,1.626-26.789c-13.155-9.651-22.879-24.051-26.335-41.32
	c-3.241-16.217-0.395-32.255,6.949-45.709c-4.317-6.829-7.475-14.531-9.161-22.938c-3.851-19.231,0.885-38.211,11.529-52.957
	c-3.349-6.004-5.86-12.617-7.271-19.733C67.296,26.682,95.222,0,95.222,0s13.837,125.42,165.185,219.745
	c11.122,6.925,17.329,18.788,17.581,31.023c0.132,6.949-1.626,14.017-5.489,20.379l-14.555,23.943
	C247.61,312.096,255.898,334.281,274.842,340.345z"/>
<path style="fill:#B3B3B3;" d="M223.255,394.653c-6.55-0.433-12.871-2.098-18.675-4.809c-10.07-4.7-18.561-12.522-24.003-22.508
	c-11.732-7.439-20.535-19.446-23.465-34.144c-1.459-7.295-1.328-14.543,0.144-21.372c-14.196-6.984-25.091-20.224-28.452-36.943
	c-1.842-9.257-1.136-18.43,1.626-26.789c-13.156-9.651-22.879-24.051-26.335-41.32c-3.241-16.217-0.395-32.255,6.948-45.709
	c-4.317-6.829-7.475-14.531-9.161-22.938c-3.851-19.231,0.885-38.211,11.529-52.957c-3.349-6.004-5.86-12.617-7.271-19.733
	c-1.848-9.239-1.653-17.78-0.307-25.449C96.955,15.628,95.222,0,95.222,0S67.296,26.682,75.046,65.431
	c1.411,7.116,3.923,13.73,7.271,19.733c-10.644,14.746-15.38,33.726-11.529,52.957c1.686,8.408,4.844,16.109,9.161,22.938
	c-7.343,13.454-10.19,29.492-6.948,45.709c3.456,17.27,13.179,31.669,26.335,41.32c-2.763,8.36-3.468,17.533-1.627,26.789
	c3.361,16.719,14.256,29.959,28.452,36.943c-1.471,6.829-1.603,14.076-0.144,21.372c2.93,14.698,11.732,26.706,23.465,34.145
	c5.442,9.986,13.933,17.808,24.003,22.508c6.733,3.145,14.16,4.891,21.838,4.927c10.788,6.099,20.487,8.85,29.181,9.197
	c-0.825-2.727-1.268-5.621-1.268-8.611C223.237,395.122,223.249,394.889,223.255,394.653z"/>
<path style="fill:#F97C64;" d="M273.18,373.497c5.896,5.43,9.58,13.215,9.58,21.862c0,16.432-13.323,29.755-29.755,29.755
	c-13.443,0-24.804-8.91-28.5-21.144c-0.825-2.727-1.268-5.621-1.268-8.611c0-16.432,13.323-29.755,29.767-29.755
	C260.79,365.603,267.882,368.593,273.18,373.497z"/>
<g>
</g>
<g>
</g>
<g>
</g>
<g>
</g>
<g>
</g>
<g>
</g>
<g>
</g>
<g>
</g>
<g>
</g>
<g>
</g>
<g>
</g>
<g>
</g>
<g>
</g>
<g>
</g>
<g>
</g>
</svg>
