<?xml version="1.0" encoding="iso-8859-1"?>
<!-- Generator: Adobe Illustrator 19.0.0, SVG Export Plug-In . SVG Version: 6.00 Build 0)  -->
<svg version="1.1" id="Layer_1" xmlns="http://www.w3.org/2000/svg" xmlns:xlink="http://www.w3.org/1999/xlink" x="0px" y="0px"
	 viewBox="0 0 512 512" style="enable-background:new 0 0 512 512;" xml:space="preserve">
<polyline style="fill:#D88948;" points="298.563,212.219 298.563,464.053 213.436,464.053 213.436,212.219 "/>
<polyline style="fill:#C4783F;" points="245.347,212.219 245.347,464.053 213.436,464.053 213.436,212.219 "/>
<rect x="201.541" y="462.041" style="fill:#EFBB6A;" width="108.93" height="49.959"/>
<rect x="201.541" y="462.041" style="fill:#D89F55;" width="33.736" height="49.959"/>
<polygon style="fill:#E6E6E6;" points="463.158,26.293 424.627,0.003 87.373,0.003 48.842,26.293 48.842,187.943 87.373,214.233 
	424.627,214.233 463.158,187.943 "/>
<polygon style="fill:#999999;" points="87.373,0.003 48.842,26.293 48.842,187.943 87.373,214.233 "/>
<rect x="87.374" style="fill:#CCCCCC;" width="337.251" height="214.233"/>
<g>
	<polygon style="fill:#E6E6E6;" points="317.378,0 103.145,214.233 87.378,214.233 87.378,191.55 278.915,0 	"/>
	<polygon style="fill:#E6E6E6;" points="424.629,0 424.629,33.561 243.957,214.233 145.382,214.233 359.615,0 	"/>
</g>
<g>
</g>
<g>
</g>
<g>
</g>
<g>
</g>
<g>
</g>
<g>
</g>
<g>
</g>
<g>
</g>
<g>
</g>
<g>
</g>
<g>
</g>
<g>
</g>
<g>
</g>
<g>
</g>
<g>
</g>
</svg>
