<?xml version="1.0" encoding="iso-8859-1"?>
<!-- Generator: Adobe Illustrator 19.0.0, SVG Export Plug-In . SVG Version: 6.00 Build 0)  -->
<svg version="1.1" id="Layer_1" xmlns="http://www.w3.org/2000/svg" xmlns:xlink="http://www.w3.org/1999/xlink" x="0px" y="0px"
	 viewBox="0 0 512 512" style="enable-background:new 0 0 512 512;" xml:space="preserve">
<path style="fill:#B3B3B3;" d="M324.677,111.228l13.769,217.273H173.554l13.769-217.273c23.483,2.537,46.645,9.115,68.677,19.645
	C278.02,120.328,301.182,113.765,324.677,111.228z"/>
<path style="fill:#CCCCCC;" d="M408.702,132.17l-12.922-2.733c-16.194-3.426-32.606-5.133-48.993-5.133
	c-7.378,0-14.757,0.346-22.11,1.039c-7.763,0.731-15.488,1.835-23.136,3.336c-15.54,3.016-30.797,7.609-45.541,13.756
	c-15.783-6.57-32.157-11.369-48.813-14.359c-6.583-1.193-13.204-2.104-19.864-2.733c-12.691-1.193-25.472-1.36-38.227-0.488
	c-11.01,0.757-21.994,2.271-32.876,4.581l-12.447,2.631l-0.475,0.103L123.984,0h264.02l5.71,36.507L408.702,132.17z"/>
<g>
	<path style="fill:#E6E6E6;" d="M393.714,36.507l-92.173,92.173c-15.54,3.016-30.797,7.609-45.541,13.756
		c-15.783-6.57-32.157-11.369-48.813-14.359L335.264,0h52.74L393.714,36.507z"/>
	<path style="fill:#E6E6E6;" d="M273.939,0L149.096,124.856c-11.01,0.757-21.994,2.271-32.876,4.581l-12.447,2.631L235.828,0
		H273.939z"/>
</g>
<path style="fill:#CCCCCC;" d="M456.822,314.386v137.303c-65.7,0-130.169,17.875-186.489,51.7L256,512l-12.203-7.34l-2.13-1.27
	c-19.749-11.857-40.498-21.75-61.953-29.604c-16.592-6.082-33.62-10.946-50.918-14.526c-15.18-3.157-30.566-5.338-46.08-6.532
	c-9.149-0.693-18.324-1.039-27.538-1.039V314.386H456.822z"/>
<g>
	<path style="fill:#E6E6E6;" d="M273.67,314.386L128.796,459.26c-15.18-3.157-30.566-5.338-46.08-6.532l138.343-138.343H273.67z"/>
	<path style="fill:#E6E6E6;" d="M434.071,314.386L243.797,504.66l-2.13-1.27c-19.749-11.857-40.498-21.75-61.953-29.604l159.4-159.4
		H434.071z"/>
</g>
<path style="fill:#B3B3B3;" d="M420.578,370.324c-16.556-16.556-43.42-16.679-60.126-0.362l-5.932,4.844
	c-1.786-2.71-3.855-5.261-6.203-7.608c-15.74-15.739-41.348-15.737-57.085,0c-13.34,13.34-13.34,35.048,0,48.39
	c3.759,3.759,9.852,3.759,13.611,0c3.759-3.758,3.759-9.852,0-13.611c-5.836-5.836-5.837-15.333,0-21.17
	c8.233-8.233,21.63-8.234,29.864,0c11.229,11.229,11.229,29.504,0,40.733c-14.976,14.976-39.343,14.976-54.319,0
	c-19.657-19.657-19.657-51.644,0-71.301c3.759-3.759,3.759-9.852,0-13.61c-3.759-3.759-9.852-3.759-13.61,0
	c-4.263,4.263-7.856,8.947-10.78,13.918c-2.924-4.971-6.517-9.655-10.78-13.918c-3.757-3.759-9.851-3.759-13.61,0
	c-3.759,3.758-3.759,9.851,0,13.61c19.657,19.657,19.657,51.644,0,71.301c-14.976,14.976-39.343,14.976-54.319,0
	c-11.229-11.229-11.229-29.504,0-40.733c8.234-8.234,21.631-8.233,29.864,0c5.836,5.836,5.836,15.333,0,21.17
	c-3.759,3.758-3.757,9.852,0,13.611c3.76,3.759,9.851,3.757,13.611,0c13.34-13.342,13.34-35.05,0-48.39
	c-15.737-15.739-41.346-15.739-57.085,0c-2.348,2.348-4.417,4.899-6.203,7.608l-5.931-4.844
	c-16.707-16.316-43.57-16.195-60.127,0.362c-14.093,14.092-14.093,37.024,0,51.117c6.013,6.013,13.909,9.02,21.808,9.018
	c7.897,0,15.796-3.007,21.807-9.018c7.575-7.573,9.868-18.884,5.842-28.812c-1.998-4.926-7.608-7.299-12.536-5.302
	c-4.925,1.998-7.299,7.609-5.302,12.536c1.114,2.746,0.48,5.873-1.616,7.967c-2.19,2.189-5.101,3.395-8.197,3.395
	s-6.008-1.206-8.197-3.395c-6.588-6.588-6.588-17.308,0-23.897c9.174-9.174,24.1-9.172,33.272,0
	c0.228,0.228,0.468,0.445,0.719,0.649l11.168,9.12c-0.38,2.45-0.581,4.945-0.581,7.471c0,12.835,4.998,24.902,14.073,33.977
	c11.24,11.241,26.005,16.861,40.77,16.861s29.53-5.62,40.77-16.861c4.263-4.263,7.856-8.947,10.78-13.918
	c2.924,4.971,6.517,9.654,10.78,13.918c11.24,11.241,26.005,16.861,40.77,16.861s29.53-5.62,40.77-16.861
	c9.076-9.075,14.073-21.142,14.073-33.977c0-2.527-0.2-5.021-0.581-7.471l11.168-9.12c0.25-0.204,0.49-0.421,0.719-0.649
	c9.172-9.174,24.1-9.172,33.272,0c6.588,6.588,6.588,17.308,0,23.897c-4.519,4.519-11.874,4.519-16.396,0
	c-2.094-2.094-2.728-5.221-1.614-7.966c1.998-4.925-0.376-10.538-5.302-12.536c-4.924-1.999-10.538,0.376-12.536,5.302
	c-4.025,9.928-1.732,21.237,5.842,28.811c5.826,5.826,13.57,9.034,21.808,9.034c8.238,0,15.982-3.208,21.808-9.034
	C434.671,407.348,434.671,384.417,420.578,370.324z"/>
<path style="fill:#999999;" d="M235.869,172.978c-4.532-2.777-10.456-1.355-13.235,3.176c-2.778,4.532-1.355,10.457,3.176,13.235
	c13.851,8.49,17.838,29.942,20.471,48.797c-0.123,0.91-0.246,1.813-0.366,2.699c-1.091,8.102-2.583,19.184-4.48,21.72
	c-4.643,4.564-12.137,4.541-16.746-0.062c-2.959-2.963-2.962-7.779-0.004-10.737c3.759-3.759,3.759-9.852,0-13.61
	c-3.759-3.759-9.852-3.759-13.61,0c-10.458,10.458-10.459,27.482,0.003,37.956c6.07,6.064,14.04,9.097,22.013,9.095
	c7.973,0,15.95-3.034,22.022-9.101c0.308-0.308,0.595-0.636,0.88-0.968c0.287,0.332,0.575,0.662,0.884,0.971
	c6.068,6.063,14.04,9.095,22.012,9.095c7.975,0,15.952-3.035,22.025-9.103c10.456-10.467,10.454-27.491-0.004-37.95
	c-3.759-3.759-9.852-3.759-13.61,0c-3.759,3.759-3.759,9.852,0,13.61c2.958,2.958,2.955,7.774,0.003,10.729
	c-4.617,4.612-12.113,4.634-16.752,0.069c-1.897-2.536-3.389-13.617-4.48-21.721c-0.119-0.885-0.241-1.789-0.366-2.699
	c2.633-18.854,6.62-40.307,20.471-48.797c4.531-2.778,5.954-8.703,3.176-13.235c-2.778-4.531-8.703-5.955-13.235-3.176
	c-9.518,5.833-15.804,14.602-20.127,24.482C251.673,187.579,245.387,178.811,235.869,172.978z"/>
<g>
	<path style="fill:#B3B3B3;" d="M169.951,60.806l15.407-12.582c0.25-0.204,0.49-0.421,0.719-0.649
		c4.444-4.444,10.352-6.891,16.637-6.891s12.193,2.447,16.637,6.891c6.588,6.588,6.588,17.308,0,23.896
		c-2.19,2.189-5.101,3.395-8.197,3.395s-6.008-1.206-8.198-3.395c-2.094-2.094-2.728-5.221-1.614-7.966
		c1.998-4.925-0.376-10.538-5.302-12.536c-4.926-1.998-10.538,0.377-12.536,5.302c-4.025,9.928-1.732,21.237,5.842,28.811
		c6.013,6.013,13.91,9.018,21.808,9.018s15.795-3.007,21.808-9.018c14.092-14.092,14.092-37.024,0-51.117
		c-8.079-8.079-18.821-12.529-30.246-12.529c-11.254,0-21.844,4.317-29.881,12.167l-15.056,12.294
		c-4.117,3.362-4.73,9.424-1.367,13.542C159.771,63.556,165.834,64.168,169.951,60.806z"/>
	<path style="fill:#B3B3B3;" d="M300.839,94.101c7.897,0,15.796-3.007,21.807-9.018c7.575-7.573,9.868-18.884,5.842-28.812
		c-1.998-4.925-7.608-7.3-12.536-5.302c-4.925,1.998-7.299,7.609-5.302,12.536c1.114,2.746,0.48,5.873-1.616,7.967
		c-2.19,2.189-5.101,3.395-8.197,3.395s-6.008-1.206-8.197-3.395c-6.588-6.588-6.588-17.308,0-23.896
		c4.444-4.444,10.352-6.891,16.637-6.891c6.285,0,12.192,2.447,16.637,6.891c0.228,0.228,0.468,0.445,0.719,0.649l15.407,12.582
		c4.118,3.363,10.18,2.75,13.542-1.367s2.75-10.18-1.367-13.542L339.16,33.605c-8.037-7.851-18.627-12.167-29.881-12.167
		c-11.426,0-22.167,4.449-30.246,12.529c-14.092,14.092-14.092,37.024,0,51.117C285.045,91.095,292.941,94.101,300.839,94.101z"/>
</g>
<g>
</g>
<g>
</g>
<g>
</g>
<g>
</g>
<g>
</g>
<g>
</g>
<g>
</g>
<g>
</g>
<g>
</g>
<g>
</g>
<g>
</g>
<g>
</g>
<g>
</g>
<g>
</g>
<g>
</g>
</svg>
