<?xml version="1.0" encoding="iso-8859-1"?>
<!-- Generator: Adobe Illustrator 19.0.0, SVG Export Plug-In . SVG Version: 6.00 Build 0)  -->
<svg version="1.1" id="Layer_1" xmlns="http://www.w3.org/2000/svg" xmlns:xlink="http://www.w3.org/1999/xlink" x="0px" y="0px"
	 viewBox="0 0 512 512" style="enable-background:new 0 0 512 512;" xml:space="preserve">
<polygon style="fill:#D88948;" points="276.683,255.326 235.317,255.326 70.157,90.167 57.068,77.064 77.744,56.388 90.834,69.477 
	90.834,69.49 "/>
<polygon style="fill:#EFBB6A;" points="512,434.491 459.654,438.316 396.293,400.939 361.709,340.359 414.043,336.546 "/>
<polygon style="fill:#D89F55;" points="341.033,361.036 396.293,400.939 438.977,458.98 435.164,511.326 337.207,413.382 "/>
<polygon style="fill:#D88948;" points="459.654,438.316 438.99,458.98 438.977,458.98 341.033,361.036 245.217,265.206 
	276.677,255.326 361.697,340.359 "/>
<polygon style="fill:#C4783F;" points="57.068,77.058 66.955,67.183 245.217,245.433 265.881,266.11 350.926,351.155 
	448.87,449.099 438.99,458.98 341.039,361.029 256.006,275.997 235.33,255.32 "/>
<polygon style="fill:#DD6352;" points="150.291,340.359 109.597,400.826 52.346,438.316 0,434.491 97.944,336.546 "/>
<polygon style="fill:#F97C64;" points="170.955,361.036 174.78,413.382 76.836,511.326 73.01,458.98 119.483,390.941 "/>
<polygon style="fill:#D88948;" points="434.262,56.388 454.926,77.064 276.677,255.326 256,275.99 170.955,361.036 73.01,458.98 
	52.346,438.316 150.291,340.359 235.323,255.326 256,234.65 "/>
<polygon style="fill:#C4783F;" points="434.268,56.394 444.143,66.28 265.894,244.542 245.217,265.206 160.172,350.251 
	62.227,448.196 52.346,438.316 150.297,340.365 235.33,255.333 256.006,234.656 "/>
<polygon style="fill:#CCCCCC;" points="510.652,0.674 483.951,108.772 453.578,78.411 432.914,57.735 402.553,27.374 "/>
<polygon style="fill:#E6E6E6;" points="510.652,0.674 443.252,68.073 483.951,108.759 "/>
<polygon style="fill:#C4783F;" points="90.834,69.477 90.834,69.49 70.157,90.167 57.068,77.064 77.744,56.388 "/>
<polygon style="fill:#CCCCCC;" points="109.434,27.374 79.086,57.735 58.41,78.411 28.049,108.772 1.348,0.674 "/>
<polygon style="fill:#E6E6E6;" points="1.348,0.674 68.748,68.073 109.434,27.374 "/>
<g>
</g>
<g>
</g>
<g>
</g>
<g>
</g>
<g>
</g>
<g>
</g>
<g>
</g>
<g>
</g>
<g>
</g>
<g>
</g>
<g>
</g>
<g>
</g>
<g>
</g>
<g>
</g>
<g>
</g>
</svg>
