<?xml version="1.0" encoding="iso-8859-1"?>
<!-- Generator: Adobe Illustrator 19.0.0, SVG Export Plug-In . SVG Version: 6.00 Build 0)  -->
<svg version="1.1" id="Capa_1" xmlns="http://www.w3.org/2000/svg" xmlns:xlink="http://www.w3.org/1999/xlink" x="0px" y="0px"
	 viewBox="0 0 295.2 295.2" style="enable-background:new 0 0 295.2 295.2;" xml:space="preserve">
<g>
	<path style="fill:#E5E5E5;" d="M250.4,214.8V288c0,1.2-0.8,2-2,2h-29.2c-1.2,0-2-0.8-2-2v-73.2c0-1.2,0.8-2,2-2h29.2
		C249.2,212.4,250.4,213.6,250.4,214.8z M250.4,108v33.2c0,1.2-0.8,2-2,2h-29.2c-1.2,0-2-0.8-2-2V108c0-1.2,0.8-2,2-2h29.2
		C249.2,106,250.4,107.2,250.4,108z M78.4,214.8V288c0,1.2-0.8,2-2,2H47.2c-1.2,0-2-0.8-2-2v-73.2c0-1.2,0.8-2,2-2h29.2
		C77.6,212.4,78.4,213.6,78.4,214.8z M78.4,108v33.2c0,1.2-0.8,2-2,2H47.2c-1.2,0-2-0.8-2-2V108c0-1.2,0.8-2,2-2h29.2
		C77.6,106,78.4,107.2,78.4,108z M58.8,5.2h5.6c4,0,7.2,1.6,10,4l0,0l0,0l0,0c2.4,2.4,4,6,4,10v15.6c0,1.2-0.8,2-2,2H47.2
		c-1.2,0-2-0.8-2-2V19.2c0-4,1.6-7.2,4-10C51.6,6.8,55.2,5.2,58.8,5.2z M230.8,5.2h5.6c4,0,7.2,1.6,10,4l0,0l0,0l0,0
		c2.4,2.4,4,6,4,10v15.6c0,1.2-0.8,2-2,2h-29.2c-1.2,0-2-0.8-2-2V19.2c0-4,1.6-7.2,4-10C223.2,6.8,226.8,5.2,230.8,5.2z"/>
	<g>
		<path style="fill:#F05F61;" d="M12,34.8h271.2c6.4,0,12,5.2,12,12v49.6c0,6.4-5.2,12-12,12H12c-6.4,0-12-5.2-12-12V46.8
			C0,40.4,5.6,34.8,12,34.8z"/>
		<path style="fill:#F05F61;" d="M12,141.2h271.2c6.4,0,12,5.2,12,12v49.6c0,6.4-5.2,12-12,12H12c-6.4,0-12-5.2-12-12v-49.6
			C0,146.8,5.6,141.2,12,141.2z"/>
	</g>
	<g>
		<polygon style="fill:#FFCC03;" points="139.2,141.2 66,214.8 156,214.8 229.2,141.2 		"/>
		<polygon style="fill:#FFCC03;" points="139.2,34.8 66,108 156,108 229.2,34.8 		"/>
	</g>
</g>
<g>
</g>
<g>
</g>
<g>
</g>
<g>
</g>
<g>
</g>
<g>
</g>
<g>
</g>
<g>
</g>
<g>
</g>
<g>
</g>
<g>
</g>
<g>
</g>
<g>
</g>
<g>
</g>
<g>
</g>
</svg>
