<?xml version="1.0" encoding="iso-8859-1"?>
<!-- Generator: Adobe Illustrator 19.0.0, SVG Export Plug-In . SVG Version: 6.00 Build 0)  -->
<svg version="1.1" id="Layer_1" xmlns="http://www.w3.org/2000/svg" xmlns:xlink="http://www.w3.org/1999/xlink" x="0px" y="0px"
	 viewBox="0 0 512 512" style="enable-background:new 0 0 512 512;" xml:space="preserve">
<polygon style="fill:#D88948;" points="154.142,45.076 154.141,45.076 154.141,0 103.662,0 103.662,45.076 103.66,45.076 
	54.982,45.076 54.982,95.546 103.66,95.546 103.662,95.546 103.662,512 154.141,512 154.141,95.546 154.142,95.546 457.018,95.546 
	457.018,45.076 "/>
<polyline style="fill:#C4783F;" points="161.302,95.546 186.467,95.546 186.467,45.076 161.302,45.076 157.107,45.076 
	153.063,45.076 153.063,95.546 157.107,95.546 "/>
<rect x="190.194" y="131.011" style="fill:#F97C64;" width="254.198" height="254.198"/>
<rect x="231.661" y="172.478" style="fill:#EFBB6A;" width="171.264" height="171.264"/>
<rect x="251.397" y="192.202" style="fill:#D19B54;" width="131.816" height="131.816"/>
<g>
	<path style="fill:#808080;" d="M402.93,158.648c-3.982,0-7.212-3.228-7.212-7.212V77.521c0-3.983,3.23-7.212,7.212-7.212
		c3.982,0,7.212,3.228,7.212,7.212v73.916C410.141,155.42,406.913,158.648,402.93,158.648z"/>
	<path style="fill:#808080;" d="M231.662,158.648c-3.982,0-7.212-3.228-7.212-7.212V77.521c0-3.983,3.23-7.212,7.212-7.212
		s7.212,3.228,7.212,7.212v73.916C238.874,155.42,235.644,158.648,231.662,158.648z"/>
	<path style="fill:#808080;" d="M288.75,158.648c-3.982,0-7.212-3.228-7.212-7.212V77.521c0-3.983,3.23-7.212,7.212-7.212
		s7.212,3.228,7.212,7.212v73.916C295.962,155.42,292.734,158.648,288.75,158.648z"/>
	<path style="fill:#808080;" d="M345.84,158.648c-3.982,0-7.212-3.228-7.212-7.212V77.521c0-3.983,3.23-7.212,7.212-7.212
		c3.982,0,7.212,3.228,7.212,7.212v73.916C353.052,155.42,349.823,158.648,345.84,158.648z"/>
	<path style="fill:#808080;" d="M402.93,392.412c-3.982,0-7.212-3.228-7.212-7.212v-21.034c0-3.983,3.23-7.212,7.212-7.212
		c3.982,0,7.212,3.228,7.212,7.212V385.2C410.141,389.182,406.913,392.412,402.93,392.412z"/>
	<path style="fill:#808080;" d="M231.667,392.412c-3.982,0-7.212-3.228-7.212-7.212v-21.034c0-3.983,3.23-7.212,7.212-7.212
		s7.212,3.228,7.212,7.212V385.2C238.878,389.182,235.649,392.412,231.667,392.412z"/>
	<path style="fill:#808080;" d="M288.746,392.412c-3.982,0-7.212-3.228-7.212-7.212v-21.034c0-3.983,3.23-7.212,7.212-7.212
		s7.212,3.228,7.212,7.212V385.2C295.957,389.182,292.729,392.412,288.746,392.412z"/>
	<path style="fill:#808080;" d="M345.838,392.412c-3.982,0-7.212-3.228-7.212-7.212v-21.034c0-3.983,3.23-7.212,7.212-7.212
		s7.212,3.228,7.212,7.212V385.2C353.049,389.182,349.821,392.412,345.838,392.412z"/>
	<path style="fill:#808080;" d="M444.394,350.948H423.36c-3.982,0-7.212-3.228-7.212-7.212s3.23-7.212,7.212-7.212h21.034
		c3.982,0,7.212,3.228,7.212,7.212S448.376,350.948,444.394,350.948z"/>
	<path style="fill:#808080;" d="M444.394,179.684H423.36c-3.982,0-7.212-3.228-7.212-7.212s3.23-7.212,7.212-7.212h21.034
		c3.982,0,7.212,3.228,7.212,7.212S448.376,179.684,444.394,179.684z"/>
	<path style="fill:#808080;" d="M444.394,236.764H423.36c-3.982,0-7.212-3.228-7.212-7.212s3.23-7.212,7.212-7.212h21.034
		c3.982,0,7.212,3.228,7.212,7.212S448.376,236.764,444.394,236.764z"/>
	<path style="fill:#808080;" d="M444.394,293.856H423.36c-3.982,0-7.212-3.228-7.212-7.212s3.23-7.212,7.212-7.212h21.034
		c3.982,0,7.212,3.228,7.212,7.212S448.376,293.856,444.394,293.856z"/>
	<path style="fill:#808080;" d="M206.423,346.743h-73.916c-3.982,0-7.212-3.228-7.212-7.212s3.23-7.212,7.212-7.212h73.916
		c3.982,0,7.212,3.228,7.212,7.212S210.406,346.743,206.423,346.743z"/>
	<path style="fill:#808080;" d="M206.423,183.888h-73.916c-3.982,0-7.212-3.228-7.212-7.212s3.23-7.212,7.212-7.212h73.916
		c3.982,0,7.212,3.228,7.212,7.212S210.406,183.888,206.423,183.888z"/>
	<path style="fill:#808080;" d="M206.423,238.173h-73.916c-3.982,0-7.212-3.228-7.212-7.212s3.23-7.212,7.212-7.212h73.916
		c3.982,0,7.212,3.228,7.212,7.212S210.406,238.173,206.423,238.173z"/>
	<path style="fill:#808080;" d="M206.423,292.458h-73.916c-3.982,0-7.212-3.228-7.212-7.212s3.23-7.212,7.212-7.212h73.916
		c3.982,0,7.212,3.228,7.212,7.212S210.406,292.458,206.423,292.458z"/>
</g>
<g>
</g>
<g>
</g>
<g>
</g>
<g>
</g>
<g>
</g>
<g>
</g>
<g>
</g>
<g>
</g>
<g>
</g>
<g>
</g>
<g>
</g>
<g>
</g>
<g>
</g>
<g>
</g>
<g>
</g>
</svg>
