<?xml version="1.0" encoding="iso-8859-1"?>
<!-- Generator: Adobe Illustrator 19.0.0, SVG Export Plug-In . SVG Version: 6.00 Build 0)  -->
<svg version="1.1" id="Layer_1" xmlns="http://www.w3.org/2000/svg" xmlns:xlink="http://www.w3.org/1999/xlink" x="0px" y="0px"
	 viewBox="0 0 512 512" style="enable-background:new 0 0 512 512;" xml:space="preserve">
<path style="fill:#EFBB6A;" d="M155.232,25.654c25.074,22.397,32.844,58.38,19.377,89.163
	c-14.864,33.945-36.575,64.669-53.37,85.752c-16.949,21.272-11.276,52.695,12.223,66.398c16.582,9.677,30.534,11.667,30.534,11.667
	l1.007,1.398c-28.746,20.692-55.064,44.771-63.556,75.791l-0.746-0.213c-8.03-4.584-15.089-9.89-21.32-15.682
	C33.972,297.81,29.613,227.562,67.739,178.74c17.435-22.326,38.446-45.221,56.094-63.485c26.294-27.194,28.343-69.691,4.678-99.195
	C120.777,6.455,114.737,0,114.737,0C128.405,4.157,142.76,14.509,155.232,25.654z"/>
<path style="fill:#D19B54;" d="M88.196,201.33c13.726-24.779,46.64-66.424,61.212-87.225c21.714-30.974,17.088-73.268-10.903-98.705
	c-5.003-4.529-9.347-8.197-12.265-10.598c-3.851-1.998-7.705-3.646-11.504-4.802c0,0,6.041,6.455,13.775,16.061
	c23.665,29.504,21.616,72.001-4.678,99.195c-17.648,18.264-38.659,41.159-56.094,63.485
	C29.613,227.562,33.972,297.81,79.382,339.928c6.23,5.792,13.289,11.098,21.32,15.682l0.746,0.213
	c3.239-11.832,9.077-22.652,16.649-32.661C78.932,303.4,63.165,246.52,88.196,201.33z"/>
<path style="fill:#EFBB6A;" d="M444.266,178.74c38.115,48.822,33.768,119.069-11.643,161.187
	c-6.42,5.958-13.704,11.406-22.018,16.061c-8.445-31.103-34.81-55.241-63.615-75.957l1.007-1.398c0,0,13.964-1.99,30.546-11.667
	c23.499-13.704,29.16-45.126,12.211-66.398c-16.795-21.083-38.494-51.806-53.358-85.752c-13.479-30.783-5.697-66.766,19.365-89.163
	C369.245,14.509,383.588,4.157,397.256,0c0,0-6.052,6.455-13.763,16.061c-23.665,29.504-21.616,72.001,4.667,99.195
	C405.819,133.519,426.831,156.414,444.266,178.74z"/>
<path style="fill:#D19B54;" d="M390.754,200.569c16.949,21.272,11.287,52.695-12.211,66.398
	c-16.582,9.677-30.546,11.667-30.546,11.667l-1.007,1.398c10.773,7.747,21.205,15.975,30.486,24.866
	c8.235-5.515,13.377-8.162,27.686-20.962c20.281-18.13,29.096-32.65,16.473-72.515c-8.137-25.697-38.717-52.42-60.075-82.703
	c-19.368-27.462-18.946-64.275,1.126-91.234c7.638-10.249,16.434-20.251,25.758-27.443C393.639,3.861,397.256,0,397.256,0
	c-13.668,4.157-28.011,14.509-40.495,25.654c-25.062,22.397-32.844,58.38-19.365,89.163
	C352.26,148.763,373.959,179.487,390.754,200.569z"/>
<path style="fill:#CCCCCC;" d="M413.565,355.989c1.824,6.716,2.819,13.763,2.819,21.166H225.379l30.623-181.37
	c0,28.698,49.84,52.482,93.948,84.248C378.755,300.747,405.121,324.886,413.565,355.989z"/>
<path style="fill:#B3B3B3;" d="M256.002,195.784v181.37H95.62c0-7.462,1.007-14.568,2.866-21.331
	c8.492-31.02,34.81-55.099,63.556-75.791C206.15,248.266,256.002,224.483,256.002,195.784z"/>
<path style="fill:#999999;" d="M199.737,280.032c25.954-31.214,55.209-54.725,56.217-82.761
	c-1.681,28.038-50.569,51.545-93.911,82.761c-28.746,20.692-55.064,44.771-63.556,75.791c-1.86,6.763-2.866,13.87-2.866,21.331
	h64.341c0-7.462,0.603-14.568,1.716-21.331C166.764,324.803,182.524,300.724,199.737,280.032z"/>
<rect x="224.222" y="457.967" style="fill:#C4783F;" width="63.556" height="54.033"/>
<path style="fill:#D88948;" d="M430.029,381.584v81.808c0,3.428-2.779,6.206-6.206,6.206H287.78h-63.556H88.17
	c-3.428,0-6.206-2.779-6.206-6.206v-81.808c0-3.428,2.779-6.206,6.206-6.206h7.45h160.382h160.382h7.438
	C427.25,375.377,430.029,378.156,430.029,381.584z"/>
<path style="fill:#C4783F;" d="M169.54,375.377v94.22h-35.791h-15.991H88.172c-3.428,0-6.206-2.779-6.206-6.206v-81.808
	c0-3.428,2.779-6.206,6.206-6.206h37.583h40.353H169.54z"/>
<g>
	<path style="fill:#EFBB6A;" d="M238.935,415.375c-4.903,0-8.883,3.98-8.883,8.883s3.98,8.883,8.883,8.883
		c4.915,0,8.883-3.98,8.883-8.883S243.85,415.375,238.935,415.375z"/>
	<circle style="fill:#EFBB6A;" cx="204.821" cy="424.258" r="8.883"/>
	<path style="fill:#EFBB6A;" d="M136.589,415.375c-4.915,0-8.883,3.98-8.883,8.883s3.968,8.883,8.883,8.883
		c4.903,0,8.883-3.98,8.883-8.883S141.493,415.375,136.589,415.375z"/>
	<circle style="fill:#EFBB6A;" cx="170.698" cy="424.258" r="8.883"/>
	<circle style="fill:#EFBB6A;" cx="273.056" cy="424.258" r="8.883"/>
	<path style="fill:#EFBB6A;" d="M375.415,415.375c-4.915,0-8.883,3.98-8.883,8.883s3.968,8.883,8.883,8.883
		c4.904,0,8.883-3.98,8.883-8.883S380.319,415.375,375.415,415.375z"/>
	<path style="fill:#EFBB6A;" d="M409.527,415.375c-4.915,0-8.883,3.98-8.883,8.883s3.968,8.883,8.883,8.883
		c4.904,0,8.883-3.98,8.883-8.883S414.43,415.375,409.527,415.375z"/>
	<circle style="fill:#EFBB6A;" cx="341.29" cy="424.258" r="8.883"/>
	<path style="fill:#EFBB6A;" d="M307.181,415.375c-4.915,0-8.883,3.98-8.883,8.883s3.968,8.883,8.883,8.883
		c4.904,0,8.871-3.98,8.871-8.883C316.052,419.355,312.085,415.375,307.181,415.375z"/>
	<path style="fill:#EFBB6A;" d="M102.466,415.375c-4.915,0-8.883,3.98-8.883,8.883s3.968,8.883,8.883,8.883
		c4.903,0,8.883-3.98,8.883-8.883S107.37,415.375,102.466,415.375z"/>
</g>
<g>
</g>
<g>
</g>
<g>
</g>
<g>
</g>
<g>
</g>
<g>
</g>
<g>
</g>
<g>
</g>
<g>
</g>
<g>
</g>
<g>
</g>
<g>
</g>
<g>
</g>
<g>
</g>
<g>
</g>
</svg>
