<?xml version="1.0" encoding="iso-8859-1"?>
<!-- Generator: Adobe Illustrator 19.0.0, SVG Export Plug-In . SVG Version: 6.00 Build 0)  -->
<svg version="1.1" id="Layer_1" xmlns="http://www.w3.org/2000/svg" xmlns:xlink="http://www.w3.org/1999/xlink" x="0px" y="0px"
	 viewBox="0 0 512.001 512.001" style="enable-background:new 0 0 512.001 512.001;" xml:space="preserve">
<g>
	
		<rect x="155.177" y="149.687" transform="matrix(-0.9061 -0.423 0.423 -0.9061 421.3288 405.2668)" style="fill:#999999;" width="200.912" height="12.39"/>
	
		<rect x="73.651" y="108.991" transform="matrix(-0.8776 -0.4794 0.4794 -0.8776 42.4515 459.183)" style="fill:#999999;" width="12.391" height="230.363"/>
</g>
<path style="fill:#D88948;" d="M450.701,355.95c-88.412,71.189-205.277,95.688-313.603,68.182
	c-7.491-1.892-14.936-4.044-22.337-6.443l2.861-97.13c7.581-0.89,15.116-2.016,22.63-3.379
	c69.533-12.65,135.496-45.743,188.088-97.851l87.333,40.466L450.701,355.95z"/>
<circle style="fill:#CCCCCC;" cx="145.285" cy="104.375" r="27.518"/>
<polygon style="fill:#EFBB6A;" points="512.001,323.127 503.091,331.102 461.673,368.206 450.701,355.95 440.665,344.743 
	418.689,320.198 374.658,271.042 355.869,250.068 328.34,219.328 322.28,212.57 371.177,168.786 372.607,167.502 383.928,180.14 
	436.554,238.894 453.315,257.615 505.287,315.636 "/>
<path style="fill:#D88948;" d="M80.462,322.992l16.716,54.969l-19.093,25.547c-23.486-10.6-46.183-23.914-67.663-39.988
	c-0.27-0.203-0.518-0.394-0.777-0.586c-19.859-14.947-6.668-46.419,17.966-43.108C45.183,322.192,62.834,323.228,80.462,322.992z"/>
<g>
	<path style="fill:#C4783F;" d="M120.776,419.577c1.682,0.513,3.365,1.015,5.051,1.503c0.224,0.064,0.448,0.125,0.671,0.189
		c1.654,0.474,3.308,0.938,4.966,1.389c0.048,0.013,0.097,0.025,0.145,0.038c109.853,29.753,229.181,5.647,319.091-66.745
		l-3.672-4.1c-82.535,53.967-184.059,71.474-279.49,48.897c-0.093-0.023-0.189-0.045-0.285-0.068
		c-17.055-4.086-28.886-19.619-28.369-37.149l1.266-42.974l0.101-3.379c-7.513,1.363-15.049,2.489-22.63,3.379l-24.95,42.758
		l22.09,54.333l-0.001,0.038l0,0l0,0c0.045,0.015,0.089,0.028,0.134,0.042c1.795,0.582,3.594,1.149,5.397,1.702
		C120.453,419.482,120.615,419.528,120.776,419.577z"/>
	<path style="fill:#C4783F;" d="M79.167,366.944l18.011,11.016l-19.093,25.547c-23.486-10.6-46.183-23.914-67.663-39.988
		c-0.27-0.203-0.518-0.394-0.777-0.586c-19.093-14.362-7.637-43.997,15.15-43.344c0.068,6.758,3.019,13.585,9.631,18.563
		c0.259,0.191,0.507,0.383,0.777,0.586C49.373,349.338,64.062,358.744,79.167,366.944z"/>
</g>
<polygon style="fill:#D89F55;" points="512.001,323.127 503.091,331.102 440.665,344.743 418.689,320.198 439.313,253.312 
	374.658,271.042 355.869,250.068 371.177,168.786 372.607,167.502 383.928,180.14 369.408,257.299 436.554,238.894 453.315,257.615 
	430.37,332.003 505.287,315.636 "/>
<path style="fill:#F97C64;" d="M117.667,319.128l-0.045,1.431l-1.847,62.64v0.079l-1.014,34.412
	c-0.158,5.35-4.551,9.574-9.867,9.574h-0.293l-17.324-0.507c-5.452-0.158-9.732-4.708-9.574-10.16l0.383-13.089l1.419-48.098
	l0.957-32.418l0.146-4.967c0.158-5.452,4.708-9.732,10.16-9.574l17.313,0.507C113.545,309.114,117.825,313.665,117.667,319.128z"/>
<path style="fill:#DD6352;" d="M115.775,383.198v0.079l-1.014,34.412c-0.158,5.35-4.551,9.574-9.867,9.574h-0.293l-17.324-0.507
	c-5.452-0.158-9.732-4.708-9.574-10.16l0.383-13.089l1.419-48.098C79.505,355.41,84.393,378.411,115.775,383.198z"/>
<g>
</g>
<g>
</g>
<g>
</g>
<g>
</g>
<g>
</g>
<g>
</g>
<g>
</g>
<g>
</g>
<g>
</g>
<g>
</g>
<g>
</g>
<g>
</g>
<g>
</g>
<g>
</g>
<g>
</g>
</svg>
