<?xml version="1.0" encoding="iso-8859-1"?>
<!-- Generator: Adobe Illustrator 19.0.0, SVG Export Plug-In . SVG Version: 6.00 Build 0)  -->
<svg version="1.1" id="Layer_1" xmlns="http://www.w3.org/2000/svg" xmlns:xlink="http://www.w3.org/1999/xlink" x="0px" y="0px"
	 viewBox="0 0 512.001 512.001" style="enable-background:new 0 0 512.001 512.001;" xml:space="preserve">
<path style="fill:#CCCCCC;" d="M472.847,0c10.787,85.242-18.458,170.673-79.2,231.415l-83.72,83.72l-55.242-20.545l-20.866-55.563
	L472.847,0z"/>
<path style="fill:#EFBB6A;" d="M136.276,488.785l-18.563,18.563c-6.204,6.204-16.261,6.204-22.465,0l-53.642-53.642
	c-6.204-6.204-6.204-16.261,0-22.465l18.563-18.563L136.276,488.785z"/>
<path style="fill:#D89F55;" d="M85.105,437.613L55.31,467.408l-13.703-13.703c-6.204-6.204-6.204-16.261,0-22.465l18.563-18.563
	L85.105,437.613z"/>
<path style="fill:#E6E6E6;" d="M472.847,0l-21.931,21.931c-2.729,69.32-31.339,135.761-81.165,185.588l-98.117,98.117l38.295,9.499
	l83.72-83.72C454.39,170.673,483.634,85.242,472.847,0z"/>
<rect x="52.786" y="314.01" transform="matrix(-0.7071 0.7071 -0.7071 -0.7071 569.2821 499.8432)" style="fill:#F97C64;" width="256.668" height="107.628"/>
<rect x="27.2" y="324.608" transform="matrix(-0.7071 0.7071 -0.7071 -0.7071 507.5135 474.2599)" style="fill:#DD6352;" width="256.668" height="35.264"/>
<g>
	<path style="fill:#EFBB6A;" d="M142.887,481.578c-0.572-0.572-1.075-1.233-1.487-1.977L87.591,382.4
		c-2.367-4.277-0.82-9.663,3.458-12.03c4.278-2.367,9.665-0.817,12.03,3.457l53.809,97.202c2.367,4.277,0.82,9.663-3.458,12.03
		C149.897,485.014,145.606,484.297,142.887,481.578z"/>
	<path style="fill:#EFBB6A;" d="M117.926,355.516c-2.72-2.72-3.437-7.01-1.48-10.543c2.367-4.277,7.754-5.825,12.03-3.458
		l97.202,53.809c4.272,2.366,5.824,7.752,3.457,12.03c-2.367,4.277-7.754,5.825-12.03,3.458l-97.202-53.809
		C119.159,356.592,118.498,356.088,117.926,355.516z"/>
	<path style="fill:#EFBB6A;" d="M243.988,380.477c-0.572-0.572-1.075-1.233-1.487-1.977l-53.809-97.202
		c-2.367-4.277-0.82-9.663,3.458-12.03c4.278-2.367,9.664-0.815,12.03,3.457l53.809,97.202c2.367,4.277,0.82,9.663-3.458,12.03
		C250.997,383.914,246.707,383.198,243.988,380.477z"/>
</g>
<g>
</g>
<g>
</g>
<g>
</g>
<g>
</g>
<g>
</g>
<g>
</g>
<g>
</g>
<g>
</g>
<g>
</g>
<g>
</g>
<g>
</g>
<g>
</g>
<g>
</g>
<g>
</g>
<g>
</g>
</svg>
