<?xml version="1.0" encoding="iso-8859-1"?>
<!-- Generator: Adobe Illustrator 19.0.0, SVG Export Plug-In . SVG Version: 6.00 Build 0)  -->
<svg version="1.1" id="Layer_1" xmlns="http://www.w3.org/2000/svg" xmlns:xlink="http://www.w3.org/1999/xlink" x="0px" y="0px"
	 viewBox="0 0 512 512" style="enable-background:new 0 0 512 512;" xml:space="preserve">
<path style="fill:#EFBB6A;" d="M506.448,211.015c-18.949-27.964-42.463-52.568-69.463-72.778
	c-44.325-33.176-106.374-28.532-145.522,10.627l-35.458,35.458l-35.469-35.458c-39.148-39.159-101.185-43.803-145.522-10.627
	c-26.988,20.198-50.502,44.802-69.44,72.755c-1.907,2.804-3.769,5.643-5.575,8.515c1.805,2.873,3.667,5.711,5.575,8.515
	c15.248,22.481,33.437,42.804,54.021,60.391c4.314,3.701,8.742,7.266,13.261,10.707c17.462,13.329,36.423,24.785,56.576,34.073
	c5.166,2.396,10.411,4.632,15.725,6.733c22.174,8.742,45.642,14.942,70.019,18.234l4.723,23.06
	c1.748,8.527,9.253,14.658,17.962,14.658h36.275c8.72,0,16.225-6.131,17.973-14.658l4.712-23.06
	c24.388-3.293,47.845-9.492,70.03-18.246c5.314-2.089,10.559-4.337,15.725-6.721c20.153-9.299,39.114-20.755,56.565-34.073
	c4.53-3.44,8.947-7.005,13.261-10.707c20.584-17.587,38.762-37.888,54.01-60.368c1.907-2.804,3.769-5.654,5.586-8.538
	C510.195,216.647,508.344,213.809,506.448,211.015z M218.981,304.128c-19.824-2.952-39.034-8.243-57.269-15.702
	c-5.302-2.169-10.514-4.507-15.634-7.039c-13.182-6.494-25.773-14.158-37.615-22.923c-4.564-3.372-9.015-6.914-13.352-10.604
	c-7.244-6.165-14.147-12.773-20.687-19.801c-2.577-2.782-5.109-5.62-7.573-8.527c2.464-2.895,4.996-5.734,7.596-8.504
	c3.962-4.246,8.073-8.356,12.319-12.308c30.973-28.861,79.25-27.987,109.178,1.953c14.749,14.737,23.037,34.731,23.037,55.588
	V304.128z M416.901,247.847c-4.337,3.701-8.799,7.244-13.363,10.616c-11.842,8.765-24.422,16.429-37.604,22.923
	c-5.121,2.532-10.343,4.871-15.634,7.039c-18.234,7.459-37.445,12.75-57.269,15.702v-47.868c0-20.857,8.277-40.851,23.026-55.588
	c29.929-29.94,78.205-30.814,109.178-1.953c4.246,3.951,8.345,8.05,12.308,12.296c2.6,2.782,5.132,5.62,7.607,8.515
	c-2.464,2.907-4.984,5.745-7.562,8.515C431.036,235.074,424.133,241.682,416.901,247.847z"/>
<g>
	<path style="fill:#D89F55;" d="M226.355,312.683l-8.465-1.259c-61.047-9.082-116.683-40.019-156.66-87.112l-4.061-4.783
		l4.069-4.778c6.391-7.504,13.29-14.716,20.503-21.435c16.388-15.265,37.789-23.444,60.142-23.048
		c22.394,0.402,43.449,9.344,59.285,25.18l0,0c16.244,16.243,25.19,37.84,25.19,60.812v56.423H226.355z M76.652,219.545
		c35.405,39.544,82.845,66.198,134.943,75.865v-39.149c0-19.029-7.41-36.919-20.865-50.375
		c-27.268-27.268-70.725-28.045-98.93-1.769C86.546,209.011,81.468,214.182,76.652,219.545z"/>
	<path style="fill:#D89F55;" d="M285.649,312.683v-56.423c0-22.972,8.946-44.568,25.19-60.812l0,0
		c15.836-15.836,36.891-24.78,59.285-25.18c22.34-0.396,43.754,7.783,60.142,23.048c7.213,6.719,14.112,13.931,20.503,21.435
		l4.069,4.778l-4.061,4.783c-39.978,47.093-95.614,78.03-156.66,87.112L285.649,312.683z M321.274,205.885
		c-13.455,13.455-20.865,31.346-20.865,50.375v39.149c52.098-9.667,99.539-36.321,134.943-75.865
		c-4.816-5.362-9.894-10.534-15.148-15.428C391.998,177.841,348.544,178.618,321.274,205.885L321.274,205.885z"/>
	<path style="fill:#D89F55;" d="M66.851,219.53c2.464,2.907,4.996,5.745,7.573,8.527l-68.849-0.034
		c-1.907-2.804-3.769-5.643-5.575-8.515c1.805-2.873,3.667-5.711,5.575-8.515l68.872,0.034
		C71.847,213.797,69.315,216.636,66.851,219.53z"/>
	<path style="fill:#D89F55;" d="M512,219.507c-1.817,2.884-3.679,5.734-5.586,8.538h-68.827c2.577-2.77,5.098-5.609,7.562-8.515
		c-2.475-2.895-5.007-5.734-7.607-8.515h68.906C508.344,213.809,510.195,216.647,512,219.507z"/>
	<path style="fill:#D89F55;" d="M382.578,333.194c-5.166,2.384-10.411,4.632-15.725,6.721l-16.554-51.49
		c5.291-2.169,10.514-4.507,15.634-7.039L382.578,333.194z"/>
	<path style="fill:#D89F55;" d="M452.404,288.415c-4.314,3.701-8.731,7.266-13.261,10.707l-35.606-40.658
		c4.564-3.372,9.026-6.914,13.363-10.616L452.404,288.415z"/>
	<path style="fill:#D89F55;" d="M161.712,288.426l-16.554,51.501c-5.314-2.1-10.559-4.337-15.725-6.733l16.645-51.807
		C151.199,283.918,156.41,286.256,161.712,288.426z"/>
	<path style="fill:#D89F55;" d="M108.463,258.462L72.857,299.12c-4.519-3.44-8.947-7.005-13.261-10.707l35.515-40.556
		C99.448,251.549,103.899,255.09,108.463,258.462z"/>
	<circle style="fill:#D89F55;" cx="256.006" cy="325.707" r="8.515"/>
	<circle style="fill:#D89F55;" cx="256.006" cy="266.418" r="8.515"/>
	<circle style="fill:#D89F55;" cx="358.769" cy="149.315" r="8.515"/>
	<circle style="fill:#D89F55;" cx="153.231" cy="149.315" r="8.515"/>
</g>
<g>
</g>
<g>
</g>
<g>
</g>
<g>
</g>
<g>
</g>
<g>
</g>
<g>
</g>
<g>
</g>
<g>
</g>
<g>
</g>
<g>
</g>
<g>
</g>
<g>
</g>
<g>
</g>
<g>
</g>
</svg>
