<?xml version="1.0" encoding="utf-8"?>
<!-- Generator: Adobe Illustrator 16.0.3, SVG Export Plug-In . SVG Version: 6.00 Build 0)  -->
<!DOCTYPE svg PUBLIC "-//W3C//DTD SVG 1.1//EN" "http://www.w3.org/Graphics/SVG/1.1/DTD/svg11.dtd">
<svg version="1.1" id="Vrstva_1" xmlns="http://www.w3.org/2000/svg" xmlns:xlink="http://www.w3.org/1999/xlink" x="0px" y="0px"
   width="490px" height="370px" viewBox="0 0 490 370" enable-background="new 0 0 490 370" xml:space="preserve">
<rect id="white_background" fill="#FFFFFF" width="490" height="370"/>
<g id="monitor">

    <radialGradient id="Stin_1_" cx="-314.7681" cy="-5147.623" r="92.682" gradientTransform="matrix(1.1835 0 0 -0.1156 617.5279 -261.7174)" gradientUnits="userSpaceOnUse">
    <stop  offset="0" style="stop-color:#5E5E5E"/>
    <stop  offset="1" style="stop-color:#000000;stop-opacity:0"/>
  </radialGradient>
  <path id="Stin" fill="url(#Stin_1_)" d="M354.721,333.348c0,5.916-49.13,10.711-109.723,10.711s-109.719-4.795-109.719-10.711
    s49.126-10.711,109.719-10.711c60.596,0,109.723,4.797,109.723,10.713V333.348L354.721,333.348z"/>

    <linearGradient id="SVGID_1_" gradientUnits="userSpaceOnUse" x1="-147.5649" y1="-242.1563" x2="-147.5649" y2="-314.6484" gradientTransform="matrix(1 0 0 -1 395.2021 18.6992)">
    <stop  offset="0" style="stop-color:#000000"/>
    <stop  offset="0.2989" style="stop-color:#282826"/>
    <stop  offset="0.4809" style="stop-color:#A6A5A8"/>
    <stop  offset="0.6866" style="stop-color:#BABABA"/>
    <stop  offset="0.8038" style="stop-color:#6E6E6E"/>
    <stop  offset="0.9042" style="stop-color:#949494"/>
    <stop  offset="0.9806" style="stop-color:#ABAAAA"/>
  </linearGradient>

    <linearGradient id="SVGID_2_" gradientUnits="userSpaceOnUse" x1="-147.603" y1="-241.6563" x2="-147.603" y2="-315.1484" gradientTransform="matrix(1 0 0 -1 395.2021 18.6992)">
    <stop  offset="0" style="stop-color:#000000"/>
    <stop  offset="0.199" style="stop-color:#282826"/>
    <stop  offset="0.3904" style="stop-color:#A6A5A8"/>
    <stop  offset="0.6217" style="stop-color:#BABABA"/>
    <stop  offset="0.8211" style="stop-color:#A8A8A8"/>
    <stop  offset="0.9337" style="stop-color:#ADADAD"/>
    <stop  offset="0.9951" style="stop-color:#C3C2C2"/>
  </linearGradient>
  <path fill="url(#SVGID_1_)" stroke="url(#SVGID_2_)" stroke-miterlimit="10" d="M306.958,333.348H188.317
    c6.832-4.146,21.208-9.547,21.984-18.275c2.197-24.725,0.182-54.217,0.182-54.217h70.855c0,0-1.816,32.775-0.361,55.309
    C281.512,324.428,300.939,329.504,306.958,333.348z"/>

    <linearGradient id="SVGID_3_" gradientUnits="userSpaceOnUse" x1="-147.5986" y1="-315.043" x2="-147.5986" y2="-319.6492" gradientTransform="matrix(1 0 0 -1 395.2021 18.6992)">
    <stop  offset="0" style="stop-color:#616161"/>
    <stop  offset="0.2414" style="stop-color:#A6A5A8"/>
    <stop  offset="0.5049" style="stop-color:#BDBDBD"/>
    <stop  offset="0.784" style="stop-color:#ABAAAA"/>
    <stop  offset="1" style="stop-color:#4F4F4F"/>
  </linearGradient>
  <path fill="url(#SVGID_3_)" d="M306.128,338.35H188.477c0.263-1.949-1.942-4.564-1.942-4.564l122.137-0.049
    C308.672,333.746,305.975,336.465,306.128,338.35L306.128,338.35L306.128,338.35z"/>
  <path d="M442.101,279.789c0,3.1-2.563,5.611-5.729,5.611H53.631c-3.163,0-5.731-2.512-5.731-5.611V33.554
    c0-3.099,2.568-5.612,5.731-5.612h382.736c3.168,0,5.729,2.513,5.729,5.612v246.235H442.101z"/>
  <rect x="55.178" y="35.209" fill="#FFFFFF" width="379.649" height="242.191"/>
</g>
<g id="_x34_04">
  <rect x="54.448" y="34.846" fill="#282E40" width="381.104" height="242.917"/>
  <g>
    <path fill="#f5f5f5" d="M194.154,128.51h16.359v0.39c0,0.389-0.295,0.583-0.884,0.583h-15.476v21.021h-1.326v-21.021h-38.354
      c-0.405,0-0.654-0.04-0.746-0.121c-0.092-0.081-0.175-0.203-0.249-0.365l-0.11-0.39l40.014-46.322h0.773L194.154,128.51
      L194.154,128.51z M192.828,86.178c0-0.259,0-0.535,0-0.827s0.036-0.584,0.11-0.876l-38.023,44.035h37.913V86.178z"/>
    <path fill="#f5f5f5" d="M272.412,116.443c0,5.969-0.729,11.135-2.186,15.498c-1.455,4.363-3.426,7.972-5.914,10.826
      c-2.484,2.854-5.396,4.972-8.729,6.35c-3.337,1.379-6.859,2.068-10.584,2.068c-3.722,0-7.25-0.689-10.584-2.068
      c-3.335-1.378-6.246-3.495-8.733-6.35c-2.486-2.854-4.458-6.463-5.913-10.826c-1.456-4.363-2.183-9.529-2.183-15.498
      c0-5.968,0.727-11.134,2.183-15.498c1.455-4.362,3.427-7.979,5.913-10.85c2.487-2.871,5.398-5.004,8.733-6.399
      c3.334-1.394,6.862-2.092,10.584-2.092c3.725,0,7.247,0.698,10.584,2.092c3.334,1.395,6.244,3.528,8.729,6.399
      c2.488,2.871,4.459,6.488,5.914,10.85C271.686,105.309,272.412,110.475,272.412,116.443z M270.977,116.443
      c0-5.839-0.688-10.882-2.07-15.132c-1.383-4.249-3.254-7.761-5.609-10.534c-2.355-2.774-5.109-4.834-8.263-6.18
      c-3.15-1.346-6.494-2.02-10.03-2.02c-3.537,0-6.893,0.673-10.059,2.02c-3.17,1.346-5.941,3.405-8.318,6.18
      c-2.376,2.772-4.256,6.285-5.638,10.534c-1.382,4.25-2.072,9.293-2.072,15.132c0,5.839,0.69,10.884,2.072,15.133
      c1.382,4.25,3.262,7.753,5.638,10.51c2.377,2.758,5.148,4.801,8.318,6.13c3.167,1.331,6.521,1.995,10.059,1.995
      c3.536,0,6.88-0.664,10.03-1.995c3.149-1.329,5.903-3.373,8.263-6.13c2.355-2.756,4.229-6.26,5.609-10.51
      C270.284,127.327,270.977,122.282,270.977,116.443z"/>
    <path fill="#f5f5f5" d="M322.373,128.51h16.355v0.39c0,0.389-0.295,0.583-0.883,0.583h-15.474v21.021h-1.326v-21.021h-38.354
      c-0.404,0-0.653-0.04-0.744-0.121c-0.096-0.081-0.178-0.203-0.249-0.365l-0.11-0.39l40.018-46.322h0.771L322.373,128.51
      L322.373,128.51z M321.047,86.178c0-0.259,0-0.535,0-0.827s0.035-0.584,0.11-0.876l-38.021,44.035h37.911V86.178L321.047,86.178z"
      />
  </g>
  <g>
    <path fill="#f5f5f5" d="M111.171,192.264v0.781c0,0.391-0.279,0.725-0.726,0.725c-0.334,0-0.725-0.334-0.725-0.725v-2.789v-0.223
      c0-0.223,0.111-0.391,0.279-0.557c0.39-0.227,0.78-0.166,1.004,0.107l1.672,2.346c0.224,0.275,0.168,0.725-0.167,1.004
      c-0.111,0.055-0.278,0.055-0.446,0.055c-0.223,0-0.446-0.055-0.558-0.277L111.171,192.264z M109.721,195.889
      c0-0.445,0.391-0.725,0.725-0.725c0.446,0,0.726,0.279,0.726,0.725v2.844c0,0.334-0.279,0.668-0.726,0.668
      c-0.334,0-0.725-0.334-0.725-0.668V195.889z M109.721,201.52c0-0.391,0.391-0.668,0.725-0.668c0.446,0,0.726,0.277,0.726,0.668
      v2.848c0,0.334-0.279,0.723-0.726,0.723c-0.334,0-0.725-0.389-0.725-0.723V201.52z M109.721,207.207
      c0-0.445,0.391-0.725,0.725-0.725c0.446,0,0.726,0.275,0.726,0.725v2.787c0,0.336-0.279,0.727-0.726,0.727
      c-0.334,0-0.725-0.391-0.725-0.727V207.207z M109.721,212.84c0-0.447,0.391-0.727,0.725-0.727c0.446,0,0.726,0.279,0.726,0.727
      v2.787c0,0.389-0.279,0.725-0.726,0.725c-0.334,0-0.725-0.336-0.725-0.725V212.84z M109.721,218.471
      c0-0.447,0.391-0.727,0.725-0.727c0.446,0,0.726,0.279,0.726,0.727v2.842c0,0.336-0.279,0.67-0.726,0.67
      c-0.334,0-0.725-0.334-0.725-0.67V218.471z M109.721,224.102c0-0.391,0.391-0.67,0.725-0.67c0.446,0,0.726,0.279,0.726,0.67v2.844
      c0,0.334-0.279,0.729-0.726,0.729c-0.334,0-0.725-0.395-0.725-0.729V224.102z M113.178,195.053
      c-0.224-0.391-0.111-0.781,0.167-1.004c0.279-0.225,0.781-0.111,1.004,0.166l1.617,2.287c0.278,0.277,0.167,0.725-0.167,0.949
      c-0.112,0.111-0.279,0.111-0.391,0.111c-0.223,0-0.446-0.061-0.613-0.279L113.178,195.053z M116.468,199.623
      c-0.224-0.334-0.167-0.779,0.167-1.002c0.279-0.279,0.725-0.168,1.004,0.166l1.617,2.23c0.223,0.391,0.167,0.777-0.111,1.004
      c-0.168,0.168-0.279,0.168-0.447,0.168c-0.223,0-0.445-0.111-0.557-0.279L116.468,199.623z M119.757,204.197
      c-0.223-0.336-0.167-0.781,0.224-0.949c0.278-0.279,0.669-0.223,0.893,0.111l1.728,2.287c0.168,0.334,0.112,0.775-0.167,0.941
      c-0.111,0.17-0.278,0.17-0.391,0.17c-0.223,0-0.445-0.057-0.612-0.275L119.757,204.197z M123.102,208.713
      c-0.224-0.279-0.167-0.67,0.112-0.893c0.334-0.279,0.78-0.229,1.004,0.111l1.672,2.283c0.223,0.334,0.167,0.779-0.224,1.002
      c-0.056,0.061-0.166,0.111-0.39,0.111s-0.446-0.059-0.558-0.279L123.102,208.713z M126.392,213.34
      c-0.223-0.279-0.167-0.727,0.168-1.004c0.278-0.223,0.725-0.168,0.948,0.223l1.616,2.23c0.279,0.391,0.224,0.781-0.111,1.004
      c-0.167,0.057-0.279,0.111-0.446,0.111c-0.223,0-0.39-0.055-0.557-0.277L126.392,213.34z M129.682,217.912
      c-0.278-0.279-0.167-0.725,0.168-1.004c0.278-0.223,0.725-0.111,1.003,0.223l1.617,2.287c0.223,0.334,0.111,0.725-0.167,0.947
      c-0.111,0.057-0.279,0.168-0.391,0.168c-0.224,0-0.446-0.168-0.558-0.279L129.682,217.912z M132.972,222.484
      c-0.224-0.279-0.168-0.781,0.223-1.004c0.279-0.168,0.669-0.111,0.893,0.223l1.672,2.287c0.224,0.277,0.168,0.779-0.111,1.004
      c-0.167,0.055-0.278,0.111-0.445,0.111c-0.224,0-0.391-0.111-0.558-0.279L132.972,222.484z M136.262,227.057
      c-0.224-0.279-0.112-0.725,0.167-0.947c0.167-0.109,0.39-0.17,0.558-0.109v-1.896c0-0.392,0.334-0.67,0.725-0.67
      s0.669,0.278,0.669,0.67v2.845c0,0.166-0.056,0.334-0.167,0.5c0.056,0.278-0.056,0.561-0.335,0.78
      c-0.056,0.06-0.167,0.06-0.334,0.06c-0.278,0-0.502-0.06-0.614-0.279L136.262,227.057z M136.986,190.256
      c0-0.445,0.334-0.725,0.725-0.725s0.669,0.279,0.669,0.725v2.789c0,0.391-0.278,0.725-0.669,0.725s-0.725-0.334-0.725-0.725
      V190.256z M136.986,195.889c0-0.445,0.334-0.725,0.725-0.725s0.669,0.279,0.669,0.725v2.844c0,0.334-0.278,0.668-0.669,0.668
      s-0.725-0.334-0.725-0.668V195.889z M136.986,201.52c0-0.391,0.334-0.668,0.725-0.668s0.669,0.277,0.669,0.668v2.848
      c0,0.334-0.278,0.723-0.669,0.723s-0.725-0.389-0.725-0.723V201.52z M136.986,207.207c0-0.445,0.334-0.725,0.725-0.725
      s0.669,0.275,0.669,0.725v2.787c0,0.336-0.278,0.727-0.669,0.727s-0.725-0.391-0.725-0.727V207.207z M136.986,212.84
      c0-0.447,0.334-0.727,0.725-0.727s0.669,0.279,0.669,0.727v2.787c0,0.389-0.278,0.725-0.669,0.725s-0.725-0.336-0.725-0.725
      V212.84z M136.986,218.471c0-0.447,0.334-0.727,0.725-0.727s0.669,0.279,0.669,0.727v2.842c0,0.336-0.278,0.67-0.669,0.67
      s-0.725-0.334-0.725-0.67V218.471z"/>
    <path fill="#f5f5f5" d="M150.817,214.621c0-0.834,0.056-1.727,0.278-2.564c0.057-0.334,0.446-0.668,0.78-0.613
      c0.447,0.111,0.614,0.447,0.559,0.896c-0.111,0.781-0.224,1.508-0.224,2.285c0,0.168,0,0.229,0,0.275
      c0,0.447-0.278,0.781-0.613,0.781c-0.056,0-0.056,0-0.056,0c-0.39,0-0.725-0.334-0.725-0.725
      C150.817,214.846,150.817,214.789,150.817,214.621z M151.152,217.912c-0.057-0.391,0.223-0.725,0.557-0.836
      c0.335-0.168,0.781,0.111,0.837,0.5c0.223,0.895,0.502,1.729,0.836,2.51c0.223,0.336,0,0.779-0.334,0.893
      c-0.056,0.111-0.111,0.111-0.279,0.111c-0.278,0-0.445-0.166-0.613-0.447C151.709,219.807,151.431,218.861,151.152,217.912z
       M151.876,209.215c0.447-0.893,0.837-1.785,1.395-2.564c0.223-0.391,0.726-0.391,1.004-0.225c0.334,0.225,0.39,0.613,0.167,1.004
      c-0.445,0.668-0.893,1.449-1.227,2.287c-0.167,0.277-0.391,0.502-0.669,0.502c-0.111,0-0.223-0.059-0.223-0.059
      C151.933,209.994,151.709,209.604,151.876,209.215z M153.717,223.152c-0.335-0.279-0.224-0.668,0.111-0.947
      c0.278-0.223,0.669-0.166,0.948,0.111c0.502,0.725,1.17,1.34,1.84,2.008c0.278,0.168,0.278,0.613,0.111,0.947
      c-0.167,0.107-0.39,0.223-0.613,0.223c-0.111,0-0.279-0.111-0.391-0.111C154.943,224.715,154.274,224.045,153.717,223.152z
       M155.223,204.418c0.724-0.723,1.505-1.281,2.397-1.783c0.278-0.168,0.78-0.055,0.892,0.223c0.223,0.336,0.056,0.781-0.223,1.004
      c-0.78,0.395-1.45,0.947-2.175,1.51c-0.111,0.168-0.279,0.223-0.391,0.223c-0.223,0-0.445-0.055-0.558-0.223
      C154.943,205.086,154.943,204.697,155.223,204.418z M158.177,226.945c-0.39-0.168-0.501-0.563-0.39-0.896
      c0.224-0.336,0.669-0.502,1.004-0.336c0.78,0.396,1.617,0.67,2.453,0.896c0.446,0.056,0.669,0.445,0.558,0.834
      c-0.056,0.336-0.391,0.56-0.669,0.56c-0.112,0-0.168,0-0.168,0C159.961,227.725,159.014,227.445,158.177,226.945z
       M160.352,201.463c0.892-0.277,1.895-0.445,2.898-0.5c0.391,0,0.725,0.277,0.725,0.725c0,0.395-0.278,0.668-0.725,0.668
      c-0.892,0.111-1.729,0.229-2.564,0.447c-0.056,0.055-0.167,0.055-0.167,0.055c-0.279,0-0.614-0.223-0.67-0.502
      C159.738,201.965,159.905,201.576,160.352,201.463z M163.864,226.889c0.892,0,1.841-0.111,2.62-0.334
      c0.391-0.111,0.726,0.111,0.893,0.502c0,0.389-0.167,0.729-0.502,0.895c-1.004,0.168-1.951,0.336-2.955,0.336
      c-0.445,0-0.669-0.279-0.669-0.729C163.14,227.223,163.475,226.889,163.864,226.889z M165.983,202.58
      c-0.446-0.113-0.67-0.391-0.614-0.781c0.057-0.391,0.447-0.613,0.838-0.559c1.003,0.223,1.895,0.502,2.843,0.949
      c0.334,0.166,0.446,0.609,0.278,0.943c-0.111,0.227-0.391,0.395-0.613,0.395c-0.111,0-0.278,0-0.278-0.111
      C167.655,203.082,166.764,202.803,165.983,202.58z M168.882,225.551c0.781-0.445,1.563-0.893,2.176-1.506
      c0.278-0.223,0.78-0.168,1.003,0.111c0.279,0.279,0.279,0.67-0.111,0.949c-0.669,0.668-1.506,1.227-2.342,1.672
      c-0.168,0.111-0.224,0.111-0.391,0.111s-0.502-0.111-0.613-0.334C168.436,226.164,168.603,225.773,168.882,225.551z
       M170.666,204.809c-0.278-0.223-0.39-0.607-0.167-0.947c0.279-0.334,0.67-0.334,0.948-0.107c0.78,0.561,1.505,1.281,2.119,2.119
      c0.334,0.275,0.223,0.725-0.056,1.004c-0.111,0.059-0.335,0.105-0.503,0.105c-0.167,0-0.39-0.105-0.557-0.273
      C171.949,205.98,171.336,205.367,170.666,204.809z M172.841,222.094c0.559-0.668,0.948-1.451,1.339-2.287
      c0.111-0.334,0.502-0.502,0.892-0.334c0.335,0.111,0.502,0.563,0.391,0.896c-0.391,0.943-0.893,1.729-1.45,2.617
      c-0.111,0.111-0.39,0.277-0.557,0.277c-0.168,0-0.279-0.111-0.447-0.166C172.674,222.873,172.618,222.371,172.841,222.094z
       M173.9,208.99c-0.167-0.391,0-0.779,0.279-0.947c0.39-0.223,0.78-0.111,1.004,0.279c0.39,0.836,0.78,1.838,1.003,2.729
      c0.056,0.393-0.167,0.781-0.502,0.895c-0.111,0-0.111,0-0.223,0c-0.278,0-0.558-0.223-0.613-0.557
      C174.626,210.553,174.291,209.717,173.9,208.99z M174.96,217.299c0.168-0.836,0.224-1.783,0.224-2.678c0-0.166,0-0.334,0-0.557
      c0-0.395,0.278-0.668,0.725-0.779c0.334,0,0.725,0.277,0.725,0.725c0,0.166,0,0.445,0,0.611c0,1.061-0.111,2.008-0.335,2.955
      c-0.056,0.336-0.334,0.559-0.725,0.559c0,0,0,0-0.111,0C175.128,218.078,174.904,217.633,174.96,217.299z"/>
    <path fill="#f5f5f5" d="M183.048,201.631c0-0.391,0.334-0.725,0.725-0.725h2.788c0.39,0,0.725,0.334,0.725,0.725
      s-0.335,0.67-0.725,0.67h-2.788C183.382,202.301,183.048,202.021,183.048,201.631z M187.787,190.033
      c0-0.391,0.334-0.723,0.726-0.723c0.39,0,0.724,0.332,0.724,0.723v2.844c0,0.391-0.334,0.67-0.724,0.67
      c-0.392,0-0.726-0.279-0.726-0.67V190.033z M187.787,195.666c0-0.391,0.334-0.67,0.726-0.67c0.39,0,0.724,0.279,0.724,0.67v2.844
      c0,0.389-0.334,0.725-0.724,0.725c-0.392,0-0.726-0.336-0.726-0.725V195.666z M187.787,201.352c0-0.389,0.334-0.723,0.726-0.723
      c0.39,0,0.724,0.334,0.724,0.723v2.789c0,0.393-0.334,0.729-0.724,0.729c-0.392,0-0.726-0.336-0.726-0.729V201.352z
       M187.787,206.982c0-0.395,0.334-0.727,0.726-0.727c0.39,0,0.724,0.332,0.724,0.727v2.844c0,0.393-0.334,0.672-0.724,0.672
      c-0.392,0-0.726-0.279-0.726-0.672V206.982z M187.787,212.613c0-0.389,0.334-0.668,0.726-0.668c0.39,0,0.724,0.279,0.724,0.668
      v2.846c0,0.391-0.334,0.725-0.724,0.725c-0.392,0-0.726-0.334-0.726-0.725V212.613z M187.787,218.303
      c0-0.391,0.334-0.727,0.726-0.727c0.39,0,0.724,0.336,0.724,0.727v2.787c0,0.391-0.334,0.725-0.724,0.725
      c-0.392,0-0.726-0.334-0.726-0.725V218.303z M187.787,224.102v-0.168c0-0.389,0.334-0.725,0.726-0.725
      c0.39,0,0.724,0.336,0.724,0.725v0.168c0,0.729,0.279,1.449,0.726,1.951c0.278,0.279,0.278,0.725,0,1.004
      c-0.168,0.111-0.335,0.166-0.502,0.166s-0.391-0.055-0.502-0.223C188.233,226.221,187.787,225.217,187.787,224.102z
       M189.738,201.631c0-0.391,0.335-0.725,0.725-0.725h2.788c0.391,0,0.726,0.334,0.726,0.725s-0.335,0.67-0.726,0.67h-2.788
      C190.073,202.301,189.738,202.021,189.738,201.631z M191.243,227.613c0-0.391,0.336-0.668,0.726-0.668c0.056,0,0.056,0,0.111,0
      c0.391,0,0.67,0.334,0.67,0.725s-0.279,0.668-0.67,0.668c-0.056,0-0.111,0-0.111,0
      C191.579,228.338,191.243,228.004,191.243,227.613z"/>
    <path fill="#f5f5f5" d="M225.537,189.979c0-0.443,0.334-0.725,0.725-0.725h0.167h2.844c0.446,0,0.725,0.277,0.725,0.725
      c0,0.334-0.278,0.729-0.725,0.729h-2.286v2.174c0,0.334-0.278,0.729-0.725,0.729c-0.391,0-0.725-0.395-0.725-0.729V189.979z
       M225.537,195.777c0-0.447,0.334-0.729,0.725-0.729c0.446,0,0.725,0.277,0.725,0.729v2.896c0,0.336-0.278,0.67-0.725,0.67
      c-0.391,0-0.725-0.334-0.725-0.67V195.777z M225.537,201.52c0-0.391,0.334-0.725,0.725-0.725c0.446,0,0.725,0.334,0.725,0.725
      v2.898c0,0.391-0.278,0.727-0.725,0.727c-0.391,0-0.725-0.336-0.725-0.727V201.52z M225.537,207.318
      c0-0.445,0.334-0.729,0.725-0.729c0.446,0,0.725,0.281,0.725,0.729v1.17h2.286c0.446,0,0.725,0.336,0.725,0.727
      c0,0.443-0.278,0.723-0.725,0.723h-2.286v0.281c0,0.334-0.278,0.723-0.725,0.723c-0.391,0-0.725-0.389-0.725-0.723V207.318z
       M225.537,213.117c0-0.447,0.334-0.725,0.725-0.725c0.446,0,0.725,0.273,0.725,0.725v2.898c0,0.336-0.278,0.725-0.725,0.725
      c-0.391,0-0.725-0.389-0.725-0.725V213.117z M225.537,218.861c0-0.395,0.334-0.672,0.725-0.672c0.446,0,0.725,0.281,0.725,0.672
      v2.896c0,0.394-0.278,0.728-0.725,0.728c-0.391,0-0.725-0.334-0.725-0.728V218.861z M225.537,224.658
      c0-0.445,0.334-0.725,0.725-0.725c0.446,0,0.725,0.275,0.725,0.725v2.9c0,0.389-0.278,0.725-0.725,0.725
      c-0.391,0-0.725-0.336-0.725-0.725V224.658z M232.172,190.703c-0.446,0-0.725-0.391-0.725-0.725c0-0.447,0.278-0.729,0.725-0.729
      h2.899c0.446,0,0.726,0.273,0.726,0.729c0,0.334-0.279,0.725-0.726,0.725H232.172z M232.172,209.938
      c-0.446,0-0.725-0.275-0.725-0.723c0-0.391,0.278-0.727,0.725-0.727h2.899c0.446,0,0.726,0.336,0.726,0.727
      c0,0.443-0.279,0.723-0.726,0.723H232.172z M237.972,190.703c-0.444,0-0.726-0.391-0.726-0.725c0-0.447,0.278-0.729,0.726-0.729
      h2.899c0.444,0,0.726,0.273,0.726,0.729c0,0.334-0.279,0.725-0.726,0.725H237.972z M237.972,209.938
      c-0.444,0-0.726-0.275-0.726-0.723c0-0.391,0.278-0.727,0.726-0.727h2.899c0.444,0,0.726,0.336,0.726,0.727
      c0,0.443-0.279,0.723-0.726,0.723H237.972z M243.769,190.703c-0.444,0-0.726-0.391-0.726-0.725c0-0.447,0.279-0.729,0.726-0.729
      h2.898c0.394,0,0.669,0.273,0.669,0.729c0,0.334-0.275,0.725-0.669,0.725H243.769z M243.769,209.938
      c-0.444,0-0.726-0.275-0.726-0.723c0-0.391,0.279-0.727,0.726-0.727h1.34c0.446,0,0.725,0.336,0.725,0.727
      c0,0.443-0.277,0.723-0.725,0.723H243.769z"/>
    <path fill="#f5f5f5" d="M253.309,214.621c0-0.834,0.058-1.727,0.276-2.564c0.06-0.334,0.444-0.668,0.78-0.613
      c0.443,0.111,0.611,0.447,0.56,0.896c-0.11,0.781-0.225,1.508-0.225,2.285c0,0.168,0,0.229,0,0.275
      c0,0.447-0.279,0.781-0.614,0.781c-0.057,0-0.057,0-0.057,0c-0.391,0-0.725-0.334-0.725-0.725
      C253.309,214.846,253.309,214.789,253.309,214.621z M253.643,217.912c-0.059-0.391,0.224-0.725,0.559-0.836
      c0.334-0.168,0.777,0.111,0.836,0.5c0.227,0.895,0.502,1.729,0.837,2.51c0.226,0.336,0,0.779-0.335,0.893
      c-0.059,0.111-0.109,0.111-0.275,0.111c-0.279,0-0.447-0.166-0.613-0.447C254.198,219.807,253.919,218.861,253.643,217.912z
       M254.365,209.215c0.443-0.893,0.837-1.785,1.396-2.564c0.224-0.391,0.726-0.391,1.005-0.225c0.334,0.225,0.392,0.613,0.168,1.004
      c-0.447,0.668-0.896,1.449-1.229,2.287c-0.168,0.277-0.394,0.502-0.67,0.502c-0.111,0-0.226-0.059-0.226-0.059
      C254.421,209.994,254.198,209.604,254.365,209.215z M256.206,223.152c-0.335-0.279-0.226-0.668,0.108-0.947
      c0.279-0.223,0.672-0.166,0.947,0.111c0.502,0.725,1.172,1.34,1.84,2.008c0.278,0.168,0.278,0.613,0.111,0.947
      c-0.168,0.107-0.391,0.223-0.611,0.223c-0.109,0-0.277-0.111-0.393-0.111C257.434,224.715,256.766,224.045,256.206,223.152z
       M257.711,204.418c0.729-0.723,1.507-1.281,2.396-1.783c0.278-0.168,0.781-0.055,0.894,0.223c0.226,0.336,0.058,0.781-0.222,1.004
      c-0.78,0.395-1.449,0.947-2.176,1.51c-0.109,0.168-0.277,0.223-0.393,0.223c-0.225,0-0.445-0.055-0.559-0.223
      C257.434,205.086,257.434,204.697,257.711,204.418z M260.664,226.945c-0.391-0.168-0.501-0.563-0.391-0.896
      c0.225-0.336,0.668-0.502,1.006-0.336c0.777,0.396,1.613,0.67,2.449,0.896c0.447,0.056,0.674,0.445,0.561,0.834
      c-0.059,0.336-0.391,0.56-0.669,0.56c-0.109,0-0.167,0-0.167,0C262.45,227.725,261.502,227.445,260.664,226.945z M262.843,201.463
      c0.892-0.277,1.896-0.445,2.896-0.5c0.392,0,0.729,0.277,0.729,0.725c0,0.395-0.28,0.668-0.729,0.668
      c-0.893,0.111-1.729,0.229-2.563,0.447c-0.056,0.055-0.164,0.055-0.164,0.055c-0.278,0-0.612-0.223-0.671-0.502
      C262.227,201.965,262.393,201.576,262.843,201.463z M266.354,226.889c0.892,0,1.838-0.111,2.619-0.334
      c0.391-0.111,0.727,0.111,0.894,0.502c0,0.389-0.167,0.729-0.503,0.895c-1.004,0.168-1.95,0.336-2.953,0.336
      c-0.447,0-0.672-0.279-0.672-0.729C265.627,227.223,265.962,226.889,266.354,226.889z M268.475,202.58
      c-0.447-0.113-0.67-0.391-0.615-0.781c0.059-0.391,0.447-0.613,0.836-0.559c1.007,0.223,1.896,0.502,2.848,0.949
      c0.333,0.166,0.443,0.609,0.277,0.943c-0.11,0.227-0.394,0.395-0.613,0.395c-0.109,0-0.277,0-0.277-0.111
      C270.143,203.082,269.252,202.803,268.475,202.58z M271.37,225.551c0.778-0.445,1.563-0.893,2.175-1.506
      c0.278-0.223,0.781-0.168,1.007,0.111c0.276,0.279,0.276,0.67-0.11,0.949c-0.672,0.668-1.508,1.227-2.344,1.672
      c-0.168,0.111-0.226,0.111-0.392,0.111c-0.167,0-0.503-0.111-0.613-0.334C270.924,226.164,271.093,225.773,271.37,225.551z
       M273.154,204.809c-0.278-0.223-0.393-0.607-0.166-0.947c0.275-0.334,0.668-0.334,0.945-0.107
      c0.781,0.561,1.506,1.281,2.119,2.119c0.334,0.275,0.223,0.725-0.058,1.004c-0.11,0.059-0.335,0.105-0.502,0.105
      c-0.168,0-0.392-0.105-0.558-0.273C274.438,205.98,273.823,205.367,273.154,204.809z M275.329,222.094
      c0.56-0.668,0.946-1.451,1.339-2.287c0.111-0.334,0.502-0.502,0.895-0.334c0.334,0.111,0.502,0.563,0.392,0.896
      c-0.392,0.943-0.894,1.729-1.449,2.617c-0.11,0.111-0.391,0.277-0.56,0.277c-0.168,0-0.277-0.111-0.444-0.166
      C275.162,222.873,275.104,222.371,275.329,222.094z M276.391,208.99c-0.166-0.391,0-0.779,0.277-0.947
      c0.393-0.223,0.781-0.111,1.004,0.279c0.393,0.836,0.779,1.838,1.006,2.729c0.055,0.393-0.169,0.781-0.503,0.895
      c-0.11,0-0.11,0-0.225,0c-0.278,0-0.56-0.223-0.613-0.557C277.114,210.553,276.779,209.717,276.391,208.99z M277.449,217.299
      c0.167-0.836,0.223-1.783,0.223-2.678c0-0.166,0-0.334,0-0.557c0-0.395,0.278-0.668,0.727-0.779c0.334,0,0.727,0.277,0.727,0.725
      c0,0.166,0,0.445,0,0.611c0,1.061-0.109,2.008-0.335,2.955c-0.058,0.336-0.335,0.559-0.726,0.559c0,0,0,0-0.11,0
      C277.616,218.078,277.393,217.633,277.449,217.299z"/>
    <path fill="#f5f5f5" d="M287.989,201.631c0-0.334,0.335-0.668,0.726-0.668c0.393,0,0.672,0.334,0.672,0.668v1.953
      c0,0.389-0.279,0.723-0.672,0.723c-0.391,0-0.726-0.334-0.726-0.723V201.631z M287.989,206.426c0-0.445,0.335-0.723,0.726-0.723
      c0.393,0,0.672,0.277,0.672,0.723v2.789c0,0.389-0.279,0.723-0.672,0.723c-0.391,0-0.726-0.334-0.726-0.723V206.426z
       M287.989,212.057c0-0.445,0.335-0.725,0.726-0.725c0.393,0,0.672,0.279,0.672,0.725v2.732c0,0.391-0.279,0.727-0.672,0.727
      c-0.391,0-0.726-0.336-0.726-0.727V212.057z M287.989,217.633c0-0.334,0.276-0.725,0.726-0.725c0.393,0,0.672,0.279,0.672,0.725
      c0.108,0.838,0.223,1.729,0.443,2.51c0.109,0.445-0.059,0.781-0.443,0.896c-0.059,0-0.169,0-0.169,0
      c-0.336,0-0.612-0.111-0.727-0.447C288.213,219.641,288.045,218.693,287.989,217.633z M289.771,223.32
      c-0.276-0.334-0.109-0.781,0.168-1.004c0.334-0.227,0.779-0.111,1.002,0.223c0.504,0.725,1.008,1.395,1.729,1.953
      c0.279,0.277,0.279,0.725,0,1.002c-0.108,0.111-0.274,0.223-0.442,0.223s-0.394,0-0.504-0.166
      C291.001,224.938,290.273,224.156,289.771,223.32z M294.232,227.223c-0.334-0.166-0.502-0.611-0.334-0.947
      c0.166-0.391,0.559-0.559,0.894-0.275c0.781,0.336,1.617,0.611,2.51,0.777c0.392,0,0.671,0.395,0.56,0.781
      c-0.057,0.393-0.334,0.561-0.67,0.561c-0.109,0-0.109,0-0.166,0C296.018,227.947,295.07,227.67,294.232,227.223z M299.921,226.889
      c0.896-0.111,1.729-0.277,2.513-0.613c0.334-0.166,0.727,0.061,0.894,0.395c0.167,0.395-0.058,0.775-0.446,0.896
      c-0.893,0.389-1.84,0.557-2.843,0.725c-0.058,0-0.058,0-0.058,0c-0.336,0-0.729-0.279-0.729-0.613
      C299.195,227.223,299.477,226.889,299.921,226.889z M304.718,224.994c0.728-0.502,1.341-1.117,1.841-1.842
      c0.277-0.279,0.728-0.334,1.004-0.166c0.336,0.334,0.336,0.725,0.11,1.059c-0.612,0.781-1.339,1.506-2.063,2.064
      c-0.166,0.166-0.334,0.166-0.443,0.166c-0.227,0-0.446-0.111-0.561-0.279C304.326,225.717,304.382,225.271,304.718,224.994z
       M307.895,220.924c0.277-0.781,0.445-1.619,0.611-2.51c0.112-0.336,0.445-0.615,0.78-0.615c0.394,0.057,0.61,0.391,0.61,0.783
      c-0.108,1.002-0.334,2.006-0.777,2.898c-0.059,0.275-0.334,0.443-0.613,0.443c-0.056,0-0.165,0-0.275-0.109
      C307.895,221.703,307.729,221.313,307.895,220.924z M308.621,201.631c0-0.334,0.275-0.668,0.668-0.668s0.727,0.334,0.727,0.668
      v2.844c0,0.445-0.334,0.67-0.727,0.67s-0.668-0.225-0.668-0.67V201.631z M308.621,207.264c0-0.336,0.275-0.672,0.668-0.672
      s0.727,0.336,0.727,0.672v2.785c0,0.449-0.334,0.727-0.727,0.727s-0.668-0.273-0.668-0.727V207.264z M308.621,212.84
      c0-0.338,0.275-0.672,0.668-0.672s0.727,0.334,0.727,0.672v2.842c0,0.445-0.334,0.67-0.727,0.67s-0.668-0.225-0.668-0.67V212.84z"
      />
    <path fill="#f5f5f5" d="M321.393,201.688c0-0.391,0.276-0.725,0.727-0.725c0.334,0,0.669,0.334,0.669,0.725v2.787
      c0,0.445-0.335,0.729-0.669,0.729c-0.446,0-0.727-0.281-0.727-0.729V201.688z M322.116,211.443c-0.446,0-0.728-0.334-0.669-0.779
      v-0.223c-0.059-0.111-0.059-0.227-0.059-0.396v-2.781c0-0.34,0.277-0.676,0.728-0.676c0.334,0,0.669,0.336,0.669,0.676v0.107
      c0.058,0,0.168,0,0.277,0.055c0.334,0.111,0.56,0.506,0.445,0.896c-0.392,0.836-0.613,1.672-0.613,2.508
      c-0.109,0.447-0.393,0.613-0.727,0.613H322.116L322.116,211.443z M321.393,213.563v-0.107v-0.561c0-0.393,0.276-0.727,0.727-0.727
      c0.334,0,0.669,0.334,0.669,0.727v3.516c0,0.391-0.335,0.67-0.669,0.67c-0.446,0-0.727-0.279-0.727-0.67V213.563z
       M321.393,219.193v-0.111v-0.611c0-0.336,0.276-0.672,0.727-0.672c0.334,0,0.669,0.336,0.669,0.672v2.842v0.168v0.502
      c0,0.393-0.335,0.668-0.669,0.668c-0.446,0-0.727-0.275-0.727-0.668V219.193z M321.393,227.057v-0.168v-2.119v-0.107v-0.613
      c0-0.334,0.276-0.67,0.727-0.67c0.334,0,0.669,0.336,0.669,0.67v0.613v0.107v2.119v0.168v0.502c0,0.445-0.335,0.729-0.669,0.729
      c-0.446,0-0.727-0.279-0.727-0.729V227.057z M323.68,205.201c0.611-0.727,1.338-1.451,2.117-2.064
      c0.278-0.223,0.779-0.168,1.005,0.111c0.224,0.391,0.109,0.781-0.17,1.004c-0.668,0.557-1.28,1.115-1.896,1.84
      c-0.11,0.168-0.334,0.279-0.559,0.279c-0.113,0-0.279-0.111-0.393-0.111C323.511,205.98,323.396,205.535,323.68,205.201z
       M328.361,201.742c0.945-0.334,1.949-0.613,2.953-0.725c0.392-0.059,0.727,0.223,0.779,0.67c0,0.334-0.277,0.668-0.613,0.775
      c-0.945,0-1.729,0.279-2.617,0.502c-0.059,0.113-0.111,0.113-0.168,0.113c-0.334,0-0.613-0.168-0.613-0.447
      C327.915,202.189,328.082,201.854,328.361,201.742z M334.049,202.467c-0.391,0-0.611-0.389-0.503-0.725
      c0-0.445,0.394-0.613,0.728-0.557c1.062,0.107,2.009,0.502,2.897,0.893c0.335,0.111,0.446,0.557,0.279,0.891
      c-0.112,0.279-0.394,0.447-0.671,0.447c-0.057,0-0.225,0-0.225-0.057C335.773,202.969,334.886,202.746,334.049,202.467z
       M338.677,204.754c-0.276-0.225-0.337-0.613-0.057-1.004c0.278-0.223,0.67-0.223,1.004-0.055c0.728,0.723,1.396,1.506,1.952,2.285
      c0.167,0.275,0.167,0.781-0.229,1.002c-0.107,0.057-0.222,0.057-0.332,0.057c-0.336,0-0.502-0.057-0.67-0.277
      C339.898,205.98,339.29,205.367,338.677,204.754z M341.465,209.102c-0.111-0.389,0.111-0.775,0.561-0.834
      c0.332-0.17,0.725,0.059,0.779,0.395c0.276,1,0.5,2.006,0.5,2.949c0,0.445-0.277,0.729-0.611,0.781h-0.058
      c-0.392,0-0.726-0.336-0.726-0.67C341.91,210.775,341.743,209.938,341.465,209.102z M341.91,214.455
      c0-0.391,0.334-0.668,0.727-0.668c0.391,0,0.668,0.277,0.668,0.668v2.844c0,0.334-0.277,0.668-0.668,0.668
      c-0.393,0-0.727-0.334-0.727-0.668V214.455z M341.91,220.086c0-0.445,0.334-0.725,0.727-0.725c0.391,0,0.668,0.279,0.668,0.725
      v2.787c0,0.391-0.277,0.727-0.668,0.727c-0.393,0-0.727-0.336-0.727-0.727V220.086z M341.91,225.717
      c0-0.445,0.334-0.723,0.727-0.723c0.391,0,0.668,0.277,0.668,0.723v1.842c0,0.445-0.277,0.729-0.668,0.729
      c-0.393,0-0.727-0.279-0.727-0.729V225.717z"/>
    <path fill="#f5f5f5" d="M352.619,214.846v-0.113c0-0.441,0.334-0.723,0.727-0.723c0.391,0,0.67,0.277,0.67,0.723v0.113
      c0,0.836,0.168,1.672,0.276,2.453c0.11,0.445-0.167,0.779-0.56,0.891h-0.108c-0.394,0-0.671-0.223-0.729-0.557
      C352.786,216.74,352.619,215.793,352.619,214.846z M353.514,212.559c-0.393-0.057-0.613-0.441-0.561-0.836
      c0.227-0.947,0.561-1.896,1.004-2.787c0.168-0.391,0.561-0.502,0.947-0.391c0.336,0.225,0.558,0.67,0.336,1.002
      c-0.336,0.783-0.614,1.617-0.84,2.455c-0.108,0.391-0.391,0.557-0.725,0.557H353.514z M353.848,220.533
      c-0.166-0.447,0-0.781,0.336-1.004c0.334-0.168,0.777,0,0.893,0.334c0.443,0.836,0.893,1.617,1.339,2.342
      c0.335,0.279,0.224,0.781-0.112,1.004c-0.056,0.055-0.224,0.111-0.445,0.111c-0.166,0-0.392-0.057-0.558-0.279
      C354.738,222.26,354.236,221.369,353.848,220.533z M355.518,206.371c0.611-0.781,1.34-1.506,2.118-2.119
      c0.279-0.223,0.728-0.223,1.005,0.111c0.225,0.279,0.225,0.723-0.168,1.004c-0.613,0.557-1.281,1.225-1.839,1.896
      c-0.11,0.166-0.337,0.221-0.56,0.221c-0.111,0-0.278,0-0.391-0.109C355.352,207.152,355.296,206.705,355.518,206.371z
       M357.355,225.217c-0.276-0.279-0.334-0.67-0.055-0.949c0.275-0.391,0.668-0.391,0.945-0.166c0.725,0.668,1.449,1.115,2.229,1.504
      c0.334,0.227,0.502,0.615,0.334,1.006c-0.109,0.166-0.442,0.334-0.61,0.334c-0.167,0-0.224,0-0.392-0.057
      C358.977,226.443,358.141,225.885,357.355,225.217z M360.09,202.691c0.947-0.502,1.844-0.781,2.846-1.004
      c0.444-0.061,0.777,0.166,0.836,0.502c0.109,0.441-0.11,0.775-0.502,0.836c-0.894,0.223-1.729,0.502-2.509,0.947
      c-0.059,0-0.226,0.057-0.278,0.057c-0.277,0-0.56-0.223-0.668-0.445C359.643,203.248,359.757,202.803,360.09,202.691z
       M362.654,227.947c-0.446-0.111-0.613-0.502-0.561-0.891c0.11-0.334,0.502-0.613,0.895-0.445c0.777,0.166,1.729,0.277,2.619,0.277
      c0.393,0,0.727,0.334,0.727,0.67c0,0.441-0.334,0.725-0.727,0.725C364.552,228.283,363.602,228.115,362.654,227.947z
       M368.511,203.193c-0.838-0.229-1.675-0.395-2.62-0.395c-0.393,0-0.668-0.336-0.668-0.725c0-0.395,0.334-0.672,0.668-0.672
      c1.061,0,2.063,0.17,3.01,0.443c0.393,0.061,0.615,0.395,0.502,0.838c-0.109,0.277-0.389,0.502-0.668,0.502h-0.224V203.193
      L368.511,203.193z M368.229,226.611c0.836-0.229,1.729-0.502,2.511-0.949c0.335-0.111,0.778,0,0.944,0.277
      c0.168,0.336,0,0.783-0.334,1.006c-0.836,0.445-1.783,0.779-2.729,1.002c-0.109,0.057-0.166,0.057-0.226,0.057
      c-0.275,0-0.559-0.223-0.668-0.559C367.617,227.057,367.896,226.666,368.229,226.611z M371.018,204.197
      c-0.392-0.225-0.502-0.67-0.276-1.004c0.167-0.395,0.61-0.502,0.896-0.279c0.945,0.502,1.78,1.059,2.508,1.672
      c0.276,0.279,0.334,0.727,0.058,1.004c-0.167,0.223-0.392,0.279-0.56,0.279s-0.276-0.057-0.443-0.223
      C372.471,205.086,371.798,204.586,371.018,204.197z M372.973,224.156c0.668-0.557,1.279-1.17,1.84-1.896
      c0.225-0.277,0.668-0.332,1.004-0.109c0.278,0.166,0.334,0.668,0.11,0.947c-0.612,0.779-1.34,1.563-2.01,2.23
      c-0.167,0.055-0.392,0.111-0.502,0.111c-0.224,0-0.442-0.061-0.56-0.279C372.639,224.881,372.639,224.492,372.973,224.156z
       M374.977,207.654c-0.225-0.279-0.168-0.729,0.11-1.004c0.392-0.229,0.78-0.168,1.004,0.223c0.445,0.611,0.836,1.283,1.228,1.951
      v-1.896c0-0.445,0.279-0.725,0.672-0.725c0.39,0,0.725,0.279,0.725,0.725v2.844c0,0.334-0.335,0.67-0.725,0.67
      c-0.225,0-0.447-0.107-0.561-0.277c-0.058,0.111-0.111,0.111-0.225,0.17c-0.109,0.061-0.225,0.061-0.278,0.061
      c-0.278,0-0.558-0.111-0.612-0.396C375.927,209.102,375.479,208.322,374.977,207.654z M377.316,220.811
      c-0.109,0.113-0.336,0.168-0.502,0.168c-0.109,0-0.223-0.055-0.276-0.055c-0.392-0.113-0.502-0.559-0.392-0.893
      c0.109-0.168,0.109-0.279,0.166-0.447c0.11-0.334,0.56-0.502,0.895-0.334c0,0,0.059,0.055,0.109,0.055v-1.059
      c0-0.447,0.279-0.725,0.672-0.725c0.39,0,0.725,0.273,0.725,0.725v2.844c0,0.336-0.335,0.67-0.725,0.67
      c-0.393,0-0.672-0.334-0.672-0.67V220.811L377.316,220.811z M377.316,189.979c0-0.443,0.279-0.725,0.672-0.725
      c0.39,0,0.725,0.277,0.725,0.725v2.787c0,0.395-0.335,0.729-0.725,0.729c-0.393,0-0.672-0.334-0.672-0.729V189.979z
       M377.316,195.609c0-0.395,0.279-0.729,0.672-0.729c0.39,0,0.725,0.334,0.725,0.729v2.844c0,0.334-0.335,0.725-0.725,0.725
      c-0.393,0-0.672-0.391-0.672-0.725V195.609z M377.316,201.297c0-0.445,0.279-0.725,0.672-0.725c0.39,0,0.725,0.279,0.725,0.725
      v2.789c0,0.389-0.335,0.723-0.725,0.723c-0.393,0-0.672-0.334-0.672-0.723V201.297z M377.316,212.559
      c0-0.391,0.279-0.668,0.672-0.668c0.39,0,0.725,0.277,0.725,0.668v2.844c0,0.395-0.335,0.729-0.725,0.729
      c-0.393,0-0.672-0.334-0.672-0.729V212.559z M377.316,223.877c0-0.389,0.279-0.668,0.672-0.668c0.39,0,0.725,0.279,0.725,0.668
      v2.846c0,0.334-0.335,0.723-0.725,0.723c-0.393,0-0.672-0.389-0.672-0.723V223.877z"/>
  </g>
</g>
</svg>
