<?xml version="1.0" encoding="iso-8859-1"?>
<!-- Generator: Adobe Illustrator 19.0.0, SVG Export Plug-In . SVG Version: 6.00 Build 0)  -->
<svg version="1.1" id="Capa_1" xmlns="http://www.w3.org/2000/svg" xmlns:xlink="http://www.w3.org/1999/xlink" x="0px" y="0px"
	 viewBox="0 0 512.001 512.001" style="enable-background:new 0 0 512.001 512.001;" xml:space="preserve">
<path style="fill:#EE5B55;" d="M436.155,69.186l-68.88,237.254c-7.052,24.291-21.47,45.158-41.696,60.347
	c-20.225,15.188-44.286,23.217-69.579,23.217s-49.354-8.028-69.579-23.217c-20.226-15.189-34.644-36.057-41.696-60.347
	L75.845,69.186c-2.31-7.956,2.268-16.278,10.223-18.587c7.957-2.311,16.277,2.268,18.587,10.223l68.88,237.254
	c10.586,36.462,44.497,61.928,82.464,61.928s71.878-25.466,82.464-61.928l68.88-237.254c2.31-7.955,10.629-12.531,18.587-10.223
	C433.888,52.909,438.465,61.231,436.155,69.186z"/>
<path style="fill:#FFC261;" d="M141.696,55c0,23.317-14.517,43.231-35,51.233V500h-40V106.233c-20.483-8.003-35-27.916-35-51.233
	c0-30.376,24.624-55,55-55S141.696,24.624,141.696,55z M480.304,55c0-30.376-24.624-55-55-55s-55,24.624-55,55
	c0,23.317,14.517,43.231,35,51.233V500h40V106.233C465.787,98.231,480.304,78.317,480.304,55z"/>
<path style="fill:#F3B05F;" d="M108.03,86c10.495,0,20.301-2.942,28.644-8.042C127.973,96.866,108.875,110,86.696,110v390h-20
	V106.233c-20.483-8.003-35-27.916-35-51.233c0-19.881,10.55-37.296,26.356-46.958C54.836,15.031,53.03,22.802,53.03,31
	C53.03,61.376,77.654,86,108.03,86z M446.637,86c-30.376,0-55-24.624-55-55c0-8.198,1.807-15.969,5.022-22.958
	C380.854,17.704,370.304,35.119,370.304,55c0,23.317,14.517,43.231,35,51.233V500h20V110c22.178,0,41.277-13.134,49.978-32.042
	C466.938,83.058,457.132,86,446.637,86z"/>
<path style="fill:#EA744F;" d="M496.989,512h-143.37c-10.238,0-17.468-10.03-14.23-19.743l0,0
	c2.042-6.125,7.774-10.257,14.23-10.257h19.09c-10.238,0-17.468-10.03-14.23-19.743l0,0c2.042-6.125,7.774-10.257,14.23-10.257
	H477.9c6.456,0,12.188,4.131,14.23,10.257l0,0C495.368,471.97,488.138,482,477.9,482h19.09c6.456,0,12.188,4.131,14.23,10.257l0,0
	C514.456,501.97,507.227,512,496.989,512z M172.611,492.257c-2.042-6.125-7.774-10.257-14.23-10.257h-19.09
	c10.238,0,17.468-10.03,14.23-19.743l0,0c-2.042-6.125-7.774-10.257-14.23-10.257H34.101c-6.456,0-12.189,4.131-14.23,10.257l0,0
	C16.633,471.97,23.863,482,34.101,482h-19.09c-6.456,0-12.189,4.131-14.23,10.257l0,0C-2.456,501.97,4.773,512,15.012,512h143.37
	C168.62,512,175.849,501.97,172.611,492.257L172.611,492.257z"/>
<path style="fill:#F4925A;" d="M153.522,110.257C156.76,119.97,149.53,130,139.292,130H34.101c-10.238,0-17.468-10.03-14.23-19.743
	l0,0C21.913,104.131,27.645,100,34.101,100h105.191C145.748,100,151.48,104.131,153.522,110.257L153.522,110.257z M372.708,130
	h105.191c10.238,0,17.468-10.03,14.23-19.743l0,0c-2.042-6.125-7.774-10.257-14.23-10.257H372.708
	c-6.456,0-12.188,4.131-14.23,10.257l0,0C355.24,119.97,362.47,130,372.708,130z M492.129,462.257
	c-2.042-6.125-7.774-10.257-14.23-10.257H372.708c-6.456,0-12.188,4.131-14.23,10.257l0,0C355.24,471.97,362.47,482,372.708,482
	h105.191C488.137,482,495.367,471.97,492.129,462.257L492.129,462.257z M153.522,462.257c-2.042-6.125-7.774-10.257-14.23-10.257
	H34.101c-6.456,0-12.189,4.131-14.23,10.257l0,0C16.633,471.97,23.863,482,34.101,482h105.191
	C149.53,482,156.76,471.97,153.522,462.257L153.522,462.257z"/>
<g>
</g>
<g>
</g>
<g>
</g>
<g>
</g>
<g>
</g>
<g>
</g>
<g>
</g>
<g>
</g>
<g>
</g>
<g>
</g>
<g>
</g>
<g>
</g>
<g>
</g>
<g>
</g>
<g>
</g>
</svg>
