<?xml version="1.0" encoding="iso-8859-1"?>
<!-- Generator: Adobe Illustrator 19.0.0, SVG Export Plug-In . SVG Version: 6.00 Build 0)  -->
<svg version="1.1" id="Layer_1" xmlns="http://www.w3.org/2000/svg" xmlns:xlink="http://www.w3.org/1999/xlink" x="0px" y="0px"
	 viewBox="0 0 512 512" style="enable-background:new 0 0 512 512;" xml:space="preserve">
<g>
	<path style="fill:#CCCCCC;" d="M183.331,94.479c-15.741,14.495-27.306,33.45-32.679,54.872C129.835,140.514,46.494,98.203,83.076,0
		C83.076,0,101.011,75.393,183.331,94.479z"/>
	<path style="fill:#CCCCCC;" d="M428.929,0c36.593,98.203-46.747,140.514-67.576,149.351c-5.373-21.422-16.939-40.377-32.679-54.872
		C410.994,75.393,428.929,0,428.929,0z"/>
</g>
<path style="fill:#666666;" d="M367.2,166.219l-116.147,28.904l28.903-127.569c19.667,4.294,37.388,13.771,51.67,26.926h0.012
	c15.741,14.495,27.306,33.45,32.679,54.872C365.694,154.819,366.666,160.454,367.2,166.219z"/>
<polygon style="fill:#CCCCCC;" points="279.957,67.553 279.957,166.219 232.059,166.219 232.059,67.553 256.008,40.259 "/>
<path style="fill:#666666;" d="M232.059,67.553l27.112,119.871l-114.367-21.205c0.534-5.765,1.506-11.399,2.882-16.867
	c5.373-21.422,16.939-40.377,32.679-54.872h0.012C194.659,81.324,212.393,71.847,232.059,67.553z"/>
<path style="fill:#4D4D4D;" d="M214.253,94.479h0.007c7.883-13.155,17.672-22.632,28.527-26.926h-10.727
	c-19.667,4.294-37.4,13.771-51.682,26.926h-0.012c-15.741,14.495-27.306,33.45-32.679,54.872
	c-1.376,5.468-2.349,11.103-2.882,16.867h49.819c0.294-5.765,0.832-11.399,1.591-16.867
	C199.18,127.929,205.564,108.974,214.253,94.479z"/>
<polygon style="fill:#B3B3B3;" points="256.008,40.259 256.008,166.219 232.059,166.219 232.059,67.553 "/>
<path style="fill:#D88948;" d="M367.841,486.936L346.146,512c0,0-35.229-16.535-80.909-47.245c-3.037-2.04-6.121-4.14-9.24-6.31
	c-5.587-3.867-11.316-7.947-17.117-12.218c-2.93-2.159-5.872-4.377-8.837-6.631c-33.498-25.467-69.023-57.233-98.796-94.502
	c-1.933-2.42-3.843-4.863-5.729-7.331c-10.272-19.857,8.707-37.258,19.679-21.624c1.839,2.23,3.736,4.507,5.705,6.809
	c25.206,29.725,60.032,65.05,105.095,98.441c2.93,2.159,5.895,4.318,8.908,6.465c5.528,3.95,11.209,7.876,17.045,11.743
	c3.084,2.04,6.204,4.08,9.371,6.097C314.57,460.496,340.061,474.505,367.841,486.936z"/>
<g>
	<polygon style="fill:#F97C64;" points="279.957,220.284 279.957,284.69 256.008,311.984 232.059,284.69 232.059,220.284 	"/>
	<path style="fill:#F97C64;" d="M379.406,171.286v42.151c0,3.782-3.065,6.847-6.847,6.847h-92.602h-47.898h-92.614
		c-3.782,0-6.847-3.065-6.847-6.847v-42.151c0-3.782,3.065-6.847,6.847-6.847h5.359h87.255h47.898H367.2h5.359
		C376.34,164.439,379.406,167.504,379.406,171.286z"/>
</g>
<path style="fill:#DD6352;" d="M181.315,164.439v55.845h-19.63h-9.454h-12.785c-3.782,0-6.847-3.065-6.847-6.847v-42.151
	c0-3.782,3.065-6.847,6.847-6.847h12.785h9.454h17.221h2.409V164.439z"/>
<path style="fill:#D88948;" d="M118.329,280.85c7.2,13.329-3.547,30.402-22.786,11.162V292c-4.163-7.556-8.019-15.278-11.53-23.166
	l15.634-17.176C99.647,251.659,105.744,262.868,118.329,280.85z"/>
<path style="fill:#C4783F;" d="M291.321,445.693c-0.617,0.474-1.234,0.937-1.85,1.412c-8.232,6.275-16.357,12.17-24.234,17.65
	c-3.037-2.04-6.121-4.14-9.24-6.31c-5.587-3.867-11.316-7.947-17.117-12.218c8.529-5.694,16.737-11.482,24.637-17.33
	c0.463-0.344,0.925-0.688,1.388-1.044c5.528,3.95,11.209,7.876,17.045,11.743C285.034,441.636,288.154,443.676,291.321,445.693z"/>
<g>
	<path style="fill:#D88948;" d="M144.156,486.936L165.851,512c0,0,40.069-18.813,90.149-53.556
		c8.41-5.824,17.116-12.111,25.953-18.848c33.769-25.675,69.588-57.735,99.505-95.386c2.833-3.564,19.75-24.156,18.592-28.56
		c-2.34-8.902-19.382-5.257-29.048-1.694c-2.295,0.846-4.303,2.315-5.868,4.197C339.643,348.825,303.517,386.186,256,421.388
		c-8.303,6.144-16.95,12.229-25.953,18.208C204.318,456.665,175.72,472.809,144.156,486.936z"/>
	<path style="fill:#D88948;" d="M412.358,251.659l15.634,17.176c-3.511,7.888-7.366,15.61-11.53,23.166v0.012
		c-14.489,14.489-26.811,2.957-22.786-11.162C406.261,262.868,412.358,251.659,412.358,251.659z"/>
</g>
<polygon style="fill:#DD6352;" points="256.008,220.284 256.008,311.984 232.059,284.69 232.059,220.284 "/>
<path style="fill:#C4783F;" d="M150.901,322.948c-7.817,5.99-14.187,13.19-19.05,21.138c-0.202,0.332-0.403,0.664-0.605,1.008
	c-1.933-2.42-3.843-4.863-5.729-7.331c-10.272-19.857,8.707-37.258,19.679-21.624C147.035,318.369,148.932,320.646,150.901,322.948z
	"/>
<path style="fill:#CCCCCC;" d="M161.96,276.212c5.978,8.102,10.142,16.974,12.633,26.131c-10.094,2.361-19.88,6.761-28.753,13.309
	c-0.214,0.154-0.427,0.32-0.641,0.486c-8.102,6.097-14.685,13.463-19.679,21.624c-11.34,18.433-14.578,40.911-8.92,61.823
	c-29.714,6.963-62.061-3.796-81.324-29.903c-19.263-26.12-19.999-60.198-4.579-86.543c19.228,12.17,42.999,15.456,64.836,8.873
	c7.959-2.384,15.657-6.097,22.786-11.162c0.403-0.285,0.807-0.569,1.21-0.866c8.873-6.548,15.954-14.602,21.197-23.546
	C148.746,261.516,155.982,268.123,161.96,276.212z"/>
<path style="fill:#F2F2F2;" d="M113.92,381.343c0.166,6.121,1.056,12.241,2.681,18.243c-29.714,6.963-62.061-3.796-81.324-29.903
	c-19.263-26.12-19.999-60.198-4.579-86.543c3.416,2.159,6.975,4.045,10.64,5.634c-3.725,20.58,0.712,42.584,14.104,60.744
	C69.83,369.007,91.49,379.943,113.92,381.343z"/>
<path style="fill:#CCCCCC;" d="M350.04,276.212c-5.978,8.102-10.142,16.974-12.633,26.131c10.094,2.361,19.88,6.761,28.753,13.309
	c0.214,0.154,0.427,0.32,0.641,0.486c8.102,6.097,14.685,13.463,19.679,21.624c11.34,18.433,14.578,40.911,8.92,61.823
	c29.714,6.963,62.061-3.796,81.324-29.903c19.263-26.12,19.999-60.198,4.579-86.543c-19.228,12.17-42.999,15.456-64.836,8.873
	c-7.959-2.384-15.658-6.097-22.786-11.162c-0.403-0.285-0.807-0.569-1.21-0.866c-8.873-6.548-15.954-14.602-21.197-23.546
	C363.254,261.516,356.018,268.123,350.04,276.212z"/>
<path style="fill:#F2F2F2;" d="M398.08,381.343c-0.166,6.121-1.056,12.241-2.681,18.243c29.714,6.963,62.061-3.796,81.324-29.903
	c19.263-26.12,19.999-60.198,4.579-86.543c-3.416,2.159-6.975,4.045-10.64,5.634c3.725,20.58-0.712,42.584-14.104,60.744
	C442.17,369.007,420.51,379.943,398.08,381.343z"/>
<g>
</g>
<g>
</g>
<g>
</g>
<g>
</g>
<g>
</g>
<g>
</g>
<g>
</g>
<g>
</g>
<g>
</g>
<g>
</g>
<g>
</g>
<g>
</g>
<g>
</g>
<g>
</g>
<g>
</g>
</svg>
