<?xml version="1.0" encoding="iso-8859-1"?>
<!-- Generator: Adobe Illustrator 19.0.0, SVG Export Plug-In . SVG Version: 6.00 Build 0)  -->
<svg version="1.1" id="Layer_1" xmlns="http://www.w3.org/2000/svg" xmlns:xlink="http://www.w3.org/1999/xlink" x="0px" y="0px"
	 viewBox="0 0 512 512" style="enable-background:new 0 0 512 512;" xml:space="preserve">
<g>
	<path style="fill:#D88948;" d="M417.969,473.87l8.393,15.837c5.359,10.112-1.97,22.293-13.416,22.293h-23.01
		c-11.444,0-18.775-12.18-13.415-22.293l8.393-15.837H417.969z"/>
	<path style="fill:#D88948;" d="M127.085,473.87l8.393,15.837c5.359,10.112-1.97,22.293-13.416,22.293H99.054
		c-11.444,0-18.775-12.18-13.416-22.293l8.393-15.837H127.085z"/>
</g>
<g>
	<path style="fill:#D6977F;" d="M425.317,188.879c20.126,0,36.429,24.236,36.429,54.119c0,29.897-16.302,54.119-36.429,54.119
		c-5.089,0-9.907-1.551-14.302-4.314c8.709-26.372,13.349-54.35,13.349-83.022v-20.888
		C424.691,188.879,424.991,188.879,425.317,188.879z"/>
	<path style="fill:#D6977F;" d="M100.985,292.803c-4.382,2.762-9.226,4.314-14.302,4.314c-20.126,0-36.429-24.222-36.429-54.119
		c0-29.883,16.302-54.119,36.429-54.119c0.327,0,0.653,0,0.953,0.014v20.888C87.635,238.452,92.276,266.43,100.985,292.803z"/>
</g>
<g>
	<path style="fill:#D88948;" d="M420.606,369.432c3.286-0.399,6.154,2.251,6.154,5.562v26.21c0,27.964-22.671,50.649-50.649,50.649
		v-32.142c0-13.989,5.675-26.644,14.833-35.816C398.749,376.1,409.079,370.829,420.606,369.432z"/>
	<path style="fill:#D88948;" d="M420.607,304.727c3.285-0.4,6.152,2.251,6.152,5.56v26.21c0,25.881-19.419,47.24-44.482,50.279
		c-3.286,0.399-6.154-2.251-6.154-5.562V370.94l-0.014-0.014c4.259-5.756,8.274-11.689,12.043-17.772
		c9.036-14.601,16.656-30.087,22.712-46.24C413.987,305.877,417.246,305.137,420.607,304.727z"/>
	<path style="fill:#D88948;" d="M135.889,419.711v32.142c-27.978,0-50.649-22.685-50.649-50.649v-26.21
		c0-3.311,2.869-5.96,6.155-5.562c11.519,1.398,21.857,6.668,29.661,14.461C130.215,393.066,135.889,405.722,135.889,419.711z"/>
	<path style="fill:#D88948;" d="M135.889,370.94v10.275c0,3.309-2.867,5.959-6.154,5.562c-25.074-3.037-44.495-24.396-44.495-50.279
		v-26.21c0-3.309,2.867-5.96,6.152-5.56c3.361,0.41,6.62,1.148,9.742,2.187C109.721,329.789,121.438,351.344,135.889,370.94z"/>
</g>
<g>
	<path style="fill:#F97C64;" d="M127.085,475.231h2.3c9.89,0,17.908-8.018,17.908-17.908l0,0c0-9.89-8.018-17.908-17.908-17.908
		H91.731c-9.89,0-17.908,8.018-17.908,17.908l0,0c0,9.89,8.018,17.908,17.908,17.908h2.3"/>
	<path style="fill:#F97C64;" d="M384.915,475.231h-2.3c-9.89,0-17.908-8.018-17.908-17.908l0,0c0-9.89,8.018-17.908,17.908-17.908
		h37.653c9.89,0,17.908,8.018,17.908,17.908l0,0c0,9.89-8.018,17.908-17.908,17.908h-2.3"/>
</g>
<path style="fill:#F7BFA6;" d="M427.767,171.773v43.45c0,0.912,0,1.823-0.027,2.722c-0.054,6.545-0.367,13.05-0.912,19.5v0.014
	c-0.367,4.518-0.871,9.008-1.483,13.486c-5.049,37.136-17.881,72.354-37.191,103.57c-25.433,41.069-62.08,75.184-107,97.569
	c-7.92,3.946-16.534,5.919-25.148,5.919c-8.627,0-17.228-1.973-25.148-5.919C151.811,412.703,98.345,336.947,86.656,250.945
	c-0.612-4.477-1.116-8.968-1.483-13.486c-0.544-6.464-0.857-12.968-0.912-19.514c-0.027-0.898-0.027-1.81-0.027-2.722v-43.45
	C84.233,76.899,161.132,0,256.007,0C350.868,0,427.767,76.899,427.767,171.773z"/>
<g>
	<path style="fill:#D6977F;" d="M238.414,452.084c-62.824-44.758-102.532-136.489-102.532-236.859v-43.454
		C135.882,76.904,189.661,0,256.001,0C161.135,0,84.231,76.904,84.231,171.771v43.454c0,100.37,56.785,192.101,146.622,236.859l0,0
		c7.918,3.945,16.534,5.918,25.149,5.918C249.977,458.002,243.953,456.03,238.414,452.084L238.414,452.084z"/>
	<path style="fill:#D6977F;" d="M288.666,18.221c0,78.341-50.159,128.84-120.118,153.416c-16.275,5.715-33.625,9.158-51.656,9.934
		v-9.798c0-94.358,44.947-168.861,139.114-169.691C256.524,2.068,288.149,18.221,288.666,18.221
		C288.68,18.901,288.666,17.513,288.666,18.221z"/>
</g>
<g>
	<path style="fill:#D88948;" d="M256.02,0c-0.014,0.68-0.014,1.374-0.014,2.082c0,96.562,76.191,175.352,171.76,179.489v-9.798
		C427.767,76.899,350.882,0.014,256.02,0z"/>
	<path style="fill:#D88948;" d="M254.456,0.014c-94.167,0.83-170.222,77.402-170.222,171.76v9.798
		c18.031-0.776,35.381-4.218,51.656-9.934c69.959-24.576,120.118-91.214,120.118-169.555c0-0.708,0-1.402-0.014-2.082
		C255.476,0,254.973,0,254.456,0.014z"/>
</g>
<path style="fill:#C4783F;" d="M254.456,0.014c-65.59,1.184-118.512,77.552-118.566,171.624
	c-16.275,5.715-33.625,9.158-51.656,9.934v-9.798C84.233,77.416,160.288,0.844,254.456,0.014z"/>
<g>
	<path style="fill:#D88948;" d="M205.25,215.65l-61.889-9.859l0,0c1.774-11.133,12.236-18.72,23.369-16.946l61.889,9.859l0,0
		C226.845,209.836,216.383,217.423,205.25,215.65z"/>
	<path style="fill:#D88948;" d="M278.954,198.704L278.954,198.704l61.89-9.859c11.133-1.773,21.596,5.813,23.369,16.946v0.001
		l-61.89,9.858C291.192,217.424,280.728,209.836,278.954,198.704z"/>
</g>
<path style="fill:#F97C64;" d="M213.128,354.899c0,0,1.34-0.894,3.685-2.04c2.345-1.158,5.694-2.581,9.713-3.848
	c4.02-1.271,8.709-2.403,13.733-3.154c5.024-0.773,10.383-1.144,15.742-1.163c5.359,0.004,10.718,0.37,15.742,1.138
	c2.512,0.377,4.94,0.842,7.243,1.374c2.302,0.521,4.48,1.161,6.49,1.776c2.01,0.645,3.851,1.309,5.484,1.972
	c1.633,0.667,3.056,1.306,4.228,1.893c2.345,1.153,3.685,2.051,3.685,2.051s-1.34,0.9-3.685,2.051
	c-1.172,0.588-2.595,1.227-4.228,1.893c-1.633,0.663-3.474,1.325-5.484,1.972c-2.01,0.615-4.187,1.255-6.49,1.776
	c-2.302,0.533-4.731,0.997-7.243,1.374c-5.024,0.767-10.383,1.134-15.742,1.138c-5.359-0.019-10.718-0.391-15.742-1.163
	c-5.024-0.75-9.713-1.882-13.733-3.154c-4.02-1.267-7.369-2.689-9.713-3.848C214.468,355.791,213.128,354.899,213.128,354.899z"/>
<path style="fill:#D6977F;" d="M269.117,299.521h-26.232c-5.638,0-10.206-4.57-10.206-10.206c0-5.636,4.568-10.206,10.206-10.206
	h26.232c5.638,0,10.206,4.57,10.206,10.206C279.323,294.951,274.753,299.521,269.117,299.521z"/>
<path style="fill:#C4783F;" d="M108.36,213.046l-22.739,4.763c-0.449,0.095-0.912,0.136-1.361,0.136
	c-0.027-0.898-0.027-1.81-0.027-2.722v-11.036l21.337-4.463c3.688-0.776,7.28,1.579,8.056,5.266
	C114.402,208.665,112.034,212.271,108.36,213.046z"/>
<path style="fill:#D88948;" d="M427.767,204.188v11.036c0,0.912,0,1.823-0.027,2.722c-0.449,0-0.912-0.041-1.361-0.136
	l-22.739-4.763c-3.674-0.776-6.042-4.382-5.266-8.056c0.776-3.688,4.382-6.042,8.056-5.266L427.767,204.188z"/>
<path style="fill:#C4783F;" d="M110.17,246.059l-22.467,4.763c-0.354,0.068-0.708,0.122-1.048,0.122
	c-0.612-4.477-1.116-8.968-1.483-13.486l22.181-4.708c3.674-0.789,7.28,1.565,8.07,5.239
	C116.198,241.664,113.844,245.27,110.17,246.059z"/>
<path style="fill:#D88948;" d="M426.828,237.446v0.014c-0.367,4.518-0.871,9.008-1.483,13.486c-0.34,0-0.694-0.054-1.048-0.122
	l-22.467-4.763c-3.674-0.789-6.028-4.395-5.239-8.07c0.776-3.674,4.395-6.028,8.07-5.239L426.828,237.446z"/>
<path style="fill:#D6977F;" d="M339.384,263.498c-9.837,0-17.84-8.003-17.84-17.84c0-9.837,8.003-17.841,17.84-17.841
	c9.837,0,17.84,8.003,17.84,17.841C357.224,255.495,349.221,263.498,339.384,263.498z"/>
<circle style="fill:#67C1E8;" cx="339.383" cy="245.665" r="11.037"/>
<path style="fill:#D6977F;" d="M172.617,263.498c-9.837,0-17.84-8.003-17.84-17.84c0-9.837,8.003-17.841,17.84-17.841
	s17.84,8.003,17.84,17.841C190.457,255.495,182.454,263.498,172.617,263.498z"/>
<circle style="fill:#67C1E8;" cx="172.617" cy="245.665" r="11.037"/>
<g>
	<path style="fill:#D6977F;" d="M189.809,246.074c-0.719,0-1.448-0.105-2.173-0.324l-32.549-9.859
		c-3.956-1.198-6.192-5.377-4.993-9.332s5.372-6.192,9.332-4.993l32.549,9.859c3.956,1.198,6.192,5.377,4.993,9.332
		C195.99,243.991,193.022,246.074,189.809,246.074z"/>
	<path style="fill:#D6977F;" d="M322.191,246.074c-3.211,0-6.181-2.083-7.16-5.317c-1.199-3.956,1.037-8.135,4.993-9.332
		l32.549-9.859c3.954-1.198,8.136,1.037,9.332,4.993c1.199,3.956-1.037,8.135-4.993,9.332l-32.549,9.859
		C323.64,245.971,322.909,246.074,322.191,246.074z"/>
</g>
<g>
</g>
<g>
</g>
<g>
</g>
<g>
</g>
<g>
</g>
<g>
</g>
<g>
</g>
<g>
</g>
<g>
</g>
<g>
</g>
<g>
</g>
<g>
</g>
<g>
</g>
<g>
</g>
<g>
</g>
</svg>
